<svg width="15" height="15" viewBox="0 0 15 15" fill="none" xmlns="http://www.w3.org/2000/svg">
<path d="M2.25 3.5H12.75C13.5703 3.5 14.25 4.17969 14.25 5V11C14.25 11.8438 13.5703 12.5 12.75 12.5H2.25C1.40625 12.5 0.75 11.8438 0.75 11V5C0.75 4.17969 1.40625 3.5 2.25 3.5ZM3.75 11C3.75 10.1797 3.07031 9.5 2.25 9.5V11H3.75ZM2.25 6.5C3.07031 6.5 3.75 5.84375 3.75 5H2.25V6.5ZM11.25 11H12.75V9.5C11.9062 9.5 11.25 10.1797 11.25 11ZM12.75 6.5V5H11.25C11.25 5.84375 11.9062 6.5 12.75 6.5ZM7.5 5.75C6.67969 5.75 5.95312 6.19531 5.53125 6.875C5.13281 7.57812 5.13281 8.44531 5.53125 9.125C5.95312 9.82812 6.67969 10.25 7.5 10.25C8.29688 10.25 9.02344 9.82812 9.44531 9.125C9.84375 8.44531 9.84375 7.57812 9.44531 6.875C9.02344 6.19531 8.29688 5.75 7.5 5.75Z" fill="#5B6ACC"/>
</svg>
