<svg width="15" height="15" viewBox="0 0 15 15" fill="none" xmlns="http://www.w3.org/2000/svg">
<path d="M7.5 2C7.89844 2 8.25 2.35156 8.25 2.75V3.57031C10.125 3.89844 11.6016 5.375 11.9297 7.25H12.75C13.1484 7.25 13.5 7.60156 13.5 8C13.5 8.42188 13.1484 8.75 12.75 8.75H11.9297C11.6016 10.6484 10.125 12.125 8.25 12.4531V13.25C8.25 13.6719 7.89844 14 7.5 14C7.07812 14 6.75 13.6719 6.75 13.25V12.4531C4.85156 12.125 3.375 10.6484 3.04688 8.75H2.25C1.82812 8.75 1.5 8.42188 1.5 8C1.5 7.60156 1.82812 7.25 2.25 7.25H3.04688C3.375 5.375 4.85156 3.89844 6.75 3.57031V2.75C6.75 2.35156 7.07812 2 7.5 2ZM4.5 8C4.5 9.07812 5.0625 10.0625 6 10.6016C6.91406 11.1406 8.0625 11.1406 9 10.6016C9.91406 10.0625 10.5 9.07812 10.5 8C10.5 6.94531 9.91406 5.96094 9 5.42188C8.0625 4.88281 6.91406 4.88281 6 5.42188C5.0625 5.96094 4.5 6.94531 4.5 8ZM7.5 6.125C8.15625 6.125 8.76562 6.5 9.11719 7.0625C9.44531 7.64844 9.44531 8.375 9.11719 8.9375C8.76562 9.52344 8.15625 9.875 7.5 9.875C6.82031 9.875 6.21094 9.52344 5.85938 8.9375C5.53125 8.375 5.53125 7.64844 5.85938 7.0625C6.21094 6.5 6.82031 6.125 7.5 6.125Z" fill="#515467"/>
</svg>
