<svg width="15" height="15" viewBox="0 0 15 15" fill="none" xmlns="http://www.w3.org/2000/svg">
<path d="M5.03906 3.00781L7.10156 5.25781C7.38281 5.5625 7.35938 6.03125 7.05469 6.3125C6.75 6.59375 6.28125 6.57031 6 6.26562L5.25 5.44531V12.5C5.25 12.9219 4.89844 13.25 4.5 13.25C4.07812 13.25 3.75 12.9219 3.75 12.5V5.44531L2.97656 6.26562C2.69531 6.57031 2.22656 6.59375 1.92188 6.3125C1.61719 6.03125 1.59375 5.5625 1.875 5.25781L3.9375 3.00781C4.07812 2.84375 4.28906 2.75 4.5 2.75C4.71094 2.75 4.89844 2.84375 5.03906 3.00781ZM8.25 3.875C8.25 3.26562 8.74219 2.75 9.375 2.75H11.625C12.2344 2.75 12.75 3.26562 12.75 3.875V6.125C12.75 6.75781 12.2344 7.25 11.625 7.25H9.375C8.74219 7.25 8.25 6.75781 8.25 6.125V3.875ZM11.1328 9.10156L13.0078 12.1016C13.1484 12.3359 13.1484 12.6406 13.0312 12.875C12.8906 13.1094 12.6328 13.25 12.375 13.25H8.625C8.34375 13.25 8.08594 13.1094 7.96875 12.875C7.82812 12.6406 7.82812 12.3359 7.96875 12.1016L9.84375 9.10156C9.98438 8.89062 10.2422 8.75 10.5 8.75C10.7578 8.75 10.9922 8.89062 11.1328 9.10156Z" fill="#5B6ACC"/>
</svg>
