<svg width="20" height="20" viewBox="0 0 20 20" fill="none" xmlns="http://www.w3.org/2000/svg">
<path d="M10 16C7.84375 16 5.875 14.875 4.79688 13C3.71875 11.1484 3.71875 8.875 4.79688 7C5.875 5.14844 7.84375 4 10 4C12.1328 4 14.1016 5.14844 15.1797 7C16.2578 8.875 16.2578 11.1484 15.1797 13C14.1016 14.875 12.1328 16 10 16ZM9.0625 11.875C8.73438 11.875 8.5 12.1328 8.5 12.4375C8.5 12.7656 8.73438 13 9.0625 13H10.9375C11.2422 13 11.5 12.7656 11.5 12.4375C11.5 12.1328 11.2422 11.875 10.9375 11.875H10.75V9.8125C10.75 9.50781 10.4922 9.25 10.1875 9.25H9.0625C8.73438 9.25 8.5 9.50781 8.5 9.8125C8.5 10.1406 8.73438 10.375 9.0625 10.375H9.625V11.875H9.0625ZM10 7C9.57812 7 9.25 7.35156 9.25 7.75C9.25 8.17188 9.57812 8.5 10 8.5C10.3984 8.5 10.75 8.17188 10.75 7.75C10.75 7.35156 10.3984 7 10 7Z" fill="#8DA3FF"/>
</svg>
