<svg width="31" height="30" viewBox="0 0 31 30" fill="none" xmlns="http://www.w3.org/2000/svg">
<path d="M10.7188 19.5H12.2656L13.1094 17.5781C13.4844 18.4219 14.0938 19.1719 14.8906 19.6875L15.3594 19.9688L14.7969 21.1875C14.4219 21.9844 13.625 22.5 12.7344 22.5H10.1562C9.45312 25.2656 8.42188 27 7.25 27C5.14062 27 3.5 21.6562 3.5 15C3.5 8.39062 5.14062 3 7.25 3C8.75 3 10.1094 6 10.6719 10.2188L11.75 9.14062C12.7812 8.10938 14.1875 7.5 15.6406 7.5C16.2031 7.5 16.7188 7.59375 17.2344 7.78125L19.5312 8.48438C21.2188 9 22.625 10.2656 23.2812 11.9062L23.6094 12.6094C23.8438 13.1719 24.3594 13.5 24.9688 13.5H26C26.7969 13.5 27.5 14.2031 27.5 15C27.5 15.8438 26.7969 16.5 26 16.5H24.9688C23.1406 16.5 21.5469 15.4219 20.8438 13.7344L20.5625 13.1719L19.1562 17.0156L21.7812 18.7031C22.625 19.2188 23.0469 20.25 22.7656 21.2344L21.4062 25.9219C21.1719 26.7188 20.375 27.1875 19.5781 26.9531C18.7812 26.7188 18.3125 25.9219 18.5469 25.125L19.7188 20.9531L15.6875 18.4219C14.5156 17.6719 14 16.2188 14.4219 14.9062L15.875 10.5469C15.8281 10.5469 15.7344 10.5 15.6406 10.5C14.9844 10.5 14.3281 10.7812 13.8594 11.25L12.7812 12.3281C12.2656 12.8438 11.4688 12.8906 10.9062 12.5156C10.9531 13.3125 11 14.1562 11 15C11 16.5938 10.9062 18.1406 10.7188 19.5ZM20.75 7.5C19.9062 7.5 19.2031 7.07812 18.7812 6.375C18.3594 5.71875 18.3594 4.82812 18.7812 4.125C19.2031 3.46875 19.9062 3 20.75 3C21.5469 3 22.25 3.46875 22.6719 4.125C23.0938 4.82812 23.0938 5.71875 22.6719 6.375C22.25 7.07812 21.5469 7.5 20.75 7.5Z" fill="#718FF2"/>
</svg>
