<svg width="31" height="30" viewBox="0 0 31 30" fill="none" xmlns="http://www.w3.org/2000/svg">
<path d="M2 4.5C2 3.70312 2.65625 3 3.5 3H5H17H18.5C19.2969 3 20 3.70312 20 4.5C20 5.34375 19.2969 6 18.5 6V6.51562C18.5 8.53125 17.7031 10.4531 16.2969 11.8594L13.1094 15L14.7969 16.6875C14.2812 17.7656 14 18.9375 14 20.1562L11 17.1562L7.8125 20.3438C6.96875 21.1875 6.5 22.3125 6.5 23.5312V24.0469H14.8906C15.5 25.2188 16.3906 26.25 17.4688 27.0469L17 27H5H3.5C2.65625 27 2 26.3438 2 25.5C2 24.7031 2.65625 24 3.5 24V23.4844C3.5 21.5156 4.25 19.5938 5.65625 18.1875L8.84375 15L5.65625 11.8594C4.25 10.4531 3.5 8.53125 3.5 6.51562V6C2.65625 6 2 5.34375 2 4.5ZM6.5 6V6.51562C6.5 7.73438 6.96875 8.85938 7.8125 9.70312L11 12.8906L14.1406 9.70312C14.9844 8.85938 15.5 7.73438 15.5 6.51562V6H6.5ZM15.5 20.25C15.5 17.8594 16.7656 15.6562 18.875 14.4375C20.9375 13.2188 23.5156 13.2188 25.625 14.4375C27.6875 15.6562 29 17.8594 29 20.25C29 22.6875 27.6875 24.8906 25.625 26.1094C23.5156 27.3281 20.9375 27.3281 18.875 26.1094C16.7656 24.8906 15.5 22.6875 15.5 20.25ZM22.25 16.5C21.8281 16.5 21.5 16.875 21.5 17.25V20.25C21.5 20.6719 21.8281 21 22.25 21H24.5C24.875 21 25.25 20.6719 25.25 20.25C25.25 19.875 24.875 19.5 24.5 19.5H23V17.25C23 16.875 22.625 16.5 22.25 16.5Z" fill="#718FF2"/>
</svg>
