<svg width="31" height="30" viewBox="0 0 31 30" fill="none" xmlns="http://www.w3.org/2000/svg">
<path d="M8 3C8.79688 3 9.5 3.70312 9.5 4.5V6H15.5V4.5C15.5 3.70312 16.1562 3 17 3C17.7969 3 18.5 3.70312 18.5 4.5V6H20.75C21.9688 6 23 7.03125 23 8.25V10.5H2V8.25C2 7.03125 2.98438 6 4.25 6H6.5V4.5C6.5 3.70312 7.15625 3 8 3ZM2 12H23V14.0625L15.5469 21.5156C15.1719 21.8906 14.8906 22.3594 14.75 22.875L14.0469 25.7344C13.9531 26.1562 13.9531 26.625 14.0938 27H4.25C2.98438 27 2 26.0156 2 24.75V12ZM7.625 15.75C6.96875 15.75 6.5 16.2656 6.5 16.875C6.5 17.5312 6.96875 18 7.625 18H14.375C14.9844 18 15.5 17.5312 15.5 16.875C15.5 16.2656 14.9844 15.75 14.375 15.75H7.625ZM6.5 21.375C6.5 22.0312 6.96875 22.5 7.625 22.5H11.375C11.9844 22.5 12.5 22.0312 12.5 21.375C12.5 20.7656 11.9844 20.25 11.375 20.25H7.625C6.96875 20.25 6.5 20.7656 6.5 21.375ZM27.7344 14.0625L28.4375 14.7656C29.1406 15.4688 29.1406 16.6406 28.4375 17.3906L27.0312 18.7969L23.7031 15.4688L25.1094 14.0625C25.8125 13.3594 27.0312 13.3594 27.7344 14.0625ZM16.5781 22.5469L22.6719 16.5L26 19.8281L19.9062 25.875C19.7188 26.0625 19.4844 26.2031 19.25 26.2969L16.3906 27C16.1562 27.0469 15.875 27 15.6875 26.8125C15.5 26.625 15.4531 26.3438 15.5 26.0625L16.2031 23.25C16.25 23.0156 16.3906 22.7344 16.5781 22.5469Z" fill="#718FF2"/>
</svg>
