<svg width="31" height="30" viewBox="0 0 31 30" fill="none" xmlns="http://www.w3.org/2000/svg">
<path d="M14.9375 9.375L13.9062 10.2656C13.9531 10.5938 13.9531 10.9219 13.9531 11.25C13.9531 11.5781 13.9531 11.9062 13.9062 12.2344L14.9375 13.1719C15.2656 13.4531 15.4062 13.9219 15.2188 14.3438C15.125 14.5781 14.9844 14.8594 14.8438 15.0938L14.7031 15.3281C14.5625 15.5625 14.4219 15.7969 14.2812 16.0312C14 16.3594 13.5312 16.5 13.1094 16.3594L11.7969 15.8906C11.2812 16.3125 10.7188 16.6406 10.0625 16.875L9.78125 18.2344C9.6875 18.7031 9.35938 19.0312 8.9375 19.0781C8.60938 19.125 8.28125 19.125 7.95312 19.125C7.67188 19.125 7.34375 19.125 7.01562 19.0781C6.59375 19.0312 6.21875 18.7031 6.17188 18.2344L5.84375 16.875C5.23438 16.6406 4.67188 16.3125 4.15625 15.8906L2.84375 16.3594C2.42188 16.5 1.95312 16.3594 1.67188 16.0312C1.53125 15.7969 1.34375 15.5625 1.20312 15.3281L1.0625 15.0938C0.96875 14.8594 0.828125 14.5781 0.734375 14.3438C0.546875 13.9219 0.6875 13.4531 1.01562 13.1719L2.04688 12.2344C2 11.9531 2 11.625 2 11.25C2 10.9219 2 10.5938 2.04688 10.3125L1.01562 9.375C0.6875 9.04688 0.546875 8.625 0.734375 8.20312C0.828125 7.92188 0.96875 7.6875 1.0625 7.45312L1.20312 7.21875C1.39062 6.98438 1.53125 6.75 1.67188 6.51562C1.95312 6.1875 2.42188 6.04688 2.84375 6.1875L4.15625 6.60938C4.67188 6.23438 5.23438 5.90625 5.89062 5.67188L6.17188 4.26562C6.26562 3.84375 6.59375 3.51562 7.01562 3.46875C7.34375 3.42188 7.625 3.375 7.95312 3.375H8C8.32812 3.375 8.60938 3.42188 8.9375 3.46875C9.35938 3.51562 9.73438 3.84375 9.82812 4.3125L10.1094 5.67188C10.7188 5.85938 11.2812 6.23438 11.7969 6.60938L13.1094 6.1875C13.5312 6.04688 14 6.1875 14.2812 6.51562C14.4219 6.75 14.6094 6.98438 14.75 7.21875L14.8906 7.45312C14.9844 7.6875 15.125 7.92188 15.2188 8.20312C15.4062 8.625 15.2656 9.04688 14.9375 9.375ZM5.75 11.25C5.75 12.0938 6.17188 12.7969 6.875 13.2188C7.53125 13.6406 8.42188 13.6406 9.125 13.2188C9.78125 12.7969 10.25 12.0938 10.25 11.25C10.25 10.4531 9.78125 9.75 9.125 9.32812C8.42188 8.90625 7.53125 8.90625 6.875 9.32812C6.17188 9.75 5.75 10.4531 5.75 11.25ZM24.125 26.4844L23.2344 25.4531C22.9062 25.5 22.5781 25.5 22.25 25.5C21.9219 25.5 21.5938 25.5 21.2656 25.4531L20.3281 26.4844C20.0469 26.8125 19.5781 26.9531 19.1562 26.7656C18.9219 26.6719 18.6406 26.5312 18.4062 26.3906L18.1719 26.25C17.9375 26.1094 17.7031 25.9688 17.4688 25.7812C17.1406 25.5469 17 25.0781 17.1406 24.6562L17.6094 23.3438C17.1875 22.8281 16.8594 22.2656 16.625 21.6094L15.2656 21.3281C14.7969 21.2344 14.4688 20.9062 14.4219 20.4844C14.375 20.1562 14.375 19.8281 14.375 19.5C14.375 19.1719 14.375 18.8906 14.4219 18.5625C14.4688 18.1406 14.7969 17.7656 15.2656 17.6719L16.625 17.3906C16.8594 16.7812 17.1875 16.2188 17.6094 15.7031L17.1406 14.3906C17 13.9688 17.1406 13.5 17.4688 13.2188C17.7031 13.0781 17.9375 12.8906 18.1719 12.75L18.4062 12.6094C18.6406 12.5156 18.9219 12.375 19.1562 12.2812C19.5781 12.0938 20.0469 12.2344 20.3281 12.5625L21.2656 13.5938C21.5469 13.5469 21.875 13.5469 22.25 13.5469C22.5781 13.5469 22.9062 13.5469 23.1875 13.5938L24.125 12.5625C24.4531 12.2344 24.9219 12.0938 25.2969 12.2812C25.5781 12.375 25.8125 12.5156 26.0469 12.6094L26.2812 12.75C26.5156 12.9375 26.75 13.0781 26.9844 13.2188C27.3125 13.5 27.4531 13.9688 27.3125 14.3906L26.8906 15.7031C27.2656 16.2188 27.5938 16.7812 27.8281 17.3906L29.2344 17.7188C29.6562 17.8125 29.9844 18.1406 30.0312 18.5625C30.0781 18.8906 30.125 19.2188 30.125 19.5469C30.125 19.8281 30.0781 20.1562 30.0312 20.4844C29.9844 20.9062 29.6562 21.2812 29.2344 21.3281L27.8281 21.6562C27.6406 22.2656 27.2656 22.8281 26.8906 23.3438L27.3125 24.6562C27.4531 25.0781 27.3125 25.5469 26.9844 25.8281C26.75 25.9688 26.5156 26.1094 26.2812 26.25L26.0469 26.4375C25.8125 26.5312 25.5781 26.6719 25.2969 26.7656C24.875 26.9531 24.4531 26.8125 24.125 26.4844ZM22.25 17.25C21.4062 17.25 20.7031 17.7188 20.2812 18.375C19.8594 19.0781 19.8594 19.9688 20.2812 20.625C20.7031 21.3281 21.4062 21.75 22.25 21.75C23.0469 21.75 23.75 21.3281 24.1719 20.625C24.5938 19.9688 24.5938 19.0781 24.1719 18.375C23.75 17.7188 23.0469 17.25 22.25 17.25Z" fill="#718FF2"/>
</svg>
