<svg width="20" height="20" viewBox="0 0 20 20" fill="none" xmlns="http://www.w3.org/2000/svg">
<path d="M9.09375 2.375C9.59375 1.90625 10.375 1.90625 10.875 2.375L17.625 9.125C18.0938 9.625 18.0938 10.4062 17.625 10.9062L10.875 17.6562C10.375 18.125 9.59375 18.125 9.09375 17.6562L2.34375 10.9062C1.875 10.4062 1.875 9.625 2.34375 9.125L9.09375 2.375ZM10 6C9.5625 6 9.25 6.34375 9.25 6.75V10.25C9.25 10.6875 9.5625 11 10 11C10.4062 11 10.75 10.6875 10.75 10.25V6.75C10.75 6.34375 10.4062 6 10 6ZM11 13C11 12.4688 10.5312 12 10 12C9.4375 12 9 12.4688 9 13C9 13.5625 9.4375 14 10 14C10.5312 14 11 13.5625 11 13Z" fill="#718FF2"/>
</svg>
