<svg width="28" height="27" viewBox="0 0 28 27" fill="#818496" xmlns="http://www.w3.org/2000/svg">
<path d="M10.8059 18.2852L9.71606 17.1953C9.43481 16.9141 9.32935 16.4922 9.46997 16.0703C9.57544 15.7539 9.71606 15.3672 9.85669 14.875H6.16528C5.84888 14.875 5.56763 14.7344 5.427 14.4531C5.25122 14.207 5.25122 13.8906 5.427 13.6094L7.25513 10.5156C7.71216 9.74219 8.55591 9.25 9.43481 9.25H12.3528C12.4231 9.10938 12.4934 9.00391 12.5989 8.86328C15.4817 4.60938 19.7708 4.46875 22.302 4.96094C22.7239 5.03125 23.0403 5.34766 23.1106 5.76953C23.6028 8.30078 23.4622 12.5898 19.2083 15.4727C19.0676 15.5781 18.9622 15.6484 18.8215 15.7188V18.6367C18.8215 19.5156 18.3293 20.3594 17.5559 20.8164L14.4622 22.6445C14.1809 22.8203 13.8645 22.8203 13.6184 22.6445C13.3372 22.5039 13.1965 22.2227 13.1965 21.9062V18.1445C12.6692 18.3203 12.2473 18.4609 11.9309 18.5664C11.5442 18.707 11.0872 18.6016 10.8059 18.2852ZM18.8215 10.6562C19.3137 10.6562 19.7708 10.4102 20.0168 9.95312C20.2629 9.53125 20.2629 9.00391 20.0168 8.54688C19.7708 8.125 19.3137 7.84375 18.8215 7.84375C18.2942 7.84375 17.8372 8.125 17.5911 8.54688C17.345 9.00391 17.345 9.53125 17.5911 9.95312C17.8372 10.4102 18.2942 10.6562 18.8215 10.6562Z"/>
</svg>
