<svg width="28" height="27" viewBox="0 0 28 27" fill="#818496" xmlns="http://www.w3.org/2000/svg">
<path d="M5.60156 17.8984C4.61719 17.0195 4.05469 15.7891 3.84375 14.4883L3 8.6875C2.96484 8.33594 3 7.98438 3.17578 7.70312C3.70312 6.96484 5.21484 5.55859 9.15234 4.96094C13.125 4.36328 14.9531 5.27734 15.6562 5.83984C15.6914 5.83984 15.7266 5.875 15.7617 5.91016C13.8984 6.05078 12.7734 6.64844 12.1055 7.14062C11.5078 7.59766 11.2969 8.26562 11.2266 8.75781L10.5586 13.3633C10.4531 13.3633 10.3477 13.3984 10.2773 13.3984C9.04688 13.5742 8.09766 14.5586 7.88672 15.7188C7.81641 16.0352 8.16797 16.1406 8.37891 15.9648C8.94141 15.543 9.60938 15.2266 10.3125 15.0859C10.207 16.4219 10.4531 17.8281 11.2266 19.0586C11.4727 19.4453 11.7539 19.9023 12.0703 20.3242C11.8594 20.3945 11.6484 20.4297 11.4375 20.4648C9.39844 20.7812 7.07812 19.1641 5.60156 17.8984ZM8.69531 10.1641C8.41406 10.375 8.09766 10.4805 7.74609 10.5508C7.39453 10.5859 7.04297 10.5508 6.72656 10.4453C6.55078 10.4102 6.33984 10.5156 6.375 10.6914C6.375 10.7266 6.375 10.7266 6.375 10.7617C6.48047 11.5 7.18359 12.0625 7.95703 11.9219C8.69531 11.8164 9.22266 11.1133 9.11719 10.3398C9.11719 10.3047 9.11719 10.3047 9.11719 10.2695C9.08203 10.0938 8.83594 10.0586 8.69531 10.1641ZM12.1758 18.4609C11.4727 17.3711 11.2969 16 11.5078 14.6992L12.3516 8.89844C12.3867 8.58203 12.5273 8.23047 12.8086 8.01953C13.5117 7.49219 15.3398 6.57812 19.3125 7.17578C23.25 7.77344 24.7617 9.17969 25.2891 9.91797C25.4648 10.1992 25.5 10.5508 25.4648 10.9023L24.6211 16.668C24.4102 18.0039 23.8477 19.2344 22.8633 20.0781C21.3867 21.3789 19.0664 22.9961 17.0273 22.6797C14.9883 22.3633 13.2305 20.1133 12.1758 18.4609ZM17.2031 13.0469C17.3789 13.1523 17.5898 13.1172 17.625 12.9062V12.8711C17.7305 12.0977 17.2383 11.3945 16.4648 11.2891C15.7266 11.1484 15.0234 11.6758 14.8828 12.4492C14.8828 12.4844 14.8828 12.4844 14.8828 12.5195C14.8828 12.6953 15.0586 12.8008 15.2695 12.7305C15.5508 12.625 15.9023 12.5898 16.2539 12.6602C16.6055 12.6953 16.9219 12.8359 17.2031 13.0469ZM21.9844 13.5742L22.0195 13.5391C22.125 12.7656 21.5977 12.0625 20.8594 11.9219C20.0859 11.8164 19.3828 12.3438 19.2773 13.1172V13.1523C19.2422 13.3633 19.4531 13.4688 19.6289 13.3984C19.9453 13.293 20.2969 13.2578 20.6484 13.3281C21 13.3633 21.3164 13.5039 21.5625 13.7148C21.7383 13.8203 21.9492 13.7852 21.9844 13.5742ZM21.6328 17.0898H21.5977C21.7383 16.8086 21.4219 16.5625 21.1758 16.7031C20.1562 17.1602 18.9961 17.3008 17.8359 17.125C16.6758 16.9492 15.6211 16.457 14.7773 15.7188C14.5664 15.543 14.2148 15.6836 14.25 15.9648C14.4609 17.6523 15.7617 19.0938 17.5195 19.375C19.2773 19.6211 20.9297 18.6367 21.6328 17.0898Z"/>
</svg>
