<svg width="28" height="27" viewBox="0 0 28 27" fill="#818496" xmlns="http://www.w3.org/2000/svg">
<path d="M18.0356 4.75C19.8989 4.75 21.4106 6.26172 21.4106 8.125V19.375C21.4106 21.2383 19.8989 22.75 18.0356 22.75H7.91064H6.78564C6.15283 22.75 5.66064 22.2578 5.66064 21.625C5.66064 21.0273 6.15283 20.5 6.78564 20.5V18.25C6.15283 18.25 5.66064 17.7578 5.66064 17.125V5.875C5.66064 5.27734 6.15283 4.75 6.78564 4.75H7.91064H18.0356ZM18.0356 18.25H9.03564V20.5H18.0356C18.6333 20.5 19.1606 20.0078 19.1606 19.375C19.1606 18.7773 18.6333 18.25 18.0356 18.25ZM10.5122 12.0625L11.0044 12.9062H10.02L10.5122 12.0625ZM10.02 11.2188L9.0708 12.9062C8.82471 13.293 9.10596 13.75 9.56299 13.75H11.4966L12.481 15.4375C12.6919 15.8242 13.2192 15.8242 13.4302 15.4375L14.4146 13.75H16.3481C16.8052 13.75 17.0513 13.293 16.8403 12.9062L15.8911 11.2188L16.8403 9.53125C17.0864 9.17969 16.8052 8.6875 16.3481 8.6875H14.4146L13.4302 7C13.2192 6.64844 12.6919 6.64844 12.481 7L11.4966 8.6875H9.56299C9.10596 8.6875 8.85986 9.17969 9.0708 9.53125L10.02 11.2188ZM11.0044 11.2188L11.9888 9.53125H13.9224L14.9067 11.2188L13.9224 12.9062H11.9888L11.0044 11.2188ZM11.0044 9.53125L10.5122 10.375L10.02 9.53125H11.0044ZM12.481 8.6875L12.9731 7.84375L13.4302 8.6875H12.481ZM14.9067 9.53125H15.8911L15.3989 10.375L14.9067 9.53125ZM15.3989 12.0625L15.8911 12.9062H14.9067L15.3989 12.0625ZM13.4302 13.75L12.9731 14.5938L12.481 13.75H13.4302Z"/>
</svg>
