<svg width="28" height="27" viewBox="0 0 28 27" fill="#818496" xmlns="http://www.w3.org/2000/svg">
<path d="M14.3125 8.125H17.9688C19.4453 8.125 20.7461 7.31641 21.4141 6.05078C21.5547 5.83984 21.9062 5.83984 21.9766 6.05078C22.4688 7.35156 22.75 8.75781 22.75 10.2695C22.75 15.9297 18.9883 20.5 14.3477 20.5H14.3125C11.4297 20.5 9.00391 18.5664 8.30078 15.8945C7.14062 16.9844 6.4375 18.5312 6.4375 20.2188V20.7812C6.4375 21.2734 6.05078 21.625 5.59375 21.625C5.10156 21.625 4.75 21.2734 4.75 20.7812V20.2188C4.75 17.582 6.08594 15.2617 8.125 13.9258C8.86328 13.3984 9.70703 13.0469 10.6211 12.8359C11.1836 12.6953 11.7461 12.625 12.3438 12.625H14.875H15.4375C15.7188 12.625 16 12.3789 16 12.0625C16 11.7812 15.7188 11.5 15.4375 11.5H12.3438C10.9023 11.5 9.56641 11.8516 8.40625 12.4492C9.17969 9.95312 11.5352 8.125 14.3125 8.125Z"/>
</svg>
