<svg width="14" height="14" viewBox="0 0 14 14" fill="none" xmlns="http://www.w3.org/2000/svg">
<path d="M6.16117 4.053L5.30717 3.199C5.81117 3.072 6.37117 3 6.98917 3C9.38317 3 10.8922 4.088 11.7882 5.183C12.2708 5.77516 12.6485 6.44549 12.9052 7.165C12.9278 7.22645 12.9478 7.28884 12.9652 7.352L12.9692 7.365L12.9702 7.369V7.372C13.0001 7.49869 12.9794 7.63204 12.9125 7.74372C12.8457 7.8554 12.7379 7.9366 12.6121 7.97007C12.4863 8.00353 12.3524 7.98663 12.2389 7.92294C12.1254 7.85925 12.0412 7.7538 12.0042 7.629L12.0032 7.628V7.625L11.9952 7.6C11.9882 7.576 11.9772 7.539 11.9602 7.491C11.7423 6.88348 11.4227 6.31742 11.0152 5.817C10.2732 4.912 9.03117 4 6.98717 4C6.71097 3.99971 6.43506 4.01742 6.16117 4.053Z" fill="#1E1E2B"/>
<path d="M7.82223 4.053L8.67623 3.199C8.17223 3.072 7.61223 3 6.99423 3C4.60023 3 3.09123 4.088 2.19523 5.183C1.71263 5.77516 1.33485 6.44549 1.07823 7.165C1.05558 7.22645 1.03556 7.28884 1.01823 7.352L1.01423 7.365L1.01323 7.369V7.372C0.983326 7.49869 1.004 7.63204 1.07087 7.74372C1.13773 7.8554 1.24551 7.9366 1.37131 7.97007C1.4971 8.00353 1.63098 7.98663 1.7445 7.92294C1.85802 7.85925 1.94223 7.7538 1.97923 7.629L1.98023 7.628V7.625L1.98823 7.6C1.99523 7.576 2.00623 7.539 2.02323 7.491C2.2411 6.88348 2.56065 6.31742 2.96823 5.817C3.71023 4.912 4.95223 4 6.99623 4C7.27242 3.99971 7.54834 4.01742 7.82223 4.053Z" fill="#1E1E2B"/>
<circle cx="7" cy="8.5" r="2.5" fill="#1E1E2B"/>
</svg>
