<svg width="15" height="15" viewBox="0 0 15 15" fill="none" xmlns="http://www.w3.org/2000/svg">
<path d="M9.42919 9.86513L13.4552 13.8921C13.5017 13.9386 13.5569 13.9755 13.6176 14.0007C13.6783 14.0258 13.7434 14.0388 13.8092 14.0388C13.8749 14.0388 13.94 14.0258 14.0008 14.0007C14.0615 13.9755 14.1167 13.9386 14.1632 13.8921C14.2097 13.8456 14.2466 13.7905 14.2717 13.7297C14.2969 13.669 14.3098 13.6039 14.3098 13.5381C14.3098 13.4724 14.2969 13.4073 14.2717 13.3465C14.2466 13.2858 14.2097 13.2306 14.1632 13.1841L1.16319 0.18413C1.1167 0.137642 1.06151 0.100765 1.00077 0.0756062C0.940036 0.0504471 0.874935 0.0374979 0.809192 0.0374979C0.743448 0.0374979 0.678348 0.0504471 0.617608 0.0756062C0.556869 0.100765 0.50168 0.137642 0.455192 0.18413C0.408704 0.230618 0.371827 0.285807 0.346668 0.346546C0.321509 0.407286 0.30856 0.472386 0.30856 0.53813C0.30856 0.603873 0.321509 0.668974 0.346668 0.729713C0.371827 0.790452 0.408704 0.845642 0.455192 0.89213L3.68519 4.12213C3.24557 4.43355 2.85 4.80289 2.50919 5.22013C2.02659 5.81229 1.64881 6.48262 1.39219 7.20213C1.37119 7.26313 1.34519 7.34713 1.34519 7.34713L1.32719 7.40913C1.32719 7.40913 1.25119 7.90613 1.68219 8.02013C1.81029 8.05399 1.94658 8.03562 2.06115 7.96906C2.17571 7.90249 2.25917 7.79318 2.29319 7.66513L2.29419 7.66213L2.30219 7.63713L2.33719 7.52813C2.55515 6.92065 2.87469 6.35461 3.28219 5.85413C3.60254 5.46039 3.98166 5.11838 4.40619 4.84013L5.98419 6.41813C5.66575 6.61772 5.39641 6.88653 5.1962 7.20457C4.99598 7.52261 4.87005 7.8817 4.82776 8.25513C4.78547 8.62855 4.82792 9.00671 4.95194 9.36147C5.07596 9.71623 5.27837 10.0385 5.54411 10.3042C5.80985 10.5699 6.13209 10.7724 6.48685 10.8964C6.84161 11.0204 7.21977 11.0629 7.59319 11.0206C7.96662 10.9783 8.32571 10.8523 8.64375 10.6521C8.96179 10.4519 9.23061 10.1826 9.43019 9.86413L9.42919 9.86513ZM5.62919 3.23713L6.48319 4.09113C6.75708 4.05555 7.033 4.03784 7.30919 4.03813C9.35319 4.03813 10.5952 4.95013 11.3372 5.85513C11.7448 6.35555 12.0643 6.92161 12.2822 7.52913C12.2992 7.57713 12.3102 7.61413 12.3172 7.63813L12.3252 7.66313V7.66613L12.3262 7.66713C12.3632 7.79193 12.4474 7.89738 12.5609 7.96107C12.6744 8.02476 12.8083 8.04166 12.9341 8.0082C13.0599 7.97473 13.1677 7.89353 13.2346 7.78185C13.3014 7.67017 13.3221 7.53681 13.2922 7.41013V7.40713L13.2912 7.40313L13.2872 7.39013C13.2699 7.32697 13.2498 7.26458 13.2272 7.20313C12.9706 6.48362 12.5928 5.81329 12.1102 5.22113C11.2142 4.12613 9.70519 3.03813 7.31119 3.03813C6.69319 3.03813 6.13319 3.11013 5.62919 3.23713Z" fill="#1E1E2B"/>
</svg>
