<svg width="26" height="26" viewBox="0 0 26 26" fill="none" xmlns="http://www.w3.org/2000/svg">
<g id="google">
<path id="Vector" d="M23.4033 13.7343C23.4033 12.8734 23.3339 12.2452 23.1836 11.5938H13.4115V15.4792H19.1475C19.0319 16.4448 18.4074 17.899 17.0196 18.8762L17.0002 19.0062L20.0899 21.4141L20.304 21.4356C22.27 19.6091 23.4033 16.9218 23.4033 13.7343Z" fill="#4285F4"/>
<path id="Vector_2" d="M13.4107 23.9715C16.2208 23.9715 18.58 23.0408 20.3032 21.4355L17.0188 18.8761C16.1399 19.4926 14.9603 19.9231 13.4107 19.9231C10.6583 19.9231 8.32226 18.0967 7.48952 15.5723L7.36746 15.5827L4.15469 18.0839L4.11267 18.2014C5.82422 21.6215 9.33987 23.9715 13.4107 23.9715Z" fill="#34A853"/>
<path id="Vector_3" d="M7.48642 15.5706C7.2667 14.9191 7.13953 14.2211 7.13953 13.4999C7.13953 12.7786 7.2667 12.0806 7.47486 11.4291L7.46904 11.2904L4.216 8.74902L4.10957 8.79995C3.40416 10.2192 2.99939 11.813 2.99939 13.4999C2.99939 15.1867 3.40416 16.7804 4.10957 18.1997L7.48642 15.5706Z" fill="#FBBC05"/>
<path id="Vector_4" d="M13.4107 7.07865C15.365 7.07865 16.6834 7.92788 17.4351 8.63756L20.3725 5.75247C18.5685 4.06564 16.2208 3.03027 13.4107 3.03027C9.33987 3.03027 5.82422 5.38019 4.11267 8.80036L7.47796 11.4295C8.32226 8.9051 10.6583 7.07865 13.4107 7.07865Z" fill="#EB4335"/>
</g>
</svg>
