<svg width="20" height="20" viewBox="0 0 20 20" fill="none" xmlns="http://www.w3.org/2000/svg">
<path d="M8.5 3.5C8.5 2.96875 8.78125 2.5 9.25 2.21875C9.6875 1.9375 10.2812 1.9375 10.75 2.21875C11.1875 2.5 11.5 2.96875 11.5 3.5C11.5 4.0625 11.1875 4.53125 10.75 4.8125C10.2812 5.09375 9.6875 5.09375 9.25 4.8125C8.78125 4.53125 8.5 4.0625 8.5 3.5ZM9.75 13V17C9.75 17.5625 9.28125 18 8.75 18C8.1875 18 7.75 17.5625 7.75 17V10.0312L6.84375 11.5312C6.5625 12 5.9375 12.1562 5.46875 11.875C5 11.5938 4.84375 10.9688 5.125 10.5L6.9375 7.46875C7.5 6.5625 8.46875 6 9.53125 6H10.4375C11.5 6 12.4688 6.5625 13.0312 7.46875L14.8438 10.5C15.125 10.9688 14.9688 11.5938 14.5 11.875C14.0312 12.1562 13.4062 12 13.125 11.5312L12.25 10.0312V17C12.25 17.5625 11.7812 18 11.25 18C10.6875 18 10.25 17.5625 10.25 17V13H9.75Z" fill="#718FF2"/>
</svg>
