<svg width="30" height="30" viewBox="0 0 30 30" fill="#F9F9FB" xmlns="http://www.w3.org/2000/svg">
<path d="M16.0781 26.4375C15.5156 27.1406 14.4375 27.1406 13.875 26.4375C11.4844 23.3906 6 16.125 6 12C6 7.03125 10.0312 3 15 3C19.9688 3 24 7.03125 24 12C24 16.125 18.5156 23.3906 16.0781 26.4375ZM15 9C13.9219 9 12.9375 9.60938 12.375 10.5C11.8594 11.4375 11.8594 12.6094 12.375 13.5C12.9375 14.4375 13.9219 15 15 15C16.0312 15 17.0156 14.4375 17.5781 13.5C18.0938 12.6094 18.0938 11.4375 17.5781 10.5C17.0156 9.60938 16.0312 9 15 9Z"/>
</svg>
