<svg width="25" height="26" viewBox="0 0 25 26" fill="none" xmlns="http://www.w3.org/2000/svg">
<path d="M8.90625 3.97656L10.4688 7.72656C10.7422 8.35156 10.5859 9.09375 10.0391 9.52344L8.125 11.125C9.41406 13.8594 11.6406 16.0859 14.375 17.375L15.9766 15.4609C16.4062 14.9141 17.1484 14.7578 17.7734 15.0312L21.5234 16.5938C22.2656 16.8672 22.6172 17.6875 22.4219 18.4297L21.4844 21.8672C21.2891 22.5312 20.7031 23 20 23C10.3125 23 2.5 15.1875 2.5 5.5C2.5 4.79688 2.96875 4.21094 3.63281 4.01562L7.07031 3.07812C7.8125 2.88281 8.63281 3.23438 8.90625 3.97656Z" fill="#718FF2"/>
</svg>
