<svg width="25" height="26" viewBox="0 0 25 26" fill="none" xmlns="http://www.w3.org/2000/svg">
<path d="M13.3984 22.5312C12.9297 23.1172 12.0312 23.1172 11.5625 22.5312C9.57031 19.9922 5 13.9375 5 10.5C5 6.35938 8.35938 3 12.5 3C16.6406 3 20 6.35938 20 10.5C20 13.9375 15.4297 19.9922 13.3984 22.5312ZM12.5 8C11.6016 8 10.7812 8.50781 10.3125 9.25C9.88281 10.0312 9.88281 11.0078 10.3125 11.75C10.7812 12.5312 11.6016 13 12.5 13C13.3594 13 14.1797 12.5312 14.6484 11.75C15.0781 11.0078 15.0781 10.0312 14.6484 9.25C14.1797 8.50781 13.3594 8 12.5 8Z" fill="#718FF2"/>
</svg>
