<svg width="25" height="26" viewBox="0 0 25 26" fill="none" xmlns="http://www.w3.org/2000/svg">
<path d="M22.6172 13.4688L18.2422 17.8438C16.0547 20.0703 12.4609 20.0703 10.2734 17.8438C8.32031 15.8906 8.04688 12.8438 9.64844 10.5781L9.6875 10.5391C10.1172 9.95312 10.8984 9.83594 11.4453 10.2266C11.9922 10.6172 12.1484 11.3984 11.7188 11.9844L11.6797 12.0234C10.7812 13.2734 10.9375 14.9922 12.0312 16.0859C13.2422 17.3359 15.2344 17.3359 16.4844 16.0859L20.8594 11.7109C22.1094 10.4609 22.1094 8.46875 20.8594 7.25781C19.7656 6.16406 18.0469 6.00781 16.7969 6.90625L16.7578 6.94531C16.1719 7.375 15.3906 7.21875 15 6.67188C14.6094 6.125 14.7266 5.34375 15.2734 4.91406L15.3516 4.875C17.6172 3.27344 20.6641 3.54688 22.6172 5.5C24.8438 7.6875 24.8438 11.2812 22.6172 13.4688ZM2.34375 12.5703L6.71875 8.15625C8.94531 5.96875 12.5 5.96875 14.7266 8.15625C16.6797 10.1094 16.9141 13.1953 15.3125 15.4609L15.2734 15.5C14.8828 16.0859 14.0625 16.2031 13.5156 15.8125C12.9688 15.4219 12.8125 14.6406 13.2422 14.0547L13.2812 14.0156C14.1797 12.7266 14.0234 11.0469 12.9297 9.95312C11.7188 8.70312 9.72656 8.70312 8.47656 9.95312L4.10156 14.3281C2.89062 15.5391 2.89062 17.5312 4.10156 18.7812C5.19531 19.875 6.91406 20.0312 8.16406 19.1328L8.20312 19.0938C8.78906 18.6641 9.57031 18.8203 9.96094 19.3672C10.3516 19.9141 10.2344 20.6953 9.6875 21.125L9.60938 21.1641C7.38281 22.7656 4.29688 22.4922 2.34375 20.5391C0.117188 18.3516 0.117188 14.7578 2.34375 12.5703Z" fill="#718FF2"/>
</svg>
