<svg width="13" height="12" viewBox="0 0 13 12" fill="none" xmlns="http://www.w3.org/2000/svg">
<path d="M11.7734 2.05859L8.08203 5.75L11.7734 9.47656C12.2305 9.89844 12.2305 10.6367 11.7734 11.0586C11.3516 11.5156 10.6133 11.5156 10.1914 11.0586L6.5 7.36719L2.77344 11.0586C2.35156 11.5156 1.61328 11.5156 1.19141 11.0586C0.734375 10.6367 0.734375 9.89844 1.19141 9.47656L4.88281 5.75L1.19141 2.05859C0.734375 1.63672 0.734375 0.898438 1.19141 0.476562C1.61328 0.0195312 2.35156 0.0195312 2.77344 0.476562L6.5 4.16797L10.1914 0.476562C10.6133 0.0195312 11.3516 0.0195312 11.7734 0.476562C12.2305 0.898438 12.2305 1.63672 11.7734 2.05859Z" fill="#718FF2"/>
</svg>
