<svg width="40" height="40" viewBox="0 0 40 40" fill="none" xmlns="http://www.w3.org/2000/svg">
<path d="M34 20C34 15 31.3125 10.4375 27 7.9375C22.625 5.375 17.3125 5.375 13 7.9375C8.625 10.4375 6 15 6 20C6 25.0625 8.625 29.625 13 32.125C17.3125 34.6875 22.625 34.6875 27 32.125C31.3125 29.625 34 25.0625 34 20ZM4 20C4 14.3125 7 9.0625 12 6.1875C16.9375 3.3125 23 3.3125 28 6.1875C32.9375 9.0625 36 14.3125 36 20C36 25.75 32.9375 31 28 33.875C23 36.75 16.9375 36.75 12 33.875C7 31 4 25.75 4 20ZM23.5 27.4375L24.4375 26.8125C25.375 26.25 26.5 26.1875 27.4375 26.625L28.4375 27.125C28.9375 27.375 29.125 28 28.875 28.5C28.625 29 28 29.1875 27.5 28.9375L26.5625 28.4375C26.25 28.3125 25.875 28.3125 25.5625 28.5L24.625 29.125C23.625 29.8125 22.3125 29.8125 21.3125 29.125L20.5 28.625C20.1875 28.375 19.75 28.375 19.4375 28.625L18.625 29.125C17.625 29.8125 16.3125 29.8125 15.3125 29.125L14.375 28.5C14.0625 28.3125 13.6875 28.3125 13.375 28.4375L12.4375 28.9375C11.9375 29.1875 11.3125 29 11.0625 28.5C10.8125 28 11 27.375 11.5 27.125L12.5 26.625C13.4375 26.1875 14.625 26.25 15.5 26.8125L16.4375 27.4375C16.75 27.6875 17.1875 27.6875 17.5 27.4375L18.3125 26.9375C19.3125 26.25 20.625 26.25 21.625 26.9375L22.4375 27.4375C22.75 27.6875 23.1875 27.6875 23.5625 27.4375H23.5ZM14.8125 11C14.875 11.4375 14.5625 11.75 14.125 11.8125C11.1875 11.875 9 14.625 9.25 17.0625C9.375 19.625 11.8125 21.5 14 21.25H14.0625C16.3125 21.125 17.9375 19 17.6875 17.25V17.1875C17.5625 15.3125 15.75 14 14.1875 14.25H14.125C12.5625 14.375 11.5 15.875 11.75 17V17.0625C11.875 18.25 13.0625 19 13.9375 18.8125H14C14.9375 18.6875 15.375 17.8125 15.25 17.3125H15.1875C15.1875 17 15 16.8125 14.8125 16.6875C14.75 16.6875 14.6875 16.625 14.625 16.625C14.75 16.75 14.8125 16.875 14.8125 17.0625C14.875 17.75 14.3125 18.0625 13.9375 18.0625C13.5625 18.125 13.125 17.9375 12.875 17.5625C12.5625 17.125 12.5625 16.5625 12.75 16.1875C12.9375 15.75 13.3125 15.375 13.875 15.1875C14.4375 15 15.0625 15.125 15.5625 15.375C16.0625 15.6875 16.5625 16.25 16.6875 16.9375C17.0625 18.375 15.9375 20.0625 14.25 20.3125C12.5 20.625 10.5 19.3125 10.25 17.25C9.9375 15.1875 11.625 12.9375 14 12.75C16.375 12.375 19 14.3125 19.1875 17.0625C19.5625 19.75 17.25 22.5625 14.1875 22.75C11.125 23.0625 7.9375 20.5625 7.75 17.1875C7.4375 13.8125 10.3125 10.4375 14.0625 10.25C14.5 10.25 14.8125 10.5625 14.875 11H14.8125ZM25.8125 22.25C28.75 22.1875 30.9375 19.4375 30.6875 17C30.5625 14.4375 28.125 12.5625 25.9375 12.8125H25.875C23.625 12.9375 22 15.0625 22.25 16.8125V16.875C22.375 18.75 24.1875 20.0625 25.75 19.8125H25.8125C27.375 19.6875 28.4375 18.1875 28.25 17.0625H28.1875V17C28.0625 15.8125 26.875 15.0625 26 15.25H25.9375C25 15.375 24.5625 16.25 24.6875 16.75H24.75C24.8125 17.0625 24.9375 17.25 25.125 17.375C25.1875 17.375 25.25 17.4375 25.3125 17.4375C25.1875 17.3125 25.125 17.1875 25.125 17C25.0625 16.3125 25.6875 16 26 16C26.375 15.9375 26.8125 16.125 27.0625 16.5C27.375 16.9375 27.375 17.5 27.1875 17.875C27 18.3125 26.625 18.6875 26.0625 18.875C25.5 19.0625 24.875 18.9375 24.375 18.6875C23.875 18.375 23.375 17.8125 23.25 17.125C22.875 15.6875 24 14 25.75 13.75C27.4375 13.4375 29.4375 14.75 29.6875 16.8125C30.0625 18.875 28.3125 21.125 25.9375 21.3125C23.5625 21.6875 20.9375 19.75 20.75 17C20.4375 14.3125 22.6875 11.5 25.8125 11.3125C28.8125 11 32 13.5 32.1875 16.875C32.5625 20.25 29.625 23.625 25.875 23.8125C25.4375 23.8125 25.125 23.5 25.125 23.0625C25.0625 22.625 25.375 22.3125 25.8125 22.3125V22.25Z" fill="#718FF2"/>
</svg>
