<svg width="15" height="16" viewBox="0 0 15 16" fill="none" xmlns="http://www.w3.org/2000/svg">
<path d="M9.07031 3.32031C9.98438 3.57812 10.5 4.51562 10.2422 5.40625L10.1016 5.875C10.0312 6.13281 9.9375 6.39062 9.82031 6.625H12C12.8203 6.625 13.5 7.30469 13.5 8.125C13.5 8.54688 13.3125 8.92188 13.0547 9.20312C13.1016 9.34375 13.125 9.48438 13.125 9.64844C13.125 10.1172 12.8906 10.5625 12.5156 10.8438C12.5391 10.9375 12.5625 11.0312 12.5625 11.1484C12.5625 11.6172 12.3281 12.0391 12 12.3203C11.9531 13.1172 11.2969 13.7734 10.5 13.7734H8.20312C7.6875 13.7734 7.17188 13.6094 6.75 13.3281L5.29688 12.3672C5.03906 12.1797 4.96875 11.8516 5.15625 11.5703C5.32031 11.3125 5.67188 11.2422 5.92969 11.4297L7.38281 12.3906C7.61719 12.5547 7.89844 12.6484 8.20312 12.6484H10.5C10.6875 12.6484 10.875 12.4609 10.875 12.2734C10.875 12.2266 10.8516 12.2031 10.8516 12.1562C10.7812 11.875 10.9219 11.5938 11.1797 11.4766C11.3203 11.4297 11.4375 11.2891 11.4375 11.1484C11.4375 11.0547 11.3906 10.9609 11.3438 10.9141C11.2266 10.75 11.2031 10.5391 11.2734 10.3516C11.3203 10.1641 11.4844 10.0469 11.6953 10C11.8594 9.97656 12 9.8125 12 9.625C12 9.53125 11.9531 9.46094 11.9062 9.39062C11.7656 9.25 11.7188 9.0625 11.7656 8.875C11.8125 8.6875 11.9531 8.54688 12.1172 8.47656C12.2578 8.42969 12.375 8.28906 12.375 8.125C12.375 7.9375 12.1875 7.75 12 7.75H8.85938C8.64844 7.75 8.46094 7.63281 8.36719 7.44531C8.27344 7.25781 8.27344 7.04688 8.39062 6.88281C8.67188 6.48438 8.88281 6.03906 9.02344 5.57031L9.16406 5.10156C9.23438 4.79688 9.07031 4.49219 8.76562 4.39844C8.46094 4.32812 8.15625 4.49219 8.0625 4.79688L7.94531 5.26562C7.80469 5.73438 7.57031 6.15625 7.24219 6.53125L6.02344 7.84375C5.8125 8.07812 5.46094 8.10156 5.22656 7.89062C5.01562 7.67969 4.99219 7.32812 5.20312 7.09375L6.39844 5.78125C6.60938 5.54688 6.77344 5.26562 6.86719 4.96094L6.98438 4.49219C7.24219 3.57812 8.17969 3.0625 9.07031 3.32031ZM2.25 7H3.75C4.14844 7 4.5 7.35156 4.5 7.75V13C4.5 13.4219 4.14844 13.75 3.75 13.75H2.25C1.82812 13.75 1.5 13.4219 1.5 13V7.75C1.5 7.35156 1.82812 7 2.25 7Z" fill="#717486"/>
</svg>
