<svg width="15" height="16" viewBox="0 0 15 16" fill="none" xmlns="http://www.w3.org/2000/svg">
<path d="M6.39844 3.625C6.32812 3.625 6.28125 3.67188 6.23438 3.71875L5.78906 4.375H9.1875L8.74219 3.71875C8.71875 3.67188 8.64844 3.625 8.57812 3.625H6.39844ZM10.5469 4.375H10.8516H12H12.1875C12.4922 4.375 12.75 4.63281 12.75 4.9375C12.75 5.26562 12.4922 5.5 12.1875 5.5H11.9062L11.3438 13.1172C11.2734 13.9141 10.6406 14.5 9.84375 14.5H5.13281C4.33594 14.5 3.70312 13.9141 3.63281 13.1172L3.07031 5.5H2.8125C2.48438 5.5 2.25 5.26562 2.25 4.9375C2.25 4.63281 2.48438 4.375 2.8125 4.375H3H4.125H4.42969L5.29688 3.08594C5.53125 2.73438 5.95312 2.5 6.39844 2.5H8.57812C9.02344 2.5 9.44531 2.73438 9.67969 3.08594L10.5469 4.375ZM10.7812 5.5H4.19531L4.75781 13.0469C4.78125 13.2344 4.94531 13.375 5.13281 13.375H9.84375C10.0312 13.375 10.1953 13.2344 10.2188 13.0469L10.7812 5.5Z" fill="#717486"/>
</svg>
