<svg width="28" height="27" viewBox="0 0 28 27" fill="none" xmlns="http://www.w3.org/2000/svg">
<path d="M21.5586 5.52344L22.2266 6.19141C23 6.96484 23 8.19531 22.2266 8.96875L21.1719 10.0234L17.7266 6.57812L18.7812 5.52344C19.5547 4.75 20.7852 4.75 21.5586 5.52344ZM11.0469 13.2578L16.918 7.38672L20.3633 10.832L14.4922 16.7031C14.2812 16.9141 14 17.0898 13.7188 17.1953L10.5898 18.2148C10.3086 18.3203 9.95703 18.25 9.74609 18.0039C9.5 17.793 9.42969 17.4414 9.53516 17.1602L10.5547 14.0312C10.6602 13.75 10.8359 13.4688 11.0469 13.2578ZM8.375 7H11.75C12.3477 7 12.875 7.52734 12.875 8.125C12.875 8.75781 12.3477 9.25 11.75 9.25H8.375C7.74219 9.25 7.25 9.77734 7.25 10.375V19.375C7.25 20.0078 7.74219 20.5 8.375 20.5H17.375C17.9727 20.5 18.5 20.0078 18.5 19.375V16C18.5 15.4023 18.9922 14.875 19.625 14.875C20.2227 14.875 20.75 15.4023 20.75 16V19.375C20.75 21.2383 19.2383 22.75 17.375 22.75H8.375C6.51172 22.75 5 21.2383 5 19.375V10.375C5 8.51172 6.51172 7 8.375 7Z" fill="#718FF2"/>
</svg>
