<svg width="15" height="16" viewBox="0 0 15 16" fill="none" xmlns="http://www.w3.org/2000/svg">
<path d="M11.8359 3.88281H11.8125C11.6016 3.67188 11.25 3.67188 11.0391 3.88281L10.3359 4.5625L11.4375 5.66406L12.1172 4.96094C12.3281 4.75 12.3281 4.39844 12.1172 4.16406L11.8359 3.88281ZM6.39844 8.52344C6.32812 8.57031 6.28125 8.66406 6.25781 8.75781L5.85938 10.1172L7.24219 9.74219C7.33594 9.71875 7.40625 9.67188 7.47656 9.60156L10.6406 6.4375L9.5625 5.35938L6.39844 8.52344ZM10.2422 3.08594C10.8984 2.42969 11.9531 2.42969 12.6094 3.08594L12.9141 3.39062C13.5703 4.04688 13.5703 5.10156 12.9141 5.75781L8.27344 10.3984C8.08594 10.5859 7.82812 10.7266 7.54688 10.8203L5.20312 11.4766C5.01562 11.5469 4.80469 11.5 4.66406 11.3359C4.5 11.1953 4.45312 10.9844 4.5 10.7969L5.17969 8.45312C5.25 8.17188 5.41406 7.91406 5.60156 7.72656L10.2422 3.08594ZM3.5625 4H6.1875C6.49219 4 6.75 4.25781 6.75 4.5625C6.75 4.89062 6.49219 5.125 6.1875 5.125H3.5625C3.02344 5.125 2.625 5.54688 2.625 6.0625V12.4375C2.625 12.9766 3.02344 13.375 3.5625 13.375H9.9375C10.4531 13.375 10.875 12.9766 10.875 12.4375V9.8125C10.875 9.50781 11.1094 9.25 11.4375 9.25C11.7422 9.25 12 9.50781 12 9.8125V12.4375C12 13.5859 11.0625 14.5 9.9375 14.5H3.5625C2.41406 14.5 1.5 13.5859 1.5 12.4375V6.0625C1.5 4.9375 2.41406 4 3.5625 4Z" fill="#717486"/>
</svg>
