<svg width="54" height="55" viewBox="0 0 54 55" fill="none" xmlns="http://www.w3.org/2000/svg">
<path d="M27 17.1719C27.2109 16.9609 27.4219 16.8203 27.6328 16.6094C28.8984 15.7656 30.9375 14.5 33.1875 14.5C34.5938 14.5 36.1406 15.2031 37.4766 15.9062C38.8828 16.6094 40.3594 17.5938 41.6953 18.6484C43.0312 19.7031 44.2969 20.8281 45.2812 21.9531C45.7734 22.4453 46.1953 23.0078 46.5469 23.5703C46.8281 24.1328 47.25 24.9062 47.25 25.75C47.25 26.4531 47.0391 27.0859 46.8281 27.7188C46.6172 28.3516 46.3359 29.0547 45.9141 29.8281C45.2109 31.375 44.0859 33.1328 42.6094 34.8203C39.6562 38.1953 35.1562 41.5 29.25 41.5H24.75C18.7734 41.5 14.2734 38.1953 11.3203 34.8203C9.84375 33.1328 8.78906 31.375 8.01562 29.8281C7.59375 29.0547 7.3125 28.3516 7.10156 27.7188C6.89062 27.1562 6.75 26.4531 6.75 25.75C6.75 24.9062 7.10156 24.1328 7.38281 23.5703C7.73438 23.0078 8.15625 22.4453 8.64844 21.9531C9.63281 20.8281 10.8984 19.7031 12.2344 18.6484C13.5703 17.5938 15.0469 16.6094 16.4531 15.9062C17.7891 15.2031 19.3359 14.5 20.8125 14.5C22.9922 14.5 25.0312 15.7656 26.2969 16.6094C26.5078 16.8203 26.7891 16.9609 27 17.1719ZM11.25 25.75C11.25 26.3125 16.875 32.5 27 32.5C37.125 32.5 42.75 26.3125 42.75 25.75C42.75 25.2578 39.4453 23.5703 32.9766 23.5C32.6953 23.5 32.4844 23.5703 32.2734 23.6406C31.3594 23.9219 28.7578 24.625 27 24.625C25.1719 24.625 22.6406 23.9219 21.6562 23.6406C21.4453 23.5703 21.2344 23.5 20.9531 23.5703C14.4844 23.5703 11.25 25.2578 11.25 25.75Z" fill="#A1A4B5"/>
</svg>
