<svg width="54" height="55" viewBox="0 0 54 55" fill="none" xmlns="http://www.w3.org/2000/svg">
<path d="M11.25 16.75C11.25 13.0234 14.2734 10 18 10H31.5C35.2266 10 38.25 13.0234 38.25 16.75V19H36C34.1016 19 32.4844 19.9141 31.5 21.25H21.375C19.8281 21.25 18.9141 20.8984 18.4219 20.6172C18.1406 20.4062 17.9297 20.2656 17.8594 20.1953C17.7891 20.125 17.7891 20.125 17.7891 20.0547C17.4375 19.5625 16.7344 19.4219 16.2422 19.7734C15.6797 20.125 15.5391 20.8281 15.8906 21.3203L16.875 20.6875C15.8906 21.3203 15.8906 21.3203 15.8906 21.3203V21.3906H15.9609C15.9609 21.4609 15.9609 21.4609 16.0312 21.5312C16.1016 21.6016 16.1719 21.6719 16.3125 21.8125C16.5234 22.0234 16.8047 22.2344 17.2266 22.5156C18.1406 23.0781 19.4766 23.5 21.375 23.5H30.4453C30.375 23.9219 30.375 24.2734 30.375 24.625C30.375 27.2969 32.1328 29.4766 34.5938 30.1094C35.1562 30.25 35.7891 29.8984 35.9297 29.2656C36.0703 28.7031 35.7188 28.0703 35.1562 27.9297C33.6797 27.5781 32.625 26.2422 32.625 24.625C32.625 22.7969 34.1016 21.25 36 21.25H38.25C40.7109 21.25 42.75 23.2891 42.75 25.75V27.5078C42.75 29.2656 41.9766 31.0234 40.7109 32.2891L37.2656 35.7344C36.4219 36.5781 36 37.7031 36 38.8984V41.5C36 44.0312 33.9609 46 31.5 46H18C15.4688 46 13.5 44.0312 13.5 41.5V35.3125C12.0938 34.0469 11.25 32.2891 11.25 30.25V16.75ZM21.9375 34.9609C21.4453 34.6094 20.7422 34.75 20.3906 35.3125C20.0391 35.8047 20.1797 36.5078 20.7422 36.8594L22.7109 38.125L20.7422 39.4609C20.1797 39.8125 20.0391 40.5156 20.3906 41.0078C20.7422 41.5703 21.4453 41.7109 21.9375 41.3594L24.75 39.5312L27.4922 41.3594C27.9844 41.7109 28.6875 41.5703 29.0391 41.0078C29.3906 40.5156 29.25 39.8125 28.6875 39.4609L26.7188 38.125L28.6875 36.8594C29.25 36.5078 29.3906 35.8047 29.0391 35.3125C28.6875 34.75 27.9844 34.6094 27.4922 34.9609L24.75 36.7891L21.9375 34.9609Z" fill="#A1A4B5"/>
</svg>
