<svg width="54" height="55" viewBox="0 0 54 55" fill="none" xmlns="http://www.w3.org/2000/svg">
<path d="M34.875 17.875C34.875 21.4609 32.4844 24.4844 29.25 25.4688V32.5H24.75V25.4688C21.4453 24.4844 19.125 21.4609 19.125 17.875C19.125 13.5859 22.6406 10 27 10C31.2891 10 34.875 13.5859 34.875 17.875ZM25.3125 16.75C26.2266 16.75 27 16.0469 27 15.0625C27 14.1484 26.2266 13.375 25.3125 13.375C24.3281 13.375 23.625 14.1484 23.625 15.0625C23.625 16.0469 24.3281 16.75 25.3125 16.75ZM15.75 34.75C15.75 33.5547 16.7344 32.5 18 32.5C19.1953 32.5 20.25 33.5547 20.25 34.75H38.25C40.7109 34.75 42.75 36.7891 42.75 39.25V41.5C42.75 44.0312 40.7109 46 38.25 46H15.75C13.2188 46 11.25 44.0312 11.25 41.5V39.25C11.25 36.7891 13.2188 34.75 15.75 34.75Z" fill="#A1A4B5"/>
</svg>
