<svg width="28" height="27" viewBox="0 0 28 27" fill="#818496" xmlns="http://www.w3.org/2000/svg">
<path d="M13.9644 22.75C10.73 22.75 7.77686 21.0625 6.15967 18.25C4.54248 15.4727 4.54248 12.0625 6.15967 9.25C7.77686 6.47266 10.73 4.75 13.9644 4.75C17.1636 4.75 20.1167 6.47266 21.7339 9.25C23.3511 12.0625 23.3511 15.4727 21.7339 18.25C20.1167 21.0625 17.1636 22.75 13.9644 22.75ZM8.33936 15.8242C9.00732 18.1797 11.2573 19.9375 13.9644 19.9375C16.6362 19.9375 18.8862 18.1797 19.5542 15.8242C19.6948 15.332 19.2729 14.875 18.7808 14.875H9.11279C8.62061 14.875 8.23389 15.332 8.33936 15.8242ZM9.64014 8.79297C9.35889 8.65234 9.04248 8.86328 9.04248 9.17969C9.04248 9.25 9.07764 9.35547 9.11279 9.42578L10.3784 10.9375L9.11279 12.4844C9.07764 12.5547 9.04248 12.625 9.04248 12.7305C9.04248 13.0469 9.35889 13.2578 9.64014 13.1172L12.8042 11.4297C13.1909 11.2188 13.1909 10.6914 12.8042 10.4805L9.64014 8.79297ZM18.8862 9.17969C18.8862 8.86328 18.5347 8.65234 18.2534 8.79297L15.0894 10.4805C14.7026 10.6914 14.7026 11.2188 15.0894 11.4297L18.2534 13.1172C18.5347 13.2578 18.8862 13.0469 18.8862 12.7305C18.8862 12.625 18.8511 12.5547 18.7808 12.4844L17.5151 10.9375L18.7808 9.42578C18.8511 9.35547 18.8862 9.25 18.8862 9.17969Z"/>
</svg>
