<svg width="28" height="27" viewBox="0 0 28 27" fill="#818496" xmlns="http://www.w3.org/2000/svg">
<path d="M18.6072 14.875L18.572 19.5508C18.6072 19.5508 18.6423 19.5508 18.6423 19.5859L20.3298 20.7109C20.7517 20.9922 20.9275 21.4844 20.7869 21.9766C20.6462 22.4336 20.2244 22.75 19.7322 22.75H3.98218C3.45483 22.75 3.03296 22.4336 2.89233 21.9766C2.75171 21.4844 2.92749 20.9922 3.34937 20.7109L5.03687 19.5859C5.03687 19.5508 5.07202 19.5508 5.10718 19.5508V12.625H7.35718V19.375H8.76343V12.625H11.0134V19.375H12.7009V12.625H14.1072C14.3533 12.9766 14.6345 13.2578 14.9509 13.5391V19.375H16.3572V14.418C17.0251 14.7344 17.7986 14.875 18.6072 14.875ZM3.98218 11.5C3.45483 11.5 2.9978 11.1836 2.89233 10.6914C2.75171 10.1992 2.96265 9.67188 3.41968 9.42578L5.10718 8.44141V8.40625L5.2478 8.37109L11.2947 4.92578C11.6462 4.71484 12.0681 4.71484 12.3845 4.92578L14.1072 5.875C13.4041 6.82422 12.9822 7.98438 12.9822 9.25C12.9822 10.0586 13.1228 10.832 13.4392 11.5H3.98218ZM18.6072 6.47266C17.5876 6.47266 16.6736 7 16.1462 7.87891C15.6541 8.72266 15.6541 9.8125 16.1462 10.6914C16.6736 11.5352 17.5876 12.0977 18.6072 12.0977C19.5916 12.0977 20.5056 11.5352 21.033 10.6914C21.5251 9.8125 21.5251 8.72266 21.033 7.87891C20.5056 7 19.5916 6.47266 18.6072 6.47266ZM18.6072 13.7852H18.572C16.1111 13.7852 14.072 11.7461 14.072 9.28516C14.072 6.78906 16.1111 4.78516 18.572 4.78516C21.0681 4.78516 23.072 6.78906 23.072 9.28516C23.072 10.1992 22.7908 11.0781 22.2986 11.8164L25.0759 14.5938C25.4275 14.9102 25.4275 15.4375 25.0759 15.7891C24.7595 16.1055 24.2322 16.1055 23.9158 15.7891L21.1033 12.9766C20.4001 13.4688 19.5212 13.7852 18.6072 13.7852Z"/>
</svg>
