<svg width="28" height="27" viewBox="0 0 28 27" fill="#818496" xmlns="http://www.w3.org/2000/svg">
<path d="M18.75 5.98047C18.6797 6.64844 18.9258 7.38672 19.4531 7.91406L21.4219 9.84766C21.7383 10.1992 22.1602 10.375 22.582 10.375C23.0039 11.4297 23.25 12.5547 23.25 13.75C23.25 15.0859 22.9688 16.3164 22.4414 17.4766C21.4922 16.9141 20.2617 17.0547 19.4531 17.8633C18.5391 18.7773 18.5039 20.2188 19.2773 21.2031C17.8359 22.1875 16.1133 22.75 14.25 22.75C12.0703 22.75 10.1016 22.0117 8.55469 20.7461L9.01172 20.2891C9.99609 19.3047 9.99609 17.7227 9.01172 16.7383C8.13281 15.8594 6.76172 15.7891 5.8125 16.4922C5.74219 16.4219 5.67188 16.3867 5.60156 16.3516C5.35547 15.543 5.25 14.6641 5.25 13.75C5.25 8.79297 9.25781 4.75 14.25 4.75C15.8672 4.75 17.4141 5.20703 18.75 5.98047ZM10.207 16.1406C9.96094 16.3516 9.96094 16.7031 10.1367 16.9492C10.9453 17.8633 12.2812 18.8125 14.25 18.8125C16.1836 18.8125 17.5195 17.8633 18.3281 16.9492C18.5039 16.7031 18.5039 16.3516 18.2578 16.1406C18.0117 15.9648 17.6602 15.9648 17.4492 16.2109C16.8516 16.9492 15.7617 17.6875 14.25 17.6875C12.7031 17.6875 11.6484 16.9492 11.0156 16.2109C10.8047 15.9648 10.4531 15.9648 10.207 16.1406ZM10.1719 12.9766C10.8047 12.168 12.0352 12.168 12.668 12.9766C12.8438 13.2227 13.1953 13.293 13.4414 13.082C13.6875 12.9062 13.7578 12.5547 13.5469 12.3086C12.4922 10.8672 10.3477 10.8672 9.29297 12.3086C9.08203 12.5547 9.15234 12.9062 9.39844 13.082C9.64453 13.293 9.99609 13.2227 10.1719 12.9766ZM18.293 12.9766C18.4688 13.2227 18.8203 13.293 19.0664 13.082C19.3125 12.9062 19.3828 12.5547 19.1719 12.3086C18.1172 10.8672 15.9727 10.8672 14.918 12.3086C14.707 12.5547 14.7773 12.9062 15.0234 13.082C15.2695 13.293 15.6211 13.2227 15.7969 12.9766C16.4297 12.168 17.6602 12.168 18.293 12.9766ZM23.1445 5.17188C23.6719 4.64453 24.5508 4.64453 25.0781 5.17188C25.6055 5.69922 25.6055 6.57812 25.0781 7.10547L23.1445 9.07422C22.8633 9.32031 22.4766 9.32031 22.1953 9.07422L20.2617 7.10547C19.7344 6.57812 19.7344 5.69922 20.2617 5.17188C20.7891 4.64453 21.668 4.64453 22.1953 5.17188L22.6875 5.66406L23.1445 5.17188ZM25.0781 18.6719C25.6055 19.1992 25.6055 20.0781 25.0781 20.6055L23.1445 22.5742C22.8633 22.8203 22.4766 22.8203 22.1953 22.5742L20.2617 20.6055C19.7344 20.0781 19.7344 19.1992 20.2617 18.6719C20.7891 18.1445 21.668 18.1445 22.1953 18.6719L22.6875 19.1641L23.1445 18.6719C23.6719 18.1445 24.5508 18.1445 25.0781 18.6719ZM6.26953 17.5469C6.79688 17.0195 7.67578 17.0195 8.20312 17.5469C8.73047 18.0742 8.73047 18.9531 8.20312 19.4805L6.26953 21.4492C5.98828 21.6953 5.60156 21.6953 5.32031 21.4492L3.38672 19.4805C2.85938 18.9531 2.85938 18.0742 3.38672 17.5469C3.91406 17.0195 4.79297 17.0195 5.32031 17.5469L5.8125 18.0391L6.26953 17.5469Z"/>
</svg>
