<svg width="54" height="55" viewBox="0 0 54 55" fill="none" xmlns="http://www.w3.org/2000/svg">
<path d="M34.875 10C36.0703 10 37.125 10.7031 37.7578 11.6875C38.3906 12.7422 38.3906 14.0781 37.7578 15.0625C37.125 16.1172 36.0703 16.75 34.875 16.75C33.6094 16.75 32.5547 16.1172 31.9219 15.0625C31.2891 14.0781 31.2891 12.7422 31.9219 11.6875C32.5547 10.7031 33.6094 10 34.875 10ZM27.2109 21.25C26.2266 21.25 25.2422 21.6719 24.5391 22.375L22.9219 23.9922C22.0781 24.9062 20.6016 24.9062 19.7578 23.9922C18.8438 23.1484 18.8438 21.6719 19.7578 20.8281L21.375 19.2109C22.9219 17.6641 25.0312 16.75 27.2109 16.75C27.9844 16.75 28.8281 16.8906 29.6016 17.1719L33.0469 18.2266C35.5781 19 37.6875 20.8984 38.6719 23.3594L39.1641 24.4141C39.5156 25.2578 40.2891 25.75 41.2031 25.75H42.75C43.9453 25.75 45 26.8047 45 28C45 29.2656 43.9453 30.25 42.75 30.25H41.2031C38.4609 30.25 36.0703 28.6328 35.0156 26.1016L34.6641 25.2578L32.4844 31.0234L36.4219 33.5547C37.6875 34.3281 38.3203 35.875 37.8984 37.3516L35.8594 44.3828C35.5078 45.5781 34.3125 46.2812 33.1172 45.9297C31.9219 45.5781 31.2188 44.3828 31.5703 43.1875L33.3281 36.9297L27.2812 33.1328C25.5234 32.0078 24.75 29.8281 25.3828 27.8594L27.5625 21.3203C27.4219 21.3203 27.3516 21.25 27.2109 21.25ZM23.4141 31.8672C23.9062 33.1328 24.8203 34.2578 26.0859 35.0312L26.7188 35.4531L25.9453 37.2812C25.3828 38.4766 24.1875 39.25 22.8516 39.25H18C16.7344 39.25 15.75 38.2656 15.75 37C15.75 35.8047 16.7344 34.75 18 34.75H22.1484L23.4141 31.8672ZM10.125 16.75H19.125C19.6875 16.75 20.25 17.2422 20.25 17.875C20.25 18.5078 19.6875 19 19.125 19H10.125C9.49219 19 9 18.5078 9 17.875C9 17.2422 9.49219 16.75 10.125 16.75ZM9 22.375C9 21.7422 9.49219 21.25 10.125 21.25H14.625C15.1875 21.25 15.75 21.7422 15.75 22.375C15.75 23.0078 15.1875 23.5 14.625 23.5H10.125C9.49219 23.5 9 23.0078 9 22.375ZM10.125 25.75H19.125C19.6875 25.75 20.25 26.2422 20.25 26.875C20.25 27.5078 19.6875 28 19.125 28H10.125C9.49219 28 9 27.5078 9 26.875C9 26.2422 9.49219 25.75 10.125 25.75Z" fill="#A1A4B5"/>
</svg>
