<svg width="54" height="55" viewBox="0 0 54 55" fill="none" xmlns="http://www.w3.org/2000/svg">
<path d="M27 10C28.5469 10 30.0234 10.9141 30.8672 12.25C31.6406 13.6562 31.6406 15.4141 30.8672 16.75C30.0234 18.1562 28.5469 19 27 19C25.3828 19 23.9062 18.1562 23.0625 16.75C22.2891 15.4141 22.2891 13.6562 23.0625 12.25C23.9062 10.9141 25.3828 10 27 10ZM25.3828 21.25H28.5469C31.5 21.25 33.8906 23.5 34.1719 26.4531L34.4531 29.8984C34.5938 32.0078 33.3281 33.8359 31.5 34.5391V42.625C31.5 44.5234 29.9531 46 28.125 46H25.875C23.9766 46 22.5 44.5234 22.5 42.625V34.5391C20.6016 33.8359 19.3359 32.0078 19.4766 29.8984L19.7578 26.4531C20.0391 23.5 22.5 21.25 25.3828 21.25ZM6.75 12.25C13.0078 12.25 18.6328 15.1328 22.3594 19.6328C19.6875 20.7578 17.7891 23.2188 17.5781 26.2422L17.2266 29.6875C17.0156 32.2891 18.2812 34.5391 20.25 35.875V41.5C17.9297 42.9062 15.2578 43.75 12.375 43.75H11.25C9.98438 43.75 9 42.7656 9 41.5C9 38.3359 9.98438 35.3125 11.7422 32.9219C7.3125 29.4062 4.5 23.9922 4.5 17.875V14.5C4.5 13.3047 5.48438 12.25 6.75 12.25ZM41.625 43.75C38.6719 43.75 36 42.9062 33.75 41.5V35.875C35.6484 34.5391 36.9141 32.2891 36.7031 29.6875L36.4219 26.2422C36.1406 23.2188 34.2422 20.7578 31.5703 19.6328C35.2969 15.1328 40.9219 12.25 47.25 12.25C48.4453 12.25 49.5 13.3047 49.5 14.5V17.875C49.5 23.9922 46.6172 29.4062 42.1875 32.9219C43.9453 35.3125 45 38.3359 45 41.5C45 42.7656 43.9453 43.75 42.75 43.75H41.625Z" fill="#A1A4B5"/>
</svg>
