<svg width="28" height="27" viewBox="0 0 28 27" fill="#818496" xmlns="http://www.w3.org/2000/svg">
<path d="M21.7053 4.99609C22.0217 4.67969 22.5491 4.67969 22.8655 4.99609L23.1467 5.27734C23.4631 5.59375 23.4631 6.12109 23.1467 6.4375L20.1584 9.8125C20.053 9.91797 20.0178 10.0586 20.0178 10.1992V10.9375C20.0178 11.2539 19.7366 11.5 19.4553 11.5H18.8928C18.717 11.5 18.5764 11.5703 18.4709 11.7109L8.90845 22.3633C8.69751 22.6094 8.3811 22.75 8.02954 22.75C7.74829 22.75 7.43188 22.6445 7.22095 22.4336L5.70923 20.9219C5.49829 20.7109 5.39282 20.3945 5.39282 20.1133C5.39282 19.7617 5.53345 19.4453 5.77954 19.2344L9.68188 15.7188C9.82251 15.6133 9.89282 15.4727 9.89282 15.2969V14.3477C9.89282 14.0312 10.1389 13.7852 10.4553 13.7852H11.6506C11.7913 13.7852 11.9319 13.7148 12.0374 13.6094L21.7053 4.99609ZM20.5803 14.875C20.6858 14.875 20.7913 14.9805 20.8264 15.0859L21.3538 16.9141L23.1819 17.4414C23.2874 17.4766 23.3928 17.582 23.3928 17.6875C23.3928 17.8281 23.2874 17.9336 23.1819 17.9688L21.3538 18.4961L20.8264 20.3242C20.7913 20.4297 20.6858 20.5 20.5803 20.5C20.4397 20.5 20.3342 20.4297 20.2991 20.3242L19.7717 18.4961L17.9436 17.9688C17.8381 17.9336 17.7678 17.8281 17.7678 17.6875C17.7678 17.582 17.8381 17.4766 17.9436 17.4414L19.7717 16.9141L20.2991 15.0859C20.3342 14.9805 20.4397 14.875 20.5803 14.875ZM8.45142 7.21094L8.97876 9.03906L10.8069 9.56641C10.9124 9.60156 11.0178 9.70703 11.0178 9.8125C11.0178 9.95312 10.9124 10.0586 10.8069 10.0938L8.97876 10.6211L8.45142 12.4492C8.41626 12.5547 8.31079 12.625 8.20532 12.625C8.0647 12.625 7.95923 12.5547 7.92407 12.4492L7.39673 10.6211L5.5686 10.0938C5.46313 10.0586 5.39282 9.95312 5.39282 9.8125C5.39282 9.70703 5.46313 9.60156 5.5686 9.56641L7.39673 9.03906L7.92407 7.21094C7.95923 7.10547 8.0647 7 8.20532 7C8.31079 7 8.41626 7.10547 8.45142 7.21094ZM12.7053 4.75C12.8108 4.75 12.9163 4.85547 12.9514 4.99609L13.1975 5.94531L14.1467 6.19141C14.2874 6.22656 14.3928 6.33203 14.3928 6.4375C14.3928 6.57812 14.2874 6.68359 14.1467 6.71875L13.1975 6.96484L12.9514 7.91406C12.9163 8.05469 12.8108 8.125 12.7053 8.125C12.5647 8.125 12.4592 8.05469 12.4241 7.91406L12.178 6.96484L11.2288 6.71875C11.0881 6.68359 11.0178 6.57812 11.0178 6.4375C11.0178 6.33203 11.0881 6.22656 11.2288 6.19141L12.178 5.94531L12.4241 4.99609C12.4592 4.85547 12.5647 4.75 12.7053 4.75Z"/>
</svg>
