<svg width="54" height="55" viewBox="0 0 54 55" fill="none" xmlns="http://www.w3.org/2000/svg">
<path d="M13.5 23.5V13.375C13.5 12.8125 13.9922 12.25 14.625 12.25H19.125C19.6875 12.25 20.25 12.8125 20.25 13.375V16.1875C20.25 16.5391 20.4609 16.75 20.8125 16.75H23.0625C23.3438 16.75 23.625 16.5391 23.625 16.1875V13.375C23.625 12.8125 24.1172 12.25 24.75 12.25H29.25C29.8125 12.25 30.375 12.8125 30.375 13.375V16.1875C30.375 16.5391 30.5859 16.75 30.9375 16.75H33.1875C33.4688 16.75 33.75 16.5391 33.75 16.1875V13.375C33.75 12.8125 34.2422 12.25 34.875 12.25H39.375C39.9375 12.25 40.5 12.8125 40.5 13.375V23.5C40.5 24.2734 40.1484 24.9062 39.5859 25.3281L36 28L37.125 38.125H16.875L18 28L14.3438 25.3281C13.7812 24.9062 13.5 24.2734 13.5 23.5ZM25.875 30.25H28.125C28.6875 30.25 29.25 29.7578 29.25 29.125V25.75C29.25 24.5547 28.1953 23.5 27 23.5C25.7344 23.5 24.75 24.5547 24.75 25.75V29.125C24.75 29.7578 25.2422 30.25 25.875 30.25ZM12.7969 43.3281L15.75 40.375H38.25L41.1328 43.3281C41.4141 43.6094 41.625 44.0312 41.625 44.4531C41.625 45.2969 40.8516 46 40.0078 46H13.9219C13.0781 46 12.375 45.2969 12.375 44.4531C12.375 44.0312 12.5156 43.6094 12.7969 43.3281Z" fill="#A1A4B5"/>
</svg>
