<svg width="28" height="27" viewBox="0 0 28 27" fill="#818496" xmlns="http://www.w3.org/2000/svg">
<path d="M8.33484 21.2031L7.91296 21.5195C7.8075 21.5898 7.66687 21.625 7.52625 21.625C7.20984 21.625 6.92859 21.3438 6.92859 21.0273V11.5C6.92859 7.77344 9.95203 4.75 13.6786 4.75C17.4052 4.75 20.4286 7.77344 20.4286 11.5V21.0273C20.4286 21.3438 20.1473 21.625 19.7958 21.625C19.6552 21.625 19.5145 21.5898 19.4091 21.5195L18.9872 21.2031C18.5302 20.8164 17.8622 20.8867 17.4403 21.3086L16.3856 22.5391C16.2802 22.6797 16.1044 22.75 15.9286 22.75C15.7177 22.75 15.577 22.6797 15.4364 22.5391L14.5223 21.4844C14.0653 20.957 13.2567 20.957 12.7997 21.4844L11.8856 22.5391C11.7802 22.6797 11.6044 22.75 11.4286 22.75C11.2177 22.75 11.077 22.6797 10.9364 22.5391L9.88171 21.3086C9.45984 20.8867 8.79187 20.8164 8.33484 21.2031ZM12.5536 11.5C12.5536 10.9023 12.0262 10.375 11.4286 10.375C10.7958 10.375 10.3036 10.9023 10.3036 11.5C10.3036 12.1328 10.7958 12.625 11.4286 12.625C12.0262 12.625 12.5536 12.1328 12.5536 11.5ZM15.9286 12.625C16.5262 12.625 17.0536 12.1328 17.0536 11.5C17.0536 10.9023 16.5262 10.375 15.9286 10.375C15.2958 10.375 14.8036 10.9023 14.8036 11.5C14.8036 12.1328 15.2958 12.625 15.9286 12.625Z"/>
</svg>
