<svg width="54" height="55" viewBox="0 0 54 55" fill="none" xmlns="http://www.w3.org/2000/svg">
<path d="M11.8125 28C11.8125 26.5938 12.5156 25.3281 13.7812 24.625C14.9766 23.9219 16.4531 23.9219 17.7188 24.625C18.9141 25.3281 19.6875 26.5938 19.6875 28C19.6875 29.4766 18.9141 30.7422 17.7188 31.4453C16.4531 32.1484 14.9766 32.1484 13.7812 31.4453C12.5156 30.7422 11.8125 29.4766 11.8125 28ZM23.0625 28C23.0625 26.5938 23.7656 25.3281 25.0312 24.625C26.2266 23.9219 27.7031 23.9219 28.9688 24.625C30.1641 25.3281 30.9375 26.5938 30.9375 28C30.9375 29.4766 30.1641 30.7422 28.9688 31.4453C27.7031 32.1484 26.2266 32.1484 25.0312 31.4453C23.7656 30.7422 23.0625 29.4766 23.0625 28ZM38.25 24.0625C39.6562 24.0625 40.9219 24.8359 41.625 26.0312C42.3281 27.2969 42.3281 28.7734 41.625 29.9688C40.9219 31.2344 39.6562 31.9375 38.25 31.9375C36.7734 31.9375 35.5078 31.2344 34.8047 29.9688C34.1016 28.7734 34.1016 27.2969 34.8047 26.0312C35.5078 24.8359 36.7734 24.0625 38.25 24.0625Z" fill="#A1A4B5"/>
</svg>
