<svg width="54" height="55" viewBox="0 0 54 55" fill="none" xmlns="http://www.w3.org/2000/svg">
<path d="M47.25 16.75C47.25 17.1719 47.1797 17.5234 47.1094 17.875C48.5156 18.8594 49.5 20.5469 49.5 22.375C49.5 25.5391 46.9688 28 43.875 28H42.75V43.75C42.75 45.0156 41.6953 46 40.5 46C39.2344 46 38.25 45.0156 38.25 43.75V28H37.125C33.9609 28 31.5 25.5391 31.5 22.375C31.5 20.5469 32.4141 18.8594 33.8203 17.875C33.75 17.5234 33.75 17.1719 33.75 16.75C33.75 13.0234 36.7734 10 40.5 10C44.2266 10 47.25 13.0234 47.25 16.75ZM6.75 25.75C6.75 24.5547 7.73438 23.5 9 23.5H27C28.1953 23.5 29.25 24.5547 29.25 25.75V30.25C29.25 31.5156 28.1953 32.5 27 32.5H9C7.73438 32.5 6.75 31.5156 6.75 30.25V25.75ZM6.75 34.75H29.25C30.4453 34.75 31.5 35.8047 31.5 37C31.5 38.2656 30.4453 39.25 29.25 39.25V43.75C29.25 45.0156 28.1953 46 27 46C25.7344 46 24.75 45.0156 24.75 43.75V39.25H11.25V43.75C11.25 45.0156 10.1953 46 9 46C7.73438 46 6.75 45.0156 6.75 43.75V39.25C5.48438 39.25 4.5 38.2656 4.5 37C4.5 35.8047 5.48438 34.75 6.75 34.75Z" fill="#A1A4B5"/>
</svg>
