<svg width="54" height="55" viewBox="0 0 54 55" fill="none" xmlns="http://www.w3.org/2000/svg">
<path d="M15.75 12.25H38.25C40.7109 12.25 42.75 14.2891 42.75 16.75V39.25C42.75 41.7812 40.7109 43.75 38.25 43.75H15.75C13.2188 43.75 11.25 41.7812 11.25 39.25V16.75C11.25 14.2891 13.2188 12.25 15.75 12.25ZM20.8828 22.7969V22.8672C20.6016 23.7109 21.0234 24.6953 21.9375 25.0469C22.7812 25.3281 23.7656 24.9062 24.0469 23.9922L24.1172 23.9219C24.1875 23.7109 24.3984 23.5703 24.6094 23.5703H28.6875C29.3203 23.5703 29.8125 23.9922 29.8125 24.625C29.8125 24.9766 29.6016 25.3281 29.25 25.5391L26.1562 27.2969C25.5938 27.5781 25.3125 28.1406 25.3125 28.7734V29.6875C25.3125 30.6719 26.0156 31.375 27 31.375C27.9141 31.375 28.6172 30.6719 28.6875 29.7578L30.9375 28.4219C32.2734 27.6484 33.1875 26.1719 33.1875 24.625C33.1875 22.1641 31.1484 20.125 28.6875 20.125H24.6094C22.9219 20.125 21.4453 21.1797 20.8828 22.7969ZM24.75 35.875C24.75 37.1406 25.7344 38.125 27 38.125C28.1953 38.125 29.25 37.1406 29.25 35.875C29.25 34.6797 28.1953 33.625 27 33.625C25.7344 33.625 24.75 34.6797 24.75 35.875ZM14.625 17.3125C14.625 18.2969 15.3281 19 16.3125 19C17.2266 19 18 18.2969 18 17.3125C18 16.3984 17.2266 15.625 16.3125 15.625C15.3281 15.625 14.625 16.3984 14.625 17.3125ZM37.6875 15.625C36.7031 15.625 36 16.3984 36 17.3125C36 18.2969 36.7031 19 37.6875 19C38.6016 19 39.375 18.2969 39.375 17.3125C39.375 16.3984 38.6016 15.625 37.6875 15.625ZM14.625 38.6875C14.625 39.6719 15.3281 40.375 16.3125 40.375C17.2266 40.375 18 39.6719 18 38.6875C18 37.7734 17.2266 37 16.3125 37C15.3281 37 14.625 37.7734 14.625 38.6875ZM37.6875 37C36.7031 37 36 37.7734 36 38.6875C36 39.6719 36.7031 40.375 37.6875 40.375C38.6016 40.375 39.375 39.6719 39.375 38.6875C39.375 37.7734 38.6016 37 37.6875 37Z" fill="#A1A4B5"/>
</svg>
