<svg width="54" height="55" viewBox="0 0 54 55" fill="none" xmlns="http://www.w3.org/2000/svg">
<path d="M12.3047 31.1641C10.1953 29.1953 9 26.3828 9 23.4297V23.0781C9 18.1562 12.5156 13.9375 17.3672 13.1641C20.6016 12.6016 23.8359 13.6562 26.1562 15.9062L27 16.75L27.8438 15.9062C30.0938 13.6562 33.3984 12.6016 36.5625 13.1641C41.4141 13.9375 45 18.1562 45 23.0781V23.4297C45 26.3828 43.7344 29.1953 41.625 31.1641L28.8984 43.0469C28.4062 43.5391 27.7031 43.75 27 43.75C26.2266 43.75 25.5234 43.5391 25.0312 43.0469L12.3047 31.1641Z" fill="#A1A4B5"/>
</svg>
