<svg width="54" height="55" viewBox="0 0 54 55" fill="none" xmlns="http://www.w3.org/2000/svg">
<path d="M16.0312 38.9688V38.8984C16.1719 39.0391 17.2266 39.8125 20.5312 38.6875C21.3047 38.4766 22.0781 38.125 22.8516 37.7734C21.8672 36.9297 20.8828 36.0156 19.8984 35.1016C18.9844 34.1172 18.0703 33.1328 17.2266 32.1484C16.875 32.9219 16.5234 33.6953 16.3125 34.4688C15.1875 37.7734 15.9609 38.8281 16.0312 38.9688ZM19.7578 28C20.7422 29.3359 21.8672 30.6016 23.1328 31.8672C24.3984 33.1328 25.6641 34.2578 27 35.2422C28.2656 34.2578 29.5312 33.1328 30.7969 31.8672C32.1328 30.6016 33.1875 29.3359 34.1719 28C33.1875 26.7344 32.1328 25.4688 30.7969 24.2031C29.5312 22.8672 28.2656 21.8125 27 20.8281C25.6641 21.8125 24.3984 22.8672 23.1328 24.2031C21.8672 25.4688 20.7422 26.7344 19.7578 28ZM22.8516 18.2969C22.0781 17.9453 21.3047 17.5938 20.6016 17.3828C17.2266 16.2578 16.1719 17.0312 16.1016 17.1016C15.9609 17.2422 15.1875 18.2969 16.3125 21.6016C16.5234 22.375 16.875 23.1484 17.2266 23.9219C18.0703 22.9375 18.9844 21.9531 19.8984 20.9688C20.8828 20.0547 21.8672 19.1406 22.8516 18.2969ZM27 15.4141C32.7656 11.9688 38.3203 11.1953 41.0625 13.9375C43.8047 16.6797 43.0312 22.2344 39.5859 28C43.0312 33.8359 43.8047 39.3906 41.0625 42.1328C38.3203 44.875 32.7656 44.1016 27 40.6562C21.1641 44.1016 15.6094 44.875 12.8672 42.1328C10.125 39.3906 10.8984 33.8359 14.3438 28C10.8984 22.2344 10.125 16.6797 12.8672 13.9375C15.6094 11.1953 21.1641 11.9688 27 15.4141ZM31.0781 18.2969C32.0625 19.1406 33.0469 20.0547 34.0312 20.9688C34.9453 21.9531 35.8594 22.9375 36.7031 23.9219C37.0547 23.1484 37.4062 22.375 37.6172 21.6016C38.7422 18.2969 37.9688 17.2422 37.8984 17.1016C37.7578 17.0312 36.7031 16.2578 33.3984 17.3828C32.625 17.5938 31.8516 17.9453 31.0781 18.2969ZM36.7031 32.1484C35.8594 33.1328 34.9453 34.1172 34.0312 35.1016C33.0469 36.0156 32.0625 36.9297 31.0781 37.7734C31.8516 38.125 32.625 38.4766 33.3984 38.6875C36.7031 39.8125 37.7578 39.0391 37.8984 38.9688C37.9688 38.8281 38.7422 37.7734 37.6172 34.4688C37.4062 33.6953 37.0547 32.9219 36.7031 32.1484ZM29.25 28C29.25 29.2656 28.1953 30.25 27 30.25C25.7344 30.25 24.75 29.2656 24.75 28C24.75 26.8047 25.7344 25.75 27 25.75C28.1953 25.75 29.25 26.8047 29.25 28Z" fill="#A1A4B5"/>
</svg>
