<svg width="54" height="55" viewBox="0 0 54 55" fill="none" xmlns="http://www.w3.org/2000/svg">
<path d="M28.6172 13.0938L29.3906 12.25C29.7422 11.8281 30.2344 11.6875 30.7266 11.6875C31.1484 11.6875 31.5703 11.8281 31.9219 12.1797C33.1875 13.3047 34.4531 14.9219 35.4375 16.6797C36.4219 18.4375 37.125 20.4062 37.125 22.3047C37.125 28 32.5547 32.5 27 32.5C21.3047 32.5 16.875 28 16.875 22.3047C16.875 19.9141 17.8594 17.5938 19.1953 15.625C20.4609 13.6562 22.1484 11.8281 23.625 10.4922C24.0469 10.2109 24.4688 10 24.9609 10C25.8047 10.0703 26.4375 10.7734 27 11.4062C27.1406 11.5469 27.2812 11.6875 27.4219 11.8281L28.6172 13.0938ZM31.1484 25.3984C31.1484 23.0781 28.7578 20.6875 27.6328 19.7031C27.2812 19.4219 26.7891 19.4219 26.5078 19.7031C25.3125 20.6875 22.9922 23.0781 22.9922 25.3984C22.9922 27.6484 24.8203 29.4766 27.0703 29.4766C29.3203 29.4766 31.1484 27.6484 31.1484 25.3984ZM11.9531 30.3906L27 35.7344L41.9766 30.3906C43.1016 29.9688 44.4375 30.6016 44.8594 31.7969C45.2812 32.9219 44.6484 34.2578 43.4531 34.6797L33.6797 38.125L43.4531 41.6406C44.6484 42.0625 45.2812 43.3984 44.8594 44.5234C44.4375 45.7188 43.1016 46.3516 41.9766 45.9297L27 40.5156L11.9531 45.9297C10.8281 46.3516 9.49219 45.7188 9.07031 44.5234C8.64844 43.3984 9.28125 42.0625 10.4766 41.6406L20.25 38.125L10.4766 34.6797C9.28125 34.2578 8.71875 32.9219 9.07031 31.7969C9.49219 30.6016 10.8281 29.9688 11.9531 30.3906Z" fill="#A1A4B5"/>
</svg>
