<svg width="54" height="55" viewBox="0 0 54 55" fill="none" xmlns="http://www.w3.org/2000/svg">
<path d="M44.7891 30.3203H44.8594C43.3828 30.1797 41.9062 30.6016 40.7812 31.5156C36.7031 34.8906 34.5938 39.8125 33.8906 44.6641C31.7812 45.5781 29.3906 46 27 46C24.5391 46 22.2188 45.5781 20.0391 44.6641C19.3359 39.8125 17.2266 34.8906 13.1484 31.5156C12.0234 30.6016 10.5469 30.1797 9.14062 30.3203C9 29.5469 9 28.7734 9 28C9 18.0859 17.0156 10 27 10C36.9141 10 45 18.0859 45 28C45 28.7734 44.9297 29.5469 44.7891 30.3203ZM27 32.5C25.1016 32.5 23.625 34.0469 23.625 35.875V38.125C23.625 40.0234 25.1016 41.5 27 41.5C28.8281 41.5 30.375 40.0234 30.375 38.125V35.875C30.375 34.0469 28.8281 32.5 27 32.5ZM23.6953 27.0859C25.2422 24.5547 25.0312 21.6016 23.0625 20.5469C21.1641 19.4922 18.3516 20.7578 16.7344 23.3594C15.1875 25.8906 15.4688 28.8438 17.3672 29.8984C19.2656 30.9531 22.0781 29.6875 23.6953 27.0859ZM36.5625 29.8984C38.5312 28.8438 38.7422 25.8906 37.1953 23.3594C35.5781 20.7578 32.7656 19.4922 30.8672 20.5469C28.9688 21.6016 28.6875 24.5547 30.2344 27.0859C31.8516 29.6875 34.6641 30.9531 36.5625 29.8984ZM11.7422 33.2734C15.5391 36.3672 17.5078 41.2188 18 46H10.2656C10.2656 42.4844 9.07031 40.0234 7.24219 37.2109C6.32812 35.8047 6.67969 33.9062 8.08594 32.9922C9.28125 32.2891 10.7578 32.4297 11.7422 33.2734ZM45.8438 32.9922C47.25 33.9062 47.6719 35.8047 46.7578 37.2109C44.8594 40.0234 43.6641 42.4844 43.6641 46H36C36.4922 41.2188 38.3906 36.3672 42.1875 33.2734C43.1719 32.4297 44.7188 32.2891 45.8438 32.9922Z" fill="#A1A4B5"/>
</svg>
