<svg width="23" height="24" viewBox="0 0 23 24" fill="none" xmlns="http://www.w3.org/2000/svg">
<path d="M11.25 21.25C8.01562 21.25 5.0625 19.5625 3.44531 16.75C1.82812 13.9727 1.82812 10.5625 3.44531 7.75C5.0625 4.97266 8.01562 3.25 11.25 3.25C14.4492 3.25 17.4023 4.97266 19.0195 7.75C20.6367 10.5625 20.6367 13.9727 19.0195 16.75C17.4023 19.5625 14.4492 21.25 11.25 21.25ZM9.84375 15.0625H9V16.75H9.84375H12.6562H13.5V15.0625H12.6562H12.375V11.9688V11.125H11.5312H9.84375H9V12.8125H9.84375H10.6875V15.0625H9.84375ZM12.375 10V7.75H10.125V10H12.375Z" fill="#F9F9FB"/>
</svg>
