<svg width="19" height="22" viewBox="0 0 19 22" fill="none" xmlns="http://www.w3.org/2000/svg">
<path fill-rule="evenodd" clip-rule="evenodd" d="M17.05 16.65C17.4226 16.3706 17.725 16.0082 17.9333 15.5916C18.1416 15.1751 18.25 14.7157 18.25 14.25V3.25C18.25 2.45435 17.9339 1.69129 17.3713 1.12868C16.8087 0.566071 16.0456 0.25 15.25 0.25H3.25C2.45435 0.25 1.69129 0.566071 1.12868 1.12868C0.566071 1.69129 0.25 2.45435 0.25 3.25V14.25C0.25 14.7157 0.358435 15.1751 0.566718 15.5916C0.775002 16.0082 1.07741 16.3706 1.45 16.65L7.45 21.15C7.96929 21.5395 8.60089 21.75 9.25 21.75C9.89911 21.75 10.5307 21.5395 11.05 21.15L17.05 16.65Z" fill="black"/>
</svg>
