<svg width="20" height="21" viewBox="0 0 20 21" fill="none" xmlns="http://www.w3.org/2000/svg">
<path d="M10.875 3.0625L12.9062 7.21875L17.375 7.875C17.75 7.9375 18.0625 8.1875 18.1875 8.5625C18.3125 8.90625 18.2188 9.3125 17.9375 9.5625L14.6875 12.7812L15.4688 17.3438C15.5312 17.7188 15.375 18.0938 15.0625 18.3125C14.75 18.5625 14.3438 18.5625 14 18.4062L10 16.25L5.96875 18.4062C5.65625 18.5625 5.25 18.5625 4.9375 18.3125C4.625 18.0938 4.46875 17.7188 4.53125 17.3438L5.28125 12.7812L2.03125 9.5625C1.78125 9.3125 1.6875 8.90625 1.78125 8.5625C1.90625 8.1875 2.21875 7.9375 2.59375 7.875L7.09375 7.21875L9.09375 3.0625C9.25 2.71875 9.59375 2.5 10 2.5C10.375 2.5 10.7188 2.71875 10.875 3.0625Z" fill="#718FF2"/>
</svg>
