<svg width="30" height="31" viewBox="0 0 30 31" fill="none" xmlns="http://www.w3.org/2000/svg">
<path d="M8.25 24.5L6 26V12.5C6 7.53125 10.0312 3.5 15 3.5C19.9688 3.5 24 7.53125 24 12.5V26L21.75 24.5L18.375 27.5L15 24.5L11.625 27.5L8.25 24.5ZM13.5 12.5C13.5 11.7031 12.7969 11 12 11C11.1562 11 10.5 11.7031 10.5 12.5C10.5 13.3438 11.1562 14 12 14C12.7969 14 13.5 13.3438 13.5 12.5ZM18 14C18.7969 14 19.5 13.3438 19.5 12.5C19.5 11.7031 18.7969 11 18 11C17.1562 11 16.5 11.7031 16.5 12.5C16.5 13.3438 17.1562 14 18 14Z" fill="#6680DF"/>
</svg>
