<svg width="20" height="20" viewBox="0 0 20 20" fill="none" xmlns="http://www.w3.org/2000/svg">
<path d="M14.8125 9.21875L14.0938 9.9375L7.875 16.1562C7.5625 16.5 7.15625 16.7188 6.71875 16.875L2.9375 17.9688C2.6875 18.0312 2.40625 17.9688 2.21875 17.7812C2 17.5938 1.9375 17.3125 2.03125 17.0312L3.125 13.2812C3.25 12.8438 3.5 12.4375 3.8125 12.0938L10.0312 5.875L10.75 5.1875L11.0938 4.8125L12.1562 5.875L14.0938 7.8125L15.1562 8.875L14.8125 9.21875ZM7 14.5H6C5.71875 14.5 5.5 14.2812 5.5 14V13L4.78125 13.2812C4.6875 13.4062 4.59375 13.5312 4.5625 13.6875L3.84375 16.125L6.28125 15.4062C6.4375 15.375 6.5625 15.3125 6.6875 15.2188L7 14.5ZM13.3125 2.59375C14.0938 1.8125 15.375 1.8125 16.1562 2.59375L17.375 3.84375C18.1562 4.625 18.1562 5.875 17.375 6.65625L16.9375 7.125L16.2188 7.8125L15.875 8.15625L14.8125 7.125L12.875 5.15625L11.8125 4.125L12.1562 3.75L12.875 3.0625L13.3125 2.59375ZM11.8438 7.84375C12.0312 7.65625 12.0312 7.34375 11.8438 7.15625C11.6562 6.9375 11.3125 6.9375 11.125 7.15625L6.625 11.6562C6.4375 11.8438 6.4375 12.1562 6.625 12.3438C6.8125 12.5312 7.15625 12.5312 7.34375 12.3438L11.8438 7.84375Z" fill="currentColor"/>
</svg>
