<svg width="30" height="31" viewBox="0 0 30 31" fill="none" xmlns="http://www.w3.org/2000/svg">
<path d="M15 3.5C19.2656 3.5 23.2031 5.79688 25.3594 9.5C27.5156 13.25 27.5156 17.7969 25.3594 21.5C23.2031 25.25 19.2656 27.5 15 27.5C10.6875 27.5 6.75 25.25 4.59375 21.5C2.4375 17.7969 2.4375 13.25 4.59375 9.5C6.75 5.79688 10.6875 3.5 15 3.5ZM13.875 9.125V15.5V16.1094L14.3438 16.4375L18.8438 19.4375L19.7812 20.0938L21.0469 18.2188L20.1094 17.5625L16.125 14.9375V9.125V8H13.875V9.125Z" fill="#6680DF"/>
</svg>
