<svg width="30" height="30" viewBox="0 0 30 30" fill="none" xmlns="http://www.w3.org/2000/svg">
<path d="M16.3125 3.84375L19.3594 10.0781L26.0625 11.0625C26.625 11.1562 27.0938 11.5312 27.2812 12.0938C27.4688 12.6094 27.3281 13.2188 26.9062 13.5938L22.0312 18.4219L23.2031 25.2656C23.2969 25.8281 23.0625 26.3906 22.5938 26.7188C22.125 27.0938 21.5156 27.0938 21 26.8594L15 23.625L8.95312 26.8594C8.48438 27.0938 7.875 27.0938 7.40625 26.7188C6.9375 26.3906 6.70312 25.8281 6.79688 25.2656L7.92188 18.4219L3.04688 13.5938C2.67188 13.2188 2.53125 12.6094 2.67188 12.0938C2.85938 11.5312 3.32812 11.1562 3.89062 11.0625L10.6406 10.0781L13.6406 3.84375C13.875 3.32812 14.3906 3 15 3C15.5625 3 16.0781 3.32812 16.3125 3.84375Z" fill="url(#paint0_linear_5391_10761)"/>
<defs>
<linearGradient id="paint0_linear_5391_10761" x1="3" y1="4.2439" x2="30.4163" y2="9.63873" gradientUnits="userSpaceOnUse">
<stop stop-color="#9FABF7"/>
<stop offset="1" stop-color="#85BFB3"/>
</linearGradient>
</defs>
</svg>
