<svg width="30" height="31" viewBox="0 0 30 31" fill="none" xmlns="http://www.w3.org/2000/svg">
<path d="M7.5 8C6.65625 8 5.95312 7.57812 5.53125 6.875C5.10938 6.21875 5.10938 5.32812 5.53125 4.625C5.95312 3.96875 6.65625 3.5 7.5 3.5C8.29688 3.5 9 3.96875 9.42188 4.625C9.84375 5.32812 9.84375 6.21875 9.42188 6.875C9 7.57812 8.29688 8 7.5 8ZM5.0625 9.5H9.89062H10.6875L11.1562 10.2031L14.9531 16.2031L12.4219 17.8438L10.875 15.3594V26V27.5H7.875V26V20H7.125V26V27.5H4.125V26L4.07812 15.3594L2.53125 17.8438L0 16.2031L3.84375 10.2031L4.26562 9.5H5.0625ZM22.5 8C21.6562 8 20.9531 7.57812 20.5312 6.875C20.1094 6.21875 20.1094 5.32812 20.5312 4.625C20.9531 3.96875 21.6562 3.5 22.5 3.5C23.2969 3.5 24 3.96875 24.4219 4.625C24.8438 5.32812 24.8438 6.21875 24.4219 6.875C24 7.57812 23.2969 8 22.5 8ZM20.0625 9.5H24.8906H25.6875L26.1562 10.2031L29.9531 16.2031L27.4219 17.8438L25.4531 14.75L27.75 21.5H25.875V26V27.5H22.875V26V21.5H22.125V26V27.5H19.125V26V21.5H17.25L19.5 14.75L17.5312 17.8438L15 16.2031L18.8438 10.2031L19.2656 9.5H20.0625Z" fill="#6680DF"/>
</svg>
