<svg width="21" height="20" viewBox="0 0 21 20" fill="none" xmlns="http://www.w3.org/2000/svg">
<path d="M12.5 2H17.5C18.0312 2 18.5 2.46875 18.5 3V8C18.5 8.5625 18.0312 9 17.5 9C16.9375 9 16.5 8.5625 16.5 8V5.4375L10.1875 11.7188C9.8125 12.125 9.15625 12.125 8.78125 11.7188C8.375 11.3438 8.375 10.6875 8.78125 10.3125L15.0625 4H12.5C11.9375 4 11.5 3.5625 11.5 3C11.5 2.46875 11.9375 2 12.5 2ZM5 3H8.5C9.03125 3 9.5 3.46875 9.5 4C9.5 4.5625 9.03125 5 8.5 5H5C4.71875 5 4.5 5.25 4.5 5.5V15.5C4.5 15.7812 4.71875 16 5 16H15C15.25 16 15.5 15.7812 15.5 15.5V12C15.5 11.4688 15.9375 11 16.5 11C17.0312 11 17.5 11.4688 17.5 12V15.5C17.5 16.9062 16.375 18 15 18H5C3.59375 18 2.5 16.9062 2.5 15.5V5.5C2.5 4.125 3.59375 3 5 3Z" fill="#8DA3FF"/>
</svg>
