<svg width="31" height="31" viewBox="0 0 31 31" fill="none" xmlns="http://www.w3.org/2000/svg">
<path d="M3.625 7.625C3.625 6.6875 4.09375 5.84375 4.9375 5.375C5.73438 4.90625 6.71875 4.90625 7.5625 5.375C8.35938 5.84375 8.875 6.6875 8.875 7.625C8.875 8.60938 8.35938 9.45312 7.5625 9.92188C6.71875 10.3906 5.73438 10.3906 4.9375 9.92188C4.09375 9.45312 3.625 8.60938 3.625 7.625ZM3.25 15.0312C2.78125 15.5469 2.5 16.25 2.5 17C2.5 17.7969 2.78125 18.5 3.25 19.0156V15.0312ZM10 12.7344C8.59375 13.9531 7.75 15.7812 7.75 17.75C7.75 19.3906 8.3125 20.8438 9.25 22.0156V23C9.25 23.8438 8.54688 24.5 7.75 24.5H4.75C3.90625 24.5 3.25 23.8438 3.25 23V21.7812C1.46875 20.9375 0.25 19.1094 0.25 17C0.25 14.1406 2.59375 11.75 5.5 11.75H7C8.125 11.75 9.15625 12.125 10 12.7344ZM21.25 23V22.0156C22.1875 20.8438 22.75 19.3906 22.75 17.75C22.75 15.7812 21.8594 13.9531 20.4531 12.7344C21.2969 12.125 22.375 11.75 23.5 11.75H25C27.8594 11.75 30.25 14.1406 30.25 17C30.25 19.1094 28.9844 20.9375 27.25 21.7812V23C27.25 23.8438 26.5469 24.5 25.75 24.5H22.75C21.9062 24.5 21.25 23.8438 21.25 23ZM21.625 7.625C21.625 6.6875 22.0938 5.84375 22.9375 5.375C23.7344 4.90625 24.7188 4.90625 25.5625 5.375C26.3594 5.84375 26.875 6.6875 26.875 7.625C26.875 8.60938 26.3594 9.45312 25.5625 9.92188C24.7188 10.3906 23.7344 10.3906 22.9375 9.92188C22.0938 9.45312 21.625 8.60938 21.625 7.625ZM27.25 15.0312V19.0156C27.7188 18.5 28 17.7969 28 17.0469C28 16.25 27.7188 15.5469 27.25 15.0312ZM15.25 5C16.2812 5 17.2656 5.60938 17.8281 6.5C18.3438 7.4375 18.3438 8.60938 17.8281 9.5C17.2656 10.4375 16.2812 11 15.25 11C14.1719 11 13.1875 10.4375 12.625 9.5C12.1094 8.60938 12.1094 7.4375 12.625 6.5C13.1875 5.60938 14.1719 5 15.25 5ZM11.5 17.75C11.5 18.5469 11.7812 19.2031 12.25 19.7656V15.7812C11.7812 16.2969 11.5 17 11.5 17.75ZM18.25 15.7812V19.7656C18.7188 19.25 19 18.5469 19 17.7969C19 17 18.7188 16.2969 18.25 15.7812ZM21.25 17.75C21.25 19.8594 19.9844 21.6875 18.25 22.5312V24.5C18.25 25.3438 17.5469 26 16.75 26H13.75C12.9062 26 12.25 25.3438 12.25 24.5V22.5312C10.4688 21.6875 9.25 19.8594 9.25 17.75C9.25 14.8906 11.5938 12.5 14.5 12.5H16C18.8594 12.5 21.25 14.8906 21.25 17.75Z" fill="url(#paint0_linear_5391_10790)"/>
<defs>
<linearGradient id="paint0_linear_5391_10790" x1="3.25" y1="4.7439" x2="30.6663" y2="10.1387" gradientUnits="userSpaceOnUse">
<stop stop-color="#9FABF7"/>
<stop offset="1" stop-color="#85BFB3"/>
</linearGradient>
</defs>
</svg>
