<svg width="31" height="31" viewBox="0 0 31 31" fill="none" xmlns="http://www.w3.org/2000/svg">
<path d="M19.5 21.5H12C11.5312 20.0469 10.5938 18.7344 9.65625 17.4688C9.42188 17.1406 9.1875 16.8125 8.95312 16.4844C8.01562 15.125 7.5 13.5312 7.5 11.75C7.5 7.20312 11.1562 3.5 15.75 3.5C20.2969 3.5 24 7.20312 24 11.7969C24 13.5312 23.4375 15.125 22.5 16.4844C22.2656 16.8125 22.0312 17.1406 21.7969 17.4688C20.8594 18.7344 19.9219 20.0469 19.5 21.5ZM15.75 27.5C13.6406 27.5 12 25.8594 12 23.75V23H19.5V23.75C19.5 25.8594 17.8125 27.5 15.75 27.5ZM15.75 6.5C15.0938 6.5 14.625 7.01562 14.625 7.625V12.875C14.625 13.5312 15.0938 14 15.75 14C16.3594 14 16.875 13.5312 16.875 12.875V7.625C16.875 7.01562 16.3594 6.5 15.75 6.5ZM14.25 17C14.25 17.8438 14.9062 18.5 15.75 18.5C16.5469 18.5 17.25 17.8438 17.25 17C17.25 16.2031 16.5469 15.5 15.75 15.5C14.9062 15.5 14.25 16.2031 14.25 17Z" fill="url(#paint0_linear_5391_10800)"/>
<defs>
<linearGradient id="paint0_linear_5391_10800" x1="3.75" y1="4.7439" x2="31.1663" y2="10.1387" gradientUnits="userSpaceOnUse">
<stop stop-color="#9FABF7"/>
<stop offset="1" stop-color="#85BFB3"/>
</linearGradient>
</defs>
</svg>
