<svg width="30" height="31" viewBox="0 0 30 31" fill="none" xmlns="http://www.w3.org/2000/svg">
<path d="M6.75 8.75C6.75 5.89062 9.09375 3.5 12 3.5H12.75C13.125 3.5 13.5 3.875 13.5 4.25V5C13.5 7.85938 11.25 10.1562 8.48438 10.25C7.35938 11.7969 6.75 13.625 6.75 15.5C6.75 20.0938 10.4062 23.75 15 23.75H15.5156C17.5781 23.75 19.5469 24.2656 21.375 25.1562L21.8438 25.3906C22.4062 25.6719 22.6406 26.3281 22.3594 26.8906C22.0781 27.4531 21.4219 27.6875 20.8594 27.4062L20.3906 27.1719C18.8906 26.4219 17.2031 26 15.5156 26H15H14.4375C12.75 26 11.0625 26.4219 9.5625 27.1719L9.09375 27.4062C8.53125 27.6875 7.875 27.4531 7.59375 26.8906C7.3125 26.3281 7.54688 25.6719 8.10938 25.3906L8.57812 25.1562C8.95312 24.9688 9.32812 24.7812 9.75 24.6406C9.46875 24.5 9.23438 24.3125 9 24.1719C6.1875 25.4844 2.8125 24.4531 1.21875 21.7344L0.84375 21.0781C0.65625 20.7031 0.796875 20.2344 1.125 20.0469C1.78125 19.6719 2.48438 19.4375 3.1875 19.2969C1.26562 18.3125 0 16.2969 0 14V13.25C0 12.875 0.328125 12.5 0.75 12.5C1.45312 12.5 2.20312 12.6406 2.85938 12.9219C1.6875 11.0938 1.59375 8.70312 2.71875 6.73438L3.09375 6.07812C3.32812 5.70312 3.79688 5.60938 4.125 5.79688C5.39062 6.5 6.23438 7.57812 6.75 8.79688V8.75ZM21.5156 10.25C18.7031 10.1562 16.5 7.85938 16.5 5V4.25C16.5 3.875 16.8281 3.5 17.25 3.5H18C20.8594 3.5 23.25 5.89062 23.25 8.75V8.79688C23.7188 7.57812 24.6094 6.5 25.8281 5.79688C26.2031 5.60938 26.625 5.70312 26.8594 6.07812L27.2344 6.73438C28.3594 8.70312 28.2656 11.0938 27.0938 12.9219C27.7969 12.6406 28.5 12.5469 29.25 12.5469C29.625 12.5469 30 12.875 30 13.2969V14.0469C30 16.3438 28.6875 18.3125 26.8125 19.3438C27.4688 19.4375 28.1719 19.6719 28.8281 20.0469C29.2031 20.2812 29.2969 20.7031 29.1094 21.0781L28.7344 21.7344C27.6094 23.7031 25.5 24.7812 23.3906 24.7344C23.1562 24.4531 22.875 24.2188 22.5469 24.0781L22.0781 23.8438C21.9375 23.75 21.7969 23.7031 21.6562 23.6094C21.1875 23.4219 20.6719 23.1875 20.1562 23.0469C19.8281 22.9062 19.4531 22.8125 19.0312 22.7188C21.5625 21.2656 23.25 18.5938 23.25 15.5C23.25 13.625 22.5938 11.7969 21.5156 10.25Z" fill="url(#paint0_linear_5391_10785)"/>
<defs>
<linearGradient id="paint0_linear_5391_10785" x1="3" y1="4.7439" x2="30.4163" y2="10.1387" gradientUnits="userSpaceOnUse">
<stop stop-color="#9FABF7"/>
<stop offset="1" stop-color="#85BFB3"/>
</linearGradient>
</defs>
</svg>
