<svg width="30" height="31" viewBox="0 0 30 31" fill="none" xmlns="http://www.w3.org/2000/svg">
<path d="M12.75 3.5H15H17.25C18.0469 3.5 18.75 4.20312 18.75 5C18.75 5.84375 18.0469 6.5 17.25 6.5H16.5V8.14062C18.2344 8.42188 19.8281 9.125 21.1406 10.2031L22.1719 9.21875C22.7344 8.60938 23.7188 8.60938 24.2812 9.21875C24.8906 9.78125 24.8906 10.7656 24.2812 11.3281L23.1562 12.4531C24.1406 14 24.75 15.8281 24.75 17.75C24.75 23.1406 20.3438 27.5 15 27.5C9.60938 27.5 5.25 23.1406 5.25 17.75C5.25 12.875 8.8125 8.84375 13.5 8.14062V6.5H12.75C11.9062 6.5 11.25 5.84375 11.25 5C11.25 4.20312 11.9062 3.5 12.75 3.5ZM16.125 12.5C16.125 11.8906 15.6094 11.375 15 11.375C14.3438 11.375 13.875 11.8906 13.875 12.5V18.5C13.875 19.1562 14.3438 19.625 15 19.625C15.6094 19.625 16.125 19.1562 16.125 18.5V12.5Z" fill="url(#paint0_linear_5391_10805)"/>
<defs>
<linearGradient id="paint0_linear_5391_10805" x1="3" y1="4.7439" x2="30.4163" y2="10.1387" gradientUnits="userSpaceOnUse">
<stop stop-color="#9FABF7"/>
<stop offset="1" stop-color="#85BFB3"/>
</linearGradient>
</defs>
</svg>
