<svg width="31" height="31" viewBox="0 0 31 31" fill="none" xmlns="http://www.w3.org/2000/svg">
<path d="M10.25 3.5H20.75C21.9688 3.5 23 4.53125 22.9531 5.79688C22.9062 6.03125 22.9062 6.26562 22.9062 6.5H27.875C28.4844 6.5 29 7.01562 29 7.625C29 11.9844 27.4062 14.9844 25.2969 17.0469C23.2344 19.0625 20.7031 20.0938 18.8281 20.6094C17.7031 20.8906 16.9531 21.8281 16.9531 22.7656C16.9531 23.7031 17.75 24.5 18.7344 24.5H19.9531C20.7969 24.5 21.4531 25.2031 21.4531 26C21.4531 26.8438 20.7969 27.5 19.9531 27.5H10.9531C10.1562 27.5 9.45312 26.8438 9.45312 26C9.45312 25.2031 10.1562 24.5 10.9531 24.5H12.2188C13.1562 24.5 13.9531 23.7031 13.9531 22.7656C13.9531 21.8281 13.25 20.8906 12.125 20.6094C10.25 20.0938 7.71875 19.0625 5.65625 17.0469C3.54688 14.9844 2 11.9844 2 7.625C2 7.01562 2.46875 6.5 3.125 6.5H8.04688C8.04688 6.26562 8.04688 6.03125 8 5.79688C7.95312 4.53125 8.98438 3.5 10.25 3.5ZM8.23438 8.75H4.25C4.48438 11.8906 5.70312 14 7.20312 15.4531C8.28125 16.4844 9.5 17.1875 10.6719 17.7031C9.59375 15.8281 8.65625 13.0156 8.23438 8.75ZM20.2812 17.7031C21.4531 17.1875 22.6719 16.4844 23.75 15.4531C25.25 14 26.4688 11.8906 26.7031 8.75H22.7188C22.2969 13.0156 21.3594 15.8281 20.2812 17.7031ZM15.8281 7.57812C15.6875 7.29688 15.2656 7.29688 15.125 7.57812L14.2344 9.40625C14.1875 9.5 14.0938 9.59375 13.9531 9.59375L11.9375 9.875C11.6562 9.92188 11.5156 10.2969 11.75 10.5312L13.2031 11.9375C13.2969 12.0312 13.3438 12.1719 13.2969 12.2656L12.9688 14.2812C12.9219 14.6094 13.25 14.8438 13.4844 14.6562L15.3125 13.7188C15.4062 13.6719 15.5469 13.6719 15.6406 13.7188L17.4688 14.7031C17.75 14.8438 18.0312 14.6094 17.9844 14.2812L17.6562 12.2656C17.6562 12.1719 17.6562 12.0312 17.75 11.9375L19.2031 10.5312C19.4375 10.3438 19.2969 9.92188 19.0156 9.92188L17 9.59375C16.8594 9.59375 16.7656 9.5 16.7188 9.40625L15.8281 7.57812Z" fill="url(#paint0_linear_5391_10795)"/>
<defs>
<linearGradient id="paint0_linear_5391_10795" x1="3.5" y1="4.7439" x2="30.9163" y2="10.1387" gradientUnits="userSpaceOnUse">
<stop stop-color="#9FABF7"/>
<stop offset="1" stop-color="#85BFB3"/>
</linearGradient>
</defs>
</svg>
