<svg width="20" height="20" viewBox="0 0 20 20" fill="none" xmlns="http://www.w3.org/2000/svg">
<path d="M17 6C17 7.65625 15.6562 9 14 9C13.0938 9 12.2812 8.625 11.7188 7.96875L8.90625 9.375C8.96875 9.59375 9 9.8125 9 10C9 10.2188 8.96875 10.4375 8.90625 10.6562L11.7188 12.0312C12.2812 11.4062 13.0938 11 14 11C15.6562 11 17 12.3438 17 14C17 15.6562 15.6562 17 14 17C12.3438 17 11 15.6562 11 14C11 13.8125 11 13.5938 11.0625 13.375L8.25 11.9688C7.6875 12.625 6.875 13 6 13C4.34375 13 3 11.6562 3 10C3 8.34375 4.34375 7 6 7C6.875 7 7.6875 7.40625 8.25 8.03125L11.0625 6.65625C11 6.4375 11 6.21875 11 6C11 4.34375 12.3438 3 14 3C15.6562 3 17 4.34375 17 6ZM6 11.5C6.53125 11.5 7 11.2188 7.28125 10.75C7.5625 10.3125 7.5625 9.71875 7.28125 9.25C7 8.8125 6.53125 8.5 6 8.5C5.4375 8.5 4.96875 8.8125 4.6875 9.25C4.40625 9.71875 4.40625 10.3125 4.6875 10.75C4.96875 11.2188 5.4375 11.5 6 11.5ZM15.5 6C15.5 5.46875 15.1875 5 14.75 4.71875C14.2812 4.4375 13.6875 4.4375 13.25 4.71875C12.7812 5 12.5 5.46875 12.5 6C12.5 6.5625 12.7812 7.03125 13.25 7.3125C13.6875 7.59375 14.2812 7.59375 14.75 7.3125C15.1875 7.03125 15.5 6.5625 15.5 6ZM14 15.5C14.5312 15.5 15 15.2188 15.2812 14.75C15.5625 14.3125 15.5625 13.7188 15.2812 13.25C15 12.8125 14.5312 12.5 14 12.5C13.4375 12.5 12.9688 12.8125 12.6875 13.25C12.4062 13.7188 12.4062 14.3125 12.6875 14.75C12.9688 15.2188 13.4375 15.5 14 15.5Z" fill="#8DA3FF"/>
</svg>
