<svg width="16" height="16" viewBox="0 0 16 16" fill="none" xmlns="http://www.w3.org/2000/svg">
<path d="M10.0208 7.3125C10.4271 7.6875 10.4271 8.34375 10.0208 8.71875L4.02083 14.7188C3.64583 15.125 2.98958 15.125 2.61458 14.7188C2.20833 14.3438 2.20833 13.6875 2.61458 13.3125L7.89583 8L2.61458 2.71875C2.20833 2.34375 2.20833 1.6875 2.61458 1.3125C2.98958 0.90625 3.64583 0.90625 4.02083 1.3125L10.0208 7.3125Z" fill="#5B6ACC"/>
<path d="M15.0208 7.3125C15.4271 7.6875 15.4271 8.34375 15.0208 8.71875L9.02083 14.7188C8.64583 15.125 7.98958 15.125 7.61458 14.7188C7.20833 14.3438 7.20833 13.6875 7.61458 13.3125L12.8958 8L7.61458 2.71875C7.20833 2.34375 7.20833 1.6875 7.61458 1.3125C7.98958 0.90625 8.64583 0.90625 9.02083 1.3125L15.0208 7.3125Z" fill="#5B6ACC"/>
</svg>
