<svg viewBox="0 0 16 16" fill="none" xmlns="http://www.w3.org/2000/svg">
<path d="M5.97917 7.3125C5.57292 7.6875 5.57292 8.34375 5.97917 8.71875L11.9792 14.7188C12.3542 15.125 13.0104 15.125 13.3854 14.7188C13.7917 14.3438 13.7917 13.6875 13.3854 13.3125L8.10417 8L13.3854 2.71875C13.7917 2.34375 13.7917 1.6875 13.3854 1.3125C13.0104 0.90625 12.3542 0.90625 11.9792 1.3125L5.97917 7.3125Z" fill="#5B6ACC"/>
<path d="M0.979167 7.3125C0.572917 7.6875 0.572917 8.34375 0.979167 8.71875L6.97917 14.7188C7.35417 15.125 8.01042 15.125 8.38542 14.7188C8.79167 14.3438 8.79167 13.6875 8.38542 13.3125L3.10417 8L8.38542 2.71875C8.79167 2.34375 8.79167 1.6875 8.38542 1.3125C8.01042 0.90625 7.35417 0.90625 6.97917 1.3125L0.979167 7.3125Z" fill="#5B6ACC"/>
</svg>
