<svg width="28" height="27" viewBox="0 0 28 27" fill="#818496" xmlns="http://www.w3.org/2000/svg">
<path d="M13.2578 4.96094C13.3984 4.85547 13.5391 4.75 13.75 4.75C13.9258 4.75 14.1016 4.85547 14.207 4.96094L19.4453 10.7266C19.5508 10.8672 19.6562 11.0781 19.6562 11.2539C19.6562 11.7109 19.2695 12.0625 18.8125 12.0625H17.9688L20.5352 14.6641C20.6758 14.8047 20.7812 15.0156 20.7812 15.2266C20.7812 15.6484 20.3945 16 19.9727 16H18.8125L21.4141 19.1641C21.5547 19.3047 21.625 19.4805 21.625 19.6914C21.625 20.1484 21.2383 20.5 20.7812 20.5H14.875V21.625C14.875 22.2578 14.3477 22.75 13.75 22.75C13.1172 22.75 12.625 22.2578 12.625 21.625V20.5H6.68359C6.22656 20.5 5.875 20.1484 5.875 19.6914C5.875 19.4805 5.91016 19.3047 6.05078 19.1641L8.6875 16H7.49219C7.07031 16 6.71875 15.6484 6.71875 15.2266C6.71875 15.0156 6.78906 14.8047 6.92969 14.6641L9.53125 12.0625H8.65234C8.19531 12.0625 7.84375 11.7109 7.84375 11.2539C7.84375 11.0781 7.91406 10.8672 8.05469 10.7266L13.2578 4.96094Z"/>
</svg>
