<svg width="28" height="27" viewBox="0 0 28 27" fill="#818496" xmlns="http://www.w3.org/2000/svg">
<path d="M14.875 14.6641V18.6367C15.9648 17.0547 17.8281 16 19.9375 16H21.6953C22.2578 16 22.75 16.4922 22.75 17.0547C22.75 20.2188 20.1836 22.75 17.0195 22.75H14.875H13.75H12.625H10.4453C7.28125 22.75 4.75 20.2188 4.75 17.0547C4.75 16.4922 5.20703 16 5.76953 16H7.5625C9.63672 16 11.5 17.0547 12.625 18.6367V14.6641C12.2734 14.8047 11.8867 14.875 11.5 14.875C9.91797 14.875 8.6875 13.6445 8.6875 12.0625C8.6875 11.1484 9.10938 10.3398 9.8125 9.8125C9.10938 9.32031 8.6875 8.51172 8.6875 7.5625C8.6875 6.01562 9.91797 4.75 11.5 4.75C12.4141 4.75 13.2227 5.20703 13.75 5.875C14.2422 5.20703 15.0508 4.75 16 4.75C17.5469 4.75 18.8125 6.01562 18.8125 7.5625C18.8125 8.51172 18.3555 9.32031 17.6875 9.8125C18.3555 10.3398 18.8125 11.1484 18.8125 12.0625C18.8125 13.6445 17.5469 14.875 16 14.875C15.5781 14.875 15.1914 14.8047 14.875 14.6641ZM12.0625 9.8125C12.0625 10.4453 12.3789 10.9727 12.9062 11.2891C13.3984 11.6055 14.0664 11.6055 14.5938 11.2891C15.0859 10.9727 15.4375 10.4453 15.4375 9.8125C15.4375 9.21484 15.0859 8.6875 14.5938 8.37109C14.0664 8.05469 13.3984 8.05469 12.9062 8.37109C12.3789 8.6875 12.0625 9.21484 12.0625 9.8125Z"/>
</svg>
