<svg width="28" height="27" viewBox="0 0 28 27" fill="#818496" xmlns="http://www.w3.org/2000/svg">
<path d="M22.75 5.875C22.75 9.88281 19.7617 13.1875 15.8945 13.6797C15.6484 11.8164 14.8398 10.1289 13.6094 8.79297C14.9453 6.40234 17.5469 4.75 20.5 4.75H21.625C22.2227 4.75 22.75 5.27734 22.75 5.875ZM4.75 8.125C4.75 7.52734 5.24219 7 5.875 7H7C11.3242 7 14.875 10.5508 14.875 14.875V16V21.625C14.875 22.2578 14.3477 22.75 13.75 22.75C13.1172 22.75 12.625 22.2578 12.625 21.625V16C8.26562 16 4.75 12.4844 4.75 8.125Z"/>
</svg>
