<svg width="15" height="16" viewBox="0 0 15 16" fill="none" xmlns="http://www.w3.org/2000/svg">
<path d="M7.57031 3.97656C7.40625 4.02344 7.26562 4.07031 7.125 4.09375V5.24219C7.92188 5.42969 8.48438 5.75781 8.97656 6.01562V6.03906C9.60938 6.39062 10.0547 6.625 10.875 6.625C11.4609 6.625 12.3281 6.55469 13.0312 6.29688C13.7344 6.01562 13.875 5.73438 13.875 5.5C13.875 5.24219 13.6406 4.77344 12.7031 4.30469C11.8359 3.88281 10.7109 3.625 9.75 3.625C9.14062 3.625 8.32031 3.78906 7.57031 3.97656ZM6 6.25V5.125V3.25C6 3.25 8.25 2.5 9.75 2.5C12 2.5 15 3.625 15 5.5C15 7.375 12.1875 7.75 10.875 7.75C9.75 7.75 9.09375 7.375 8.4375 7C7.78125 6.625 7.125 6.25 6 6.25ZM3 4.75C3 3.92969 3.65625 3.25 4.5 3.25H5.25V6.25H4.5C3.65625 6.25 3 5.59375 3 4.75ZM4.57031 13.0469C5.32031 13.2344 6.14062 13.375 6.75 13.375C7.71094 13.375 8.83594 13.1406 9.70312 12.7188C10.6406 12.25 10.875 11.7812 10.875 11.5C10.875 11.2891 10.7344 11.0078 10.0312 10.7266C9.32812 10.4688 8.46094 10.375 7.875 10.375C7.05469 10.375 6.60938 10.6328 5.97656 10.9844V11.0078C5.48438 11.2656 4.92188 11.5938 4.125 11.7812V12.9297C4.26562 12.9531 4.40625 13 4.57031 13.0469ZM3 10.75C4.125 10.75 4.78125 10.375 5.4375 10C6.09375 9.625 6.75 9.25 7.875 9.25C9.1875 9.25 12 9.625 12 11.5C12 13.375 9 14.5 6.75 14.5C5.25 14.5 3 13.75 3 13.75V11.875V10.75ZM0 12.25C0 11.4297 0.65625 10.75 1.5 10.75H2.25V13.75H1.5C0.65625 13.75 0 13.0938 0 12.25Z" fill="currentColor"/>
</svg>
