<svg width="15" height="16" viewBox="0 0 15 16" fill="none" xmlns="http://www.w3.org/2000/svg">
<path d="M4.125 7V12.25C4.73438 12.1328 5.39062 12.3438 5.83594 12.8359L6 13.0234L6.07031 12.9062C6.82031 12.0625 8.15625 12.0625 8.90625 12.9062L9 13.0234L9.14062 12.8359C9.58594 12.3438 10.2422 12.1328 10.875 12.25V7C10.875 5.14844 9.35156 3.625 7.5 3.625C5.625 3.625 4.125 5.14844 4.125 7ZM9 14.5C8.85938 14.5 8.76562 14.4531 8.67188 14.3594L8.0625 13.6562C7.75781 13.3047 7.21875 13.3047 6.91406 13.6562L6.30469 14.3594C6.23438 14.4531 6.11719 14.5 6 14.5C5.85938 14.5 5.76562 14.4531 5.67188 14.3594L4.99219 13.5859C4.71094 13.2812 4.24219 13.2578 3.96094 13.5391L3.89062 13.6094C3.79688 13.7031 3.65625 13.75 3.51562 13.75C3.23438 13.75 3 13.5156 3 13.2344V7C3 4.51562 5.01562 2.5 7.5 2.5C9.98438 2.5 12 4.51562 12 7V13.2344C12 13.5156 11.7422 13.75 11.4609 13.75C11.3203 13.75 11.1797 13.7031 11.0859 13.6094L11.0391 13.5625C10.7344 13.2578 10.2656 13.2812 9.98438 13.5859L9.30469 14.3594C9.23438 14.4531 9.11719 14.5 9 14.5ZM5.25 7C5.25 6.60156 5.57812 6.25 6 6.25C6.39844 6.25 6.75 6.60156 6.75 7C6.75 7.42188 6.39844 7.75 6 7.75C5.57812 7.75 5.25 7.42188 5.25 7ZM8.25 7C8.25 6.60156 8.57812 6.25 9 6.25C9.39844 6.25 9.75 6.60156 9.75 7C9.75 7.42188 9.39844 7.75 9 7.75C8.57812 7.75 8.25 7.42188 8.25 7Z" fill="currentColor"/>
</svg>
