<svg width="15" height="16" viewBox="0 0 15 16" fill="none" xmlns="http://www.w3.org/2000/svg">
<path d="M5.0625 10.375H9.9375C10.4531 10.375 10.8984 10.7266 11.0156 11.2422L11.1094 11.5703C11.25 12.2031 11.8125 12.625 12.4688 12.625C13.2422 12.625 13.875 12.0156 13.875 11.2422V11.1719C13.875 11.0781 13.8516 11.0078 13.8516 10.9141L13.0781 6.4375C12.9375 5.59375 12.4219 5.03125 11.7891 4.86719C10.8047 4.63281 9.35156 4.375 7.5 4.375C5.625 4.375 4.17188 4.63281 3.1875 4.86719C2.55469 5.03125 2.03906 5.59375 1.89844 6.4375L1.125 10.9141C1.125 11.0078 1.125 11.0781 1.125 11.1719V11.2422C1.125 12.0156 1.73438 12.625 2.50781 12.625C3.16406 12.625 3.72656 12.2031 3.86719 11.5703L3.96094 11.2422C4.07812 10.7266 4.54688 10.375 5.0625 10.375ZM10.0078 11.8516L9.9375 11.5H5.0625L4.96875 11.8516C4.6875 12.9766 3.67969 13.75 2.50781 13.75C1.125 13.75 0 12.625 0 11.2422V11.1719C0 11.0312 0 10.8672 0.0234375 10.7266L0.796875 6.25C0.984375 5.07812 1.75781 4.07031 2.90625 3.78906C3.98438 3.50781 5.53125 3.25 7.5 3.25C9.44531 3.25 10.9922 3.50781 12.0703 3.78906C13.2188 4.07031 13.9922 5.07812 14.1797 6.25L14.9531 10.7266C14.9766 10.8672 14.9766 11.0312 14.9766 11.1719V11.2422C15 12.625 13.8516 13.75 12.4688 13.75C11.2969 13.75 10.2891 12.9766 10.0078 11.8516ZM5.4375 6.4375V7.1875H6.1875C6.49219 7.1875 6.75 7.44531 6.75 7.75C6.75 8.07812 6.49219 8.3125 6.1875 8.3125H5.4375V9.0625C5.4375 9.39062 5.17969 9.625 4.875 9.625C4.54688 9.625 4.3125 9.39062 4.3125 9.0625V8.3125H3.5625C3.23438 8.3125 3 8.07812 3 7.75C3 7.44531 3.23438 7.1875 3.5625 7.1875H4.3125V6.4375C4.3125 6.13281 4.54688 5.875 4.875 5.875C5.17969 5.875 5.4375 6.13281 5.4375 6.4375ZM9.375 8.125C9.77344 8.125 10.125 8.47656 10.125 8.875C10.125 9.29688 9.77344 9.625 9.375 9.625C8.95312 9.625 8.625 9.29688 8.625 8.875C8.625 8.47656 8.95312 8.125 9.375 8.125ZM10.125 6.625C10.125 6.22656 10.4531 5.875 10.875 5.875C11.2734 5.875 11.625 6.22656 11.625 6.625C11.625 7.04688 11.2734 7.375 10.875 7.375C10.4531 7.375 10.125 7.04688 10.125 6.625Z" fill="currentColor"/>
</svg>
