<svg width="15" height="16" viewBox="0 0 15 16" fill="none" xmlns="http://www.w3.org/2000/svg">
<path d="M3.79688 8.78125C4.6875 9.29688 6 9.625 7.5 9.625C9 9.625 10.2891 9.29688 11.1797 8.78125C12.0938 8.26562 12.375 7.72656 12.375 7.375C12.375 7.04688 12.0938 6.50781 11.1797 5.96875C10.2891 5.47656 9 5.125 7.5 5.125C6 5.125 4.6875 5.47656 3.79688 5.96875C2.88281 6.50781 2.625 7.04688 2.625 7.375C2.625 7.72656 2.88281 8.26562 3.79688 8.78125ZM7.5 4C10.8047 4 13.5 5.52344 13.5 7.375V8.5V10C13.5 11.6641 10.8047 13 7.5 13C4.17188 13 1.5 11.6641 1.5 10V8.5V7.375C1.5 5.52344 4.17188 4 7.5 4ZM6.5625 10.7266V11.8516C6.84375 11.875 7.17188 11.875 7.5 11.875C7.80469 11.875 8.13281 11.875 8.4375 11.8516V10.7266C8.13281 10.75 7.80469 10.75 7.5 10.75C7.17188 10.75 6.86719 10.75 6.5625 10.7266ZM5.8125 10.6328C5.27344 10.5391 4.75781 10.4219 4.3125 10.2578V11.3594C4.73438 11.5234 5.25 11.6641 5.8125 11.7578V10.6328ZM2.625 9.34375V10C2.625 10.1641 2.76562 10.5859 3.5625 11.0312V9.92969C3.21094 9.76562 2.88281 9.57812 2.625 9.34375ZM9.1875 11.7578C9.72656 11.6641 10.2422 11.5234 10.6875 11.3594V10.2344C10.2188 10.3984 9.70312 10.5391 9.1875 10.6328V11.7578ZM11.4375 11.0312V11.0078C12.2109 10.5859 12.375 10.1641 12.375 10V9.34375C12.0938 9.55469 11.7891 9.76562 11.4375 9.92969V11.0312ZM7.5 6.8125C6.53906 6.8125 5.71875 6.95312 5.13281 7.11719C4.85156 7.21094 4.66406 7.30469 4.57031 7.375C4.66406 7.46875 4.85156 7.5625 5.13281 7.65625C5.71875 7.82031 6.53906 7.9375 7.5 7.9375C8.4375 7.9375 9.25781 7.82031 9.84375 7.65625C10.125 7.5625 10.3125 7.46875 10.4297 7.375C10.3125 7.30469 10.125 7.21094 9.84375 7.11719C9.25781 6.95312 8.4375 6.8125 7.5 6.8125ZM11.625 7.375C11.625 7.79688 11.3438 8.10156 11.1094 8.26562C10.8516 8.45312 10.5234 8.59375 10.1719 8.71094C9.46875 8.94531 8.50781 9.0625 7.5 9.0625C6.46875 9.0625 5.50781 8.94531 4.80469 8.71094C4.45312 8.61719 4.125 8.45312 3.86719 8.26562C3.63281 8.10156 3.375 7.79688 3.375 7.375C3.375 6.97656 3.63281 6.67188 3.86719 6.50781C4.125 6.32031 4.45312 6.15625 4.80469 6.0625C5.50781 5.82812 6.46875 5.6875 7.5 5.6875C8.50781 5.6875 9.46875 5.82812 10.1719 6.0625C10.5234 6.15625 10.8516 6.32031 11.1094 6.50781C11.3438 6.67188 11.625 6.97656 11.625 7.375Z" fill="currentColor"/>
</svg>
