<svg width="19" height="20" viewBox="0 0 19 20" fill="none" xmlns="http://www.w3.org/2000/svg">
<path d="M13.4336 7.6875L12.9355 7.18945C11.0898 5.37305 8.13086 5.37305 6.28516 7.18945C4.46875 9.03516 4.46875 11.9941 6.28516 13.8398C8.13086 15.6562 11.0898 15.6562 12.9355 13.8398C13.2871 13.459 13.873 13.459 14.2539 13.8398C14.6055 14.1914 14.6055 14.7773 14.2539 15.1582C11.6758 17.707 7.54492 17.707 4.9668 15.1582C2.41797 12.5801 2.41797 8.44922 4.9668 5.87109C7.54492 3.32227 11.6758 3.32227 14.2539 5.87109L14.7812 6.39844V4.875C14.7812 4.37695 15.1914 3.9375 15.7188 3.9375C16.2168 3.9375 16.6562 4.37695 16.6562 4.875V8.625C16.6562 9.15234 16.2168 9.5625 15.7188 9.5625H11.9688C11.4414 9.5625 11.0312 9.15234 11.0312 8.625C11.0312 8.12695 11.4414 7.6875 11.9688 7.6875H13.4336Z" fill="#5B6ACC"/>
</svg>
