<svg width="15" height="16" viewBox="0 0 15 16" fill="none" xmlns="http://www.w3.org/2000/svg">
<path d="M6.375 12.25V12.625L8.0625 11.3594C8.25 11.2188 8.48438 11.125 8.74219 11.125H12C12.1875 11.125 12.375 10.9609 12.375 10.75V4C12.375 3.8125 12.1875 3.625 12 3.625H3C2.78906 3.625 2.625 3.8125 2.625 4V10.75C2.625 10.9609 2.78906 11.125 3 11.125H5.25C5.85938 11.125 6.375 11.6406 6.375 12.25ZM6.35156 14.0547L6.23438 14.125L5.83594 14.4297C5.71875 14.5234 5.57812 14.5234 5.4375 14.4766C5.32031 14.4062 5.25 14.2891 5.25 14.125V13.6328V13.4922V13.4688V13.375V12.25H4.125H3C2.15625 12.25 1.5 11.5938 1.5 10.75V4C1.5 3.17969 2.15625 2.5 3 2.5H12C12.8203 2.5 13.5 3.17969 13.5 4V10.75C13.5 11.5938 12.8203 12.25 12 12.25H8.74219L6.375 14.0312L6.35156 14.0547ZM4.875 8.125C4.45312 8.125 4.125 7.79688 4.125 7.375C4.125 6.97656 4.45312 6.625 4.875 6.625C5.27344 6.625 5.625 6.97656 5.625 7.375C5.625 7.79688 5.27344 8.125 4.875 8.125ZM8.25 7.375C8.25 7.79688 7.89844 8.125 7.5 8.125C7.07812 8.125 6.75 7.79688 6.75 7.375C6.75 6.97656 7.07812 6.625 7.5 6.625C7.89844 6.625 8.25 6.97656 8.25 7.375ZM10.125 8.125C9.70312 8.125 9.375 7.79688 9.375 7.375C9.375 6.97656 9.70312 6.625 10.125 6.625C10.5234 6.625 10.875 6.97656 10.875 7.375C10.875 7.79688 10.5234 8.125 10.125 8.125Z" fill="currentColor"/>
</svg>
