<svg width="15" height="16" viewBox="0 0 15 16" fill="none" xmlns="http://www.w3.org/2000/svg">
<path d="M7.47656 2.5C7.71094 2.5 7.89844 2.64062 7.99219 2.82812L9.60938 6.13281L13.1953 6.67188C13.4062 6.69531 13.5703 6.83594 13.6406 7.04688C13.7109 7.25781 13.6641 7.46875 13.5 7.63281L10.8984 10.2109L11.5078 13.8438C11.5547 14.0547 11.4609 14.2891 11.2969 14.4062C11.1094 14.5234 10.875 14.5469 10.6875 14.4531L7.47656 12.7188L4.28906 14.4531C4.07812 14.5469 3.86719 14.5234 3.67969 14.4062C3.51562 14.2656 3.42188 14.0547 3.46875 13.8438L4.07812 10.2109L1.47656 7.63281C1.3125 7.46875 1.26562 7.25781 1.33594 7.04688C1.40625 6.85938 1.57031 6.69531 1.78125 6.67188L5.36719 6.13281L6.98438 2.82812C7.07812 2.64062 7.26562 2.5 7.47656 2.5ZM7.47656 4.35156L6.25781 6.90625C6.16406 7.07031 6.02344 7.1875 5.83594 7.21094L3.07031 7.60938L5.0625 9.60156C5.20312 9.74219 5.27344 9.92969 5.22656 10.0938L4.75781 12.9062L7.21875 11.5938C7.38281 11.5 7.59375 11.5 7.75781 11.5938L10.2188 12.9062L9.75 10.1172C9.70312 9.92969 9.77344 9.74219 9.91406 9.625L11.9062 7.60938L9.14062 7.21094C8.95312 7.1875 8.8125 7.07031 8.71875 6.90625L7.47656 4.35156Z" fill="currentColor"/>
</svg>
