<svg width="15" height="16" viewBox="0 0 15 16" fill="none" xmlns="http://www.w3.org/2000/svg">
<path d="M12.375 8.5C12.375 6.76562 11.4375 5.17188 9.9375 4.28125C8.41406 3.41406 6.5625 3.41406 5.0625 4.28125C3.53906 5.17188 2.625 6.76562 2.625 8.5C2.625 10.2578 3.53906 11.8516 5.0625 12.7422C6.5625 13.6094 8.41406 13.6094 9.9375 12.7422C11.4375 11.8516 12.375 10.2578 12.375 8.5ZM1.5 8.5C1.5 6.36719 2.625 4.39844 4.5 3.32031C6.35156 2.24219 8.625 2.24219 10.5 3.32031C12.3516 4.39844 13.5 6.36719 13.5 8.5C13.5 10.6562 12.3516 12.625 10.5 13.7031C8.625 14.7812 6.35156 14.7812 4.5 13.7031C2.625 12.625 1.5 10.6562 1.5 8.5Z" fill="#717486"/>
</svg>
