<svg width="15" height="16" viewBox="0 0 15 16" fill="none" xmlns="http://www.w3.org/2000/svg">
<path d="M7.5 2C9.63281 2 11.6016 3.14844 12.6797 5C13.7578 6.875 13.7578 9.14844 12.6797 11C11.6016 12.875 9.63281 14 7.5 14C5.34375 14 3.375 12.875 2.29688 11C1.21875 9.14844 1.21875 6.875 2.29688 5C3.375 3.14844 5.34375 2 7.5 2ZM6.9375 4.8125V8C6.9375 8.1875 7.03125 8.375 7.17188 8.46875L9.42188 9.96875C9.67969 10.1562 10.0312 10.0859 10.2188 9.82812C10.3828 9.57031 10.3125 9.21875 10.0547 9.03125L8.0625 7.71875V4.8125C8.0625 4.50781 7.80469 4.25 7.5 4.25C7.17188 4.25 6.9375 4.50781 6.9375 4.8125Z" fill="#C4C6D1"/>
</svg>
