<svg width="20" height="21" viewBox="0 0 20 21" fill="none" xmlns="http://www.w3.org/2000/svg">
<path d="M14.7812 6.78125L11.0312 10.5312L14.75 14.25C15.0625 14.5312 15.0625 15 14.75 15.2812C14.4688 15.5938 14 15.5938 13.7188 15.2812L9.96875 11.5625L6.25 15.2812C5.96875 15.5938 5.5 15.5938 5.21875 15.2812C4.90625 15 4.90625 14.5312 5.21875 14.2188L8.9375 10.5L5.21875 6.78125C4.90625 6.5 4.90625 6.03125 5.21875 5.71875C5.5 5.4375 5.96875 5.4375 6.28125 5.71875L10 9.46875L13.7188 5.75C14 5.4375 14.4688 5.4375 14.7812 5.75C15.0625 6.03125 15.0625 6.5 14.7812 6.78125Z" fill="#718FF2"/>
</svg>
