<svg width="31" height="30" viewBox="0 0 31 30" fill="none" xmlns="http://www.w3.org/2000/svg">
<path d="M8.23438 4.07812C8.46875 3.46875 9.07812 3.09375 9.73438 3.23438L12.9688 3.84375C14.6094 4.17188 16.3438 4.17188 17.9844 3.84375L21.2188 3.23438C21.875 3.09375 22.4844 3.46875 22.7188 4.07812L24.0781 7.6875C24.5938 9.14062 25.3906 10.4531 26.375 11.625L28.4844 14.2031C28.9062 14.6719 28.9062 15.375 28.4844 15.8438L26.375 18.4219C25.3906 19.5938 24.5938 20.9062 24.0781 22.3594L22.7188 25.9688C22.4844 26.5781 21.875 26.9531 21.2188 26.8125L17.9844 26.2031C16.3438 25.875 14.6094 25.875 12.9688 26.2031L9.73438 26.8125C9.07812 26.9531 8.46875 26.5781 8.23438 25.9688L6.875 22.3594C6.35938 20.9062 5.5625 19.5938 4.57812 18.4219L2.46875 15.8438C2.04688 15.375 2.04688 14.6719 2.46875 14.1562L4.57812 11.625C5.5625 10.4531 6.35938 9.09375 6.875 7.6875L8.23438 4.07812ZM9.82812 7.35938L9.35938 8.57812C8.70312 10.3125 7.76562 11.9062 6.59375 13.3125L6.125 13.875H8.23438C9.3125 12.6094 10.1562 11.1094 10.7188 9.51562L10.8594 9.1875L9.82812 7.35938ZM11.7969 6.28125L12.7812 8.0625C14.5625 8.48438 16.3906 8.48438 18.1719 8.0625L19.1562 6.28125L18.5 6.42188C16.4844 6.79688 14.4688 6.79688 12.4531 6.42188L11.7969 6.28125ZM21.125 7.35938L20.0938 9.1875L20.2344 9.51562C20.7969 11.1094 21.6406 12.6094 22.7656 13.875H24.8281L24.3594 13.3125C23.1875 11.9062 22.25 10.3125 21.5938 8.57812L21.1719 7.35938H21.125ZM24.8281 16.125H22.7656C21.6406 17.4844 20.7969 18.9844 20.2344 20.625L20.1406 20.9062L21.125 22.6875L21.5938 21.4688C22.25 19.7344 23.1875 18.1406 24.3594 16.7344L24.8281 16.125ZM19.1562 23.7656L18.2656 22.1719C16.4844 21.6094 14.6094 21.5625 12.7812 21.9844L11.7969 23.7656L12.5 23.625C14.4688 23.25 16.4844 23.25 18.5 23.625L19.2031 23.7656H19.1562ZM9.82812 22.6875L10.8594 20.8594L10.7188 20.5312C10.1562 18.9375 9.3125 17.4375 8.23438 16.125H6.125L6.59375 16.7344C7.76562 18.1406 8.70312 19.7344 9.35938 21.4219L9.82812 22.6875ZM11.0469 16.125C11.5156 16.8281 11.9375 17.5781 12.2656 18.375L13.5312 16.125H11.0469ZM14.2344 19.5C15.0781 19.4062 15.9219 19.4531 16.7656 19.5469L15.5 17.2969L14.2344 19.5ZM18.6875 18.375C19.0625 17.625 19.4844 16.875 19.9531 16.125H17.4219L18.6875 18.375ZM19.9062 13.875C19.4375 13.1719 19.0156 12.4688 18.6875 11.6719L17.4219 13.875H19.9062ZM16.7188 10.5469C15.9219 10.6406 15.0781 10.6406 14.2344 10.5469L15.5 12.75L16.7188 10.5469ZM12.2656 11.6719C11.9375 12.4688 11.5156 13.1719 11.0469 13.875H13.5312L12.2656 11.6719Z" fill="#718FF2"/>
</svg>
