<svg width="15" height="16" viewBox="0 0 15 16" fill="none" xmlns="http://www.w3.org/2000/svg">
<path d="M3.375 4.625C3.375 3.19531 4.54688 2 6 2H6.375C6.5625 2 6.75 2.1875 6.75 2.375V2.75C6.75 4.17969 5.625 5.32812 4.24219 5.375C3.67969 6.14844 3.375 7.0625 3.375 8C3.375 10.2969 5.20312 12.125 7.5 12.125H7.75781C8.78906 12.125 9.77344 12.3828 10.6875 12.8281L10.9219 12.9453C11.2031 13.0859 11.3203 13.4141 11.1797 13.6953C11.0391 13.9766 10.7109 14.0938 10.4297 13.9531L10.1953 13.8359C9.44531 13.4609 8.60156 13.25 7.75781 13.25H7.5H7.21875C6.375 13.25 5.53125 13.4609 4.78125 13.8359L4.54688 13.9531C4.26562 14.0938 3.9375 13.9766 3.79688 13.6953C3.65625 13.4141 3.77344 13.0859 4.05469 12.9453L4.28906 12.8281C4.47656 12.7344 4.66406 12.6406 4.875 12.5703C4.73438 12.5 4.61719 12.4062 4.5 12.3359C3.09375 12.9922 1.40625 12.4766 0.609375 11.1172L0.421875 10.7891C0.328125 10.6016 0.398438 10.3672 0.5625 10.2734C0.890625 10.0859 1.24219 9.96875 1.59375 9.89844C0.632812 9.40625 0 8.39844 0 7.25V6.875C0 6.6875 0.164062 6.5 0.375 6.5C0.726562 6.5 1.10156 6.57031 1.42969 6.71094C0.84375 5.79688 0.796875 4.60156 1.35938 3.61719L1.54688 3.28906C1.66406 3.10156 1.89844 3.05469 2.0625 3.14844C2.69531 3.5 3.11719 4.03906 3.375 4.64844V4.625ZM10.7578 5.375C9.35156 5.32812 8.25 4.17969 8.25 2.75V2.375C8.25 2.1875 8.41406 2 8.625 2H9C10.4297 2 11.625 3.19531 11.625 4.625V4.64844C11.8594 4.03906 12.3047 3.5 12.9141 3.14844C13.1016 3.05469 13.3125 3.10156 13.4297 3.28906L13.6172 3.61719C14.1797 4.60156 14.1328 5.79688 13.5469 6.71094C13.8984 6.57031 14.25 6.52344 14.625 6.52344C14.8125 6.52344 15 6.6875 15 6.89844V7.27344C15 8.42188 14.3438 9.40625 13.4062 9.92188C13.7344 9.96875 14.0859 10.0859 14.4141 10.2734C14.6016 10.3906 14.6484 10.6016 14.5547 10.7891L14.3672 11.1172C13.8047 12.1016 12.75 12.6406 11.6953 12.6172C11.5781 12.4766 11.4375 12.3594 11.2734 12.2891L11.0391 12.1719C10.9688 12.125 10.8984 12.1016 10.8281 12.0547C10.5938 11.9609 10.3359 11.8438 10.0781 11.7734C9.91406 11.7031 9.72656 11.6562 9.51562 11.6094C10.7812 10.8828 11.625 9.54688 11.625 8C11.625 7.0625 11.2969 6.14844 10.7578 5.375Z" fill="#C4C6D1"/>
</svg>
