<svg width="15" height="15" viewBox="0 0 15 15" fill="none" xmlns="http://www.w3.org/2000/svg">
<path d="M3.75 2.25H11.25C12.0703 2.25 12.75 2.92969 12.75 3.75V11.25C12.75 12.0938 12.0703 12.75 11.25 12.75H3.75C2.90625 12.75 2.25 12.0938 2.25 11.25V3.75C2.25 2.92969 2.90625 2.25 3.75 2.25ZM10.1484 6.39844H10.125C10.3594 6.1875 10.3594 5.83594 10.125 5.60156C9.91406 5.39062 9.5625 5.39062 9.35156 5.60156L6.75 8.22656L5.64844 7.125C5.41406 6.89062 5.0625 6.89062 4.85156 7.125C4.61719 7.33594 4.61719 7.6875 4.85156 7.89844L6.35156 9.39844C6.5625 9.63281 6.91406 9.63281 7.14844 9.39844L10.1484 6.39844Z" fill="#718FF2"/>
</svg>
