<svg width="18" height="18" viewBox="0 0 18 18" fill="none" xmlns="http://www.w3.org/2000/svg">
<g clip-path="url(#clip0_4778_6470)">
<path d="M9.44071 14.2093C9.16931 14.0448 8.829 14.0448 8.55761 14.2093L4.39532 16.7321C3.75017 17.1231 2.95263 16.5446 3.12406 15.8099L4.22755 11.0809C4.29924 10.7737 4.19529 10.452 3.95739 10.2448L0.293637 7.05427C-0.273874 6.56005 0.031211 5.62656 0.781053 5.56289L5.60934 5.15288C5.92375 5.12618 6.19766 4.92788 6.3212 4.63753L8.21605 0.184052C8.51015 -0.507152 9.48985 -0.507151 9.78395 0.184053L11.6788 4.63753C11.8023 4.92789 12.0762 5.12618 12.3907 5.15288L17.2189 5.56289C17.9688 5.62656 18.2739 6.56005 17.7064 7.05427L14.0426 10.2448C13.8047 10.452 13.7008 10.7737 13.7725 11.0809L14.876 15.8103C15.0474 16.5449 14.25 17.1234 13.6048 16.7325L9.44071 14.2093Z" fill="#F0F0F4"/>
</g>
<defs>
<clipPath id="clip0_4778_6470">
<rect width="18" height="17.25" fill="white"/>
</clipPath>
</defs>
</svg>
