<svg width="28" height="27" viewBox="0 0 28 27" fill="none" xmlns="http://www.w3.org/2000/svg">
<g clip-path="url(#clip0_5391_12059)">
<path d="M14.6611 22.7639C14.254 22.5065 13.7435 22.5065 13.3364 22.764L7.09298 26.7127C6.12526 27.3247 4.92894 26.4192 5.18609 25.2693L6.84132 17.8674C6.94885 17.3865 6.79294 16.883 6.43608 16.5587L0.940455 11.5648C0.0891897 10.7912 0.546817 9.33013 1.67158 9.23046L8.91401 8.5887C9.38563 8.54691 9.79649 8.23654 9.9818 7.78207L12.8241 0.811413C13.2652 -0.270472 14.7348 -0.27047 15.1759 0.811414L18.0182 7.78207C18.2035 8.23654 18.6144 8.54691 19.086 8.5887L26.3284 9.23046C27.4532 9.33013 27.9108 10.7912 27.0595 11.5648L21.5639 16.5587C21.2071 16.883 21.0511 17.3865 21.1587 17.8674L22.814 25.2698C23.0712 26.4196 21.875 27.3252 20.9073 26.7133L14.6611 22.7639Z" fill="#718FF2"/>
</g>
<defs>
<clipPath id="clip0_5391_12059">
<rect width="27" height="27" fill="white" transform="translate(0.5)"/>
</clipPath>
</defs>
</svg>
