<svg width="420" height="21" viewBox="0 0 420 21" fill="none" xmlns="http://www.w3.org/2000/svg">
<path d="M14.0262 1.92403V5.57873H16.1146V7.67956H14.0262V11.3778H11.4841V1.92403H14.0262ZM6.95304 2.94958H9.48895V10.5635H1.58909V2.94958H4.09392V4.85152H6.95304V2.94958ZM4.09392 8.59323H6.95304V6.80318H4.09392V8.59323ZM8.69959 11.7258C12.0746 11.7196 14.1754 12.8881 14.1816 14.8833C14.1754 16.9033 12.0746 18.0905 8.69959 18.0905C5.26243 18.0905 3.11188 16.9033 3.11809 14.8833C3.11188 12.8881 5.26243 11.7196 8.69959 11.7258ZM8.69959 16.1264C10.6761 16.1264 11.6768 15.7286 11.6768 14.8833C11.6768 14.038 10.6761 13.6775 8.69959 13.6775C6.69199 13.6775 5.64779 14.038 5.65401 14.8833C5.64779 15.7286 6.69199 16.1264 8.69959 16.1264ZM29.5829 1.92403V4.98826H31.6713V7.0145H29.5829V10.1844H27.0408V1.92403H29.5829ZM25.8909 7.71064L26.1147 9.64365C23.933 9.97928 21.9814 10.0228 18.6561 10.0228H17.2825V2.52072H24.971V4.49724H19.8308V5.29282H24.6229V7.16367H19.8308V8.04005C22.3854 8.02762 24.0014 7.96547 25.8909 7.71064ZM29.5829 15.2562H21.2666V16.0394H30.0055V17.9662H18.768V13.4537H27.0532V12.739H18.7493V10.7935H29.5829V15.2562ZM33.5166 8.36947L32.8391 6.51726C35.9904 6.39296 37.451 5.73412 37.9669 4.99448H33.6658V3.14226H38.3522V1.94268H40.8757V3.14226H45.5995V4.99448H41.2486C41.7583 5.73412 43.2376 6.39296 46.4261 6.51726L45.6989 8.36947C42.6471 8.23273 40.6395 7.51174 39.614 6.38674C38.6009 7.51174 36.5995 8.23273 33.5166 8.36947ZM46.9544 8.69889V10.5262H40.8819V11.384H45.2328V15.4551H36.4441V16.1202H45.6305V17.9662H33.9641V13.7831H42.7341V13.174H33.9641V11.384H38.3771V10.5262H32.3294V8.69889H46.9544ZM48.7003 15.0325H51.4786L49.9061 20.1105H47.8612L48.7003 15.0325ZM58.0532 10.8246L57.1396 8.85428C60.5705 8.46892 62.143 6.98964 62.46 5.71547H57.7549V3.74517H62.5222V1.96133H65.0456V3.74517H69.844V5.71547H65.1389C65.4496 6.96478 67.0222 8.46892 70.4344 8.85428L69.5208 10.8246C66.7487 10.5262 64.853 9.45718 63.8025 8.07113C62.7583 9.46961 60.8502 10.52 58.0532 10.8246ZM56.4621 11.5518H71.1679V13.6091H65.0456V18.0718H62.5222V13.6091H56.4621V11.5518ZM80.7017 8.58702V6.5732H83.1506V1.94889H85.6741V13.8764H83.1506V8.58702H80.7017ZM76.8668 9.15884C76.152 10.5946 74.9151 11.732 73.0691 12.279L71.8509 10.3025C74.5422 9.51312 75.5615 7.58011 75.5677 5.72168H72.4538V3.74517H75.5677V2.03591H78.1161V3.74517H81.2176V5.72168H78.0912C78.0974 7.41851 79.1106 9.2645 81.8019 10.0787L80.5961 12.0242C78.8184 11.5269 77.594 10.4827 76.8668 9.15884ZM77.3889 12.8757V15.7783H86.0346V17.8046H74.8654V12.8757H77.3889ZM98.0671 2.54558H100.597V9.71823H89.2287V2.54558H91.7211V4.27348H98.0671V2.54558ZM91.7211 7.6982H98.0671V6.25H91.7211V7.6982ZM87.5567 11.1416H102.3V13.1181H96.1341V18.0594H93.623V13.1181H87.5567V11.1416ZM114.301 7.49931V1.92403H116.806V18.1029H114.301V9.51934H111.653V7.49931H114.301ZM106.389 9.69959V12.4655C108.428 12.4468 110.155 12.366 112.076 12.0801L112.318 14.0939C109.963 14.4358 107.806 14.5166 105.158 14.5228H103.859V3.24171H111.405V5.28039H106.389V7.72928H110.858V9.69959H106.389Z" fill="#F9F9FB"/>
<line x1="133.5" y1="8.25" x2="283.5" y2="8.25" stroke="#F9F9FB" stroke-width="2.25"/>
<path d="M314.302 18.0594V1.92403H316.72V18.0594H314.302ZM309.342 5.39848H311.021V2.14157H313.395V17.3384H311.021V12.4468H309.349C308.739 13.9945 307.683 14.8646 306.34 14.8646C304.202 14.8646 302.81 12.6084 302.816 8.91644C302.81 5.25552 304.202 3.01174 306.34 3.01796C307.683 3.01174 308.733 3.87569 309.342 5.39848ZM306.34 12.4344C307.148 12.4344 307.627 11.3591 307.633 8.91644C307.627 6.50483 307.148 5.4047 306.34 5.41091C305.52 5.4047 305.091 6.50483 305.103 8.91644C305.091 11.3591 305.52 12.4344 306.34 12.4344ZM309.84 10.4019H311.021V7.41229H309.84C309.896 7.88467 309.927 8.38191 309.927 8.91644C309.927 9.43854 309.896 9.93577 309.84 10.4019ZM333.103 3.94406V5.98273H331.108V7.43715H333.103V9.51934H331.108V11.4151H328.566V1.92403H331.108V3.94406H333.103ZM327.242 6.75345C327.236 9.09668 325.297 10.75 322.78 10.75C320.244 10.75 318.292 9.09668 318.304 6.75345C318.292 4.45994 320.244 2.78177 322.78 2.78798C325.297 2.78177 327.236 4.45994 327.242 6.75345ZM320.784 6.75345C320.772 7.96547 321.636 8.61188 322.78 8.59945C323.892 8.61188 324.762 7.96547 324.775 6.75345C324.762 5.57873 323.898 4.94475 322.78 4.94475C321.636 4.94475 320.772 5.57873 320.784 6.75345ZM328.566 14.0691H320.157V12.0304H331.108V18.0594H328.566V14.0691ZM346.777 8.15193H348.815V10.2279H346.777V18.0594H344.235V1.92403H346.777V8.15193ZM338.597 3.55249C338.585 8.16436 338.255 11.5207 335.371 14.7217L333.395 13.2983C335.521 10.9613 336.061 8.79213 336.179 5.60981H334.184V3.55249H338.597ZM339.15 3.55249H343.079C343.079 8.40055 342.731 12.2417 339.927 15.7348L337.938 14.3363C340.014 11.6948 340.568 9.17749 340.686 5.60981H339.15V3.55249ZM360.363 18.0594V1.92403H362.924V18.0594H360.363ZM355.764 5.51036V6.14434C355.764 8.71754 356.901 11.5021 359.711 12.6519L358.356 14.6347C356.478 13.8515 355.229 12.3412 354.521 10.4952C353.806 12.5214 352.538 14.1934 350.642 15.0387L349.213 13.0559C351.997 11.8253 353.178 8.8605 353.178 6.14434V5.51036H349.884V3.45304H358.996V5.51036H355.764ZM374.985 3.55249H378.491V5.52901H368.938V3.55249H372.456V1.91782H374.985V3.55249ZM381.804 1.94889V6.7721H383.892V8.83564H381.804V13.9758H379.261V1.94889H381.804ZM373.717 12.2666C371.355 12.2728 369.677 11.0235 369.683 9.15884C369.677 7.26934 371.355 5.98895 373.717 5.98895C376.06 5.98895 377.714 7.26934 377.72 9.15884C377.714 11.0235 376.06 12.2728 373.717 12.2666ZM372.151 9.15884C372.151 9.96064 372.773 10.3522 373.717 10.3584C374.662 10.3522 375.308 9.96064 375.315 9.15884C375.308 8.3384 374.662 7.92196 373.717 7.91575C372.773 7.92196 372.151 8.3384 372.151 9.15884ZM371.225 13.0622H373.755V15.7783H382.326V17.8046H371.225V13.0622ZM399.67 8.14572H396.973V11.3529H389.178V2.99931H391.721V5.34254H394.468V2.99931H396.973V6.13191H399.67V1.94889H402.194V13.8267H399.67V8.14572ZM391.721 9.37638H394.468V7.25691H391.721V9.37638ZM393.921 12.6395V15.7783H402.523V17.8046H391.354V12.6395H393.921ZM415.693 18.0594V1.92403H418.111V18.0594H415.693ZM411.268 7.79144H412.337V2.14157H414.717V17.3384H412.337V9.79903H411.286C411.075 12.9627 409.714 14.8646 407.731 14.8646C405.593 14.8646 404.201 12.6084 404.207 8.91644C404.201 5.25552 405.593 3.01174 407.731 3.01796C409.664 3.01174 411 4.80179 411.268 7.79144ZM407.731 12.4344C408.539 12.4344 408.993 11.3591 408.993 8.91644C408.993 6.50483 408.539 5.4047 407.731 5.41091C406.954 5.4047 406.519 6.50483 406.531 8.91644C406.519 11.3591 406.954 12.4344 407.731 12.4344Z" fill="#F9F9FB"/>
</svg>
