<svg width="39" height="38" viewBox="0 0 39 38" fill="#6680DF" xmlns="http://www.w3.org/2000/svg">
<path d="M0.75 31.875L3.21094 9.375L10.125 5.625H19.5H28.875L35.7305 9.375L38.25 31.875H26.5312L25.5938 26.25H13.4062L12.4688 31.875H0.75ZM26.0625 17.3438C25.1836 17.3438 24.4219 17.8125 24.0117 18.5156C23.6016 19.2773 23.6016 20.1562 24.0117 20.8594C24.4219 21.6211 25.1836 22.0312 26.0625 22.0312C26.8828 22.0312 27.6445 21.6211 28.0547 20.8594C28.4648 20.1562 28.4648 19.2773 28.0547 18.5156C27.6445 17.8125 26.8828 17.3438 26.0625 17.3438ZM27.4688 14.0625C27.4688 14.9414 27.8789 15.7031 28.6406 16.1133C29.3438 16.5234 30.2227 16.5234 30.9844 16.1133C31.6875 15.7031 32.1562 14.9414 32.1562 14.0625C32.1562 13.2422 31.6875 12.4805 30.9844 12.0703C30.2227 11.6602 29.3438 11.6602 28.6406 12.0703C27.8789 12.4805 27.4688 13.2422 27.4688 14.0625ZM13.4062 13.5938V12.1875H10.5938V13.5938V15.4688H8.71875H7.3125V18.2812H8.71875H10.5938V20.1562V21.5625H13.4062V20.1562V18.2812H15.2812H16.6875V15.4688H15.2812H13.4062V13.5938Z"/>
</svg>
