<svg width="27" height="27" viewBox="0 0 27 27" fill="none" xmlns="http://www.w3.org/2000/svg">
<path d="M16.3125 18.25H10.6875C10.3359 17.1602 9.63281 16.1758 8.92969 15.2266C8.75391 14.9805 8.57812 14.7344 8.40234 14.4883C7.69922 13.4688 7.3125 12.2734 7.3125 10.9375C7.3125 7.52734 10.0547 4.75 13.5 4.75C16.9102 4.75 19.6875 7.52734 19.6875 10.9727C19.6875 12.2734 19.2656 13.4688 18.5625 14.4883C18.3867 14.7344 18.2109 14.9805 18.0352 15.2266C17.332 16.1758 16.6289 17.1602 16.3125 18.25ZM13.5 22.75C11.918 22.75 10.6875 21.5195 10.6875 19.9375V19.375H16.3125V19.9375C16.3125 21.5195 15.0469 22.75 13.5 22.75ZM10.6875 10.9375C10.6875 9.39062 11.918 8.125 13.5 8.125C13.7812 8.125 14.0625 7.87891 14.0625 7.5625C14.0625 7.28125 13.7812 7 13.5 7C11.3203 7 9.5625 8.79297 9.5625 10.9375C9.5625 11.2539 9.80859 11.5 10.125 11.5C10.4062 11.5 10.6875 11.2539 10.6875 10.9375Z" fill="#515467"/>
</svg>
