<svg width="39" height="38" viewBox="0 0 39 38" fill="none" xmlns="http://www.w3.org/2000/svg">
<path d="M19.5 33.75C19.5 33.75 8.25 21.5625 8.25 15C8.25 8.78906 13.2891 3.75 19.5 3.75C25.7109 3.75 30.75 8.78906 30.75 15C30.75 21.5625 19.5 33.75 19.5 33.75ZM19.5 11.25C18.1523 11.25 16.9219 12.0117 16.2188 13.125C15.5742 14.2969 15.5742 15.7617 16.2188 16.875C16.9219 18.0469 18.1523 18.75 19.5 18.75C20.7891 18.75 22.0195 18.0469 22.7227 16.875C23.3672 15.7617 23.3672 14.2969 22.7227 13.125C22.0195 12.0117 20.7891 11.25 19.5 11.25Z" fill="#6680DF"/>
</svg>
