<svg width="11" height="11" viewBox="0 0 11 11" fill="none" xmlns="http://www.w3.org/2000/svg">
<path d="M5.82812 3.28125L6.71875 5.07812C6.85938 5.35938 7.23438 5.4375 7.46875 5.25L8.875 4.125C8.79688 4.03125 8.75 3.89062 8.75 3.75C8.75 3.40625 9.01562 3.125 9.375 3.125C9.71875 3.125 10 3.40625 10 3.75C10 4.10938 9.71875 4.375 9.375 4.375C9.35938 4.375 9.35938 4.375 9.35938 4.375L8.64062 8.3125C8.5625 8.78125 8.14062 9.125 7.65625 9.125H3.32812C2.84375 9.125 2.42188 8.78125 2.34375 8.3125L1.625 4.375C1.26562 4.375 1 4.10938 1 3.75C1 3.40625 1.26562 3.125 1.625 3.125C1.96875 3.125 2.25 3.40625 2.25 3.75C2.25 3.89062 2.20312 4.03125 2.125 4.125L3.51562 5.25C3.76562 5.4375 4.125 5.35938 4.26562 5.07812L5.17188 3.28125C4.98438 3.17188 4.875 2.98438 4.875 2.75C4.875 2.40625 5.14062 2.125 5.5 2.125C5.84375 2.125 6.125 2.40625 6.125 2.75C6.125 2.98438 6 3.17188 5.82812 3.28125Z" fill="#718FF2"/>
</svg>
