<svg viewBox="0 0 10 10" fill="none" xmlns="http://www.w3.org/2000/svg">
<path d="M9.20154 2.22891L6.33044 5.10001L9.20154 7.99844C9.55701 8.32657 9.55701 8.90079 9.20154 9.22891C8.87341 9.58438 8.29919 9.58438 7.97107 9.22891L5.09998 6.35782L2.20154 9.22891C1.87341 9.58438 1.29919 9.58438 0.971069 9.22891C0.615601 8.90079 0.615601 8.32657 0.971069 7.99844L3.84216 5.10001L0.971069 2.22891C0.615601 1.90079 0.615601 1.32657 0.971069 0.998444C1.29919 0.642975 1.87341 0.642975 2.20154 0.998444L5.09998 3.86954L7.97107 0.998444C8.29919 0.642975 8.87341 0.642975 9.20154 0.998444C9.55701 1.32657 9.55701 1.90079 9.20154 2.22891Z" fill="#717486"/>
</svg>
