<svg width="13" height="14" viewBox="0 0 13 14" fill="none" xmlns="http://www.w3.org/2000/svg">
<path d="M5.82031 1.28125C6.19531 0.929688 6.78125 0.929688 7.15625 1.28125L12.2188 6.34375C12.5703 6.71875 12.5703 7.30469 12.2188 7.67969L7.15625 12.7422C6.78125 13.0938 6.19531 13.0938 5.82031 12.7422L0.757812 7.67969C0.40625 7.30469 0.40625 6.71875 0.757812 6.34375L5.82031 1.28125ZM6.5 4C6.17188 4 5.9375 4.25781 5.9375 4.5625V7.1875C5.9375 7.51562 6.17188 7.75 6.5 7.75C6.80469 7.75 7.0625 7.51562 7.0625 7.1875V4.5625C7.0625 4.25781 6.80469 4 6.5 4ZM7.25 9.25C7.25 8.85156 6.89844 8.5 6.5 8.5C6.07812 8.5 5.75 8.85156 5.75 9.25C5.75 9.67188 6.07812 10 6.5 10C6.89844 10 7.25 9.67188 7.25 9.25Z" fill="#B9C4FF"/>
</svg>
