<svg width="34" height="37" viewBox="0 0 34 37" fill="none" xmlns="http://www.w3.org/2000/svg">
<path d="M17.7913 0.687999C17.8279 0.714693 18.4767 0.314278 18.5174 0.842005C18.7919 0.529886 19.0156 0.585328 19.3878 0.677732C19.459 0.696213 19.5302 0.776296 19.5769 0.784509C19.6461 0.794777 19.7274 0.677732 19.821 0.655144C20.1301 0.581221 20.1993 0.823524 20.4006 0.842005C20.6019 0.860486 21.0392 0.749601 21.2731 0.739334C21.6188 0.72496 21.9686 0.798883 22.3062 0.823524C22.5381 0.839952 22.9733 0.813257 23.1726 0.844058C23.3007 0.864593 23.378 0.981637 23.4675 0.985744C23.5834 0.991904 23.7217 0.858432 23.9047 0.889233C24.1101 0.924142 24.1549 1.15412 24.1264 1.33277C24.4132 1.13564 24.6369 1.44776 24.7345 1.46214C24.8382 1.47651 24.9826 1.36152 25.2022 1.40259C25.5276 1.46419 25.4768 1.66132 25.5541 1.71471C25.5663 1.72292 25.8083 1.81122 25.8205 1.81327C25.9018 1.82764 26.0056 1.649 26.215 1.70649C26.5343 1.79684 26.4652 2.10485 26.5262 2.15824C26.5547 2.18288 26.8455 2.19931 26.9431 2.2527C27.0407 2.30609 27.0733 2.43956 27.1343 2.45599C27.2075 2.47652 27.3092 2.38823 27.4088 2.41697C27.4312 2.42313 27.7607 2.56893 27.8217 2.59562C28.1023 2.72088 28.0495 2.94059 28.141 3.08639C28.2142 3.20548 28.5803 3.15826 28.5742 3.43752C28.6779 3.50528 29.0297 3.28146 29.2494 3.47038C29.4222 3.61822 29.3002 3.87695 29.3592 3.97551C29.3714 3.9981 29.4446 4.00426 29.471 4.03506C29.5097 4.07819 29.5341 4.15416 29.5565 4.17059C29.6378 4.22398 29.9713 4.25683 30.0669 4.34308C30.2195 4.48271 30.1117 4.72707 30.134 4.76608C30.1422 4.78251 30.2398 4.80304 30.2784 4.84411C30.3211 4.89134 30.37 5.00222 30.3822 5.01044C30.496 5.07615 30.7604 4.92214 30.9109 5.19114C30.9902 5.33488 30.974 5.46835 30.9089 5.61209C31.34 5.58128 31.2241 6.02893 31.3441 6.18294C31.4031 6.25891 31.6044 6.26713 31.6654 6.4006C31.7346 6.55871 31.6512 6.66343 31.6654 6.77021C31.6715 6.82565 32.0701 7.71478 32.1088 7.77639C32.1678 7.86879 32.3162 7.89959 32.3508 7.97557C32.5379 8.37187 32.664 8.86264 32.8389 9.25484C32.8653 9.31645 32.9731 9.35135 32.9996 9.4376C33.0565 9.62241 32.9711 10.1522 32.9853 10.3452C33.0036 10.5772 33.2578 10.8278 33.2578 11.0044C33.2578 11.1276 33.1663 11.2035 33.1582 11.3021C33.1399 11.5526 33.2111 12.2159 33.264 12.4705C33.3046 12.6594 33.4917 12.8853 33.4999 13.1235C33.508 13.3617 33.1582 13.8873 33.1582 14.0085C33.1582 14.0947 33.2538 14.1851 33.2578 14.3062C33.266 14.5855 33.1968 14.4007 33.2822 14.7703C33.3575 15.0906 33.144 15.144 33.1196 15.298C33.1094 15.3638 33.1623 15.4541 33.1582 15.5362C33.146 15.758 33.0057 15.7888 32.9202 15.9408C32.8592 16.0475 32.7535 16.3391 32.7209 16.3802C32.664 16.448 32.5481 16.4356 32.5298 16.4562C32.5115 16.4767 32.4484 16.951 32.4118 17.0517C32.1983 17.6307 32.0295 17.489 31.9888 18.2447C31.9685 18.6246 31.6695 18.4993 31.5719 18.6164C31.4092 18.8094 31.5271 19.1133 31.4539 19.2221C31.4112 19.2858 31.3075 19.2776 31.2567 19.3289C31.1956 19.3905 31.1956 19.5034 31.1143 19.5794C31.0411 19.6451 30.9313 19.6472 30.8641 19.7211C30.7381 19.8587 30.7238 20.2139 30.6608 20.2776C30.6181 20.3227 30.4452 20.3433 30.3618 20.3946C30.1117 20.5486 29.6948 20.8484 29.5748 21.1277C29.5178 21.2632 29.5951 21.4193 29.4304 21.524C29.2656 21.6287 29.1721 21.5035 29.0643 21.5445C28.7348 21.6718 28.8711 21.9552 28.7552 22.0969C28.6616 22.2119 28.2508 22.3104 28.1166 22.4131C28.0373 22.4727 28.0007 22.5979 27.9396 22.6287C27.8176 22.6903 27.6346 22.6349 27.5024 22.6554C27.5004 23.1092 27.3072 22.9799 27.0468 23.0579C26.9553 23.0846 26.7845 23.2735 26.6198 23.2735C26.5709 23.6349 26.9045 23.5117 26.9879 23.6883C27.0712 23.8649 26.9492 24.0148 26.9736 24.1441C27.0367 24.4665 27.4109 24.7396 27.537 25.0045C27.602 25.1442 27.5715 25.2858 27.6224 25.4091C27.6692 25.5261 27.8888 25.7417 27.9478 25.869C28.0108 26.0045 28.0068 26.1852 28.0901 26.3187C28.1288 26.3783 28.2183 26.3885 28.2467 26.4583C28.2976 26.5836 28.2508 26.7643 28.2894 26.83C28.3098 26.867 28.5823 27.0128 28.6576 27.1709C28.7613 27.3865 28.686 28.0744 28.9138 28.1935C28.9809 28.2284 29.0907 28.2202 29.1863 28.2654C29.5483 28.4317 29.2189 28.8814 29.2595 28.9512C29.3633 29.0436 29.7741 29.2633 29.8127 29.3516C29.8941 29.5303 29.7781 29.6822 29.7964 29.7643C29.8107 29.8239 30.3333 30.1401 30.0344 30.4091C30.5306 30.5672 30.3333 30.8917 30.431 31.1894C30.4635 31.29 30.6486 31.3188 30.7014 31.3845C30.8113 31.5159 30.7401 31.8362 30.7665 31.8609C30.7747 31.8691 30.8947 31.8609 30.9557 31.8896C31.2445 32.0272 31.0065 32.3229 31.0553 32.518C31.0675 32.5631 31.1814 32.5898 31.2302 32.6473C31.4987 32.9677 31.4661 33.1833 31.5841 33.5221C31.6593 33.7398 31.9237 33.9841 31.9664 34.1258C31.9786 34.1669 32.0803 34.5734 32.0844 34.6001C32.1007 34.7582 31.9929 34.8363 31.9908 34.9389C31.9908 35.0704 32.0925 35.1053 32.0478 35.2942C31.9908 35.5324 31.8627 35.442 31.757 35.5201C31.7285 35.5406 31.4885 35.7377 31.4763 35.7521C31.3787 35.8671 31.3746 36.1402 31.1102 36.2223C30.8804 36.2942 30.7909 36.1032 30.7421 36.1032C30.7157 36.1032 30.612 36.2408 30.5265 36.2696C30.1523 36.3928 30.0913 36.1135 30.012 36.1073C29.9774 36.1053 29.9103 36.171 29.8534 36.1833C29.5382 36.2429 29.6907 36.2285 29.5097 36.3271C29.0826 36.557 29.0033 36.1032 28.5965 36.1443C28.4521 36.1587 28.3871 36.403 28.0617 36.3414C27.8929 36.3086 27.7953 36.0519 27.4251 36.0416C27.1099 36.0334 26.998 36.2367 26.8862 36.2449C26.7804 36.2531 26.7214 36.1464 26.6523 36.1525C26.5913 36.1587 26.516 36.2429 26.4001 36.247C25.9568 36.2634 25.9181 36.2018 25.4626 36.3291C25.007 36.4564 25.0294 36.0991 24.9541 36.0519C24.9358 36.0416 24.5677 36.0108 24.5433 36.0149C24.462 36.0273 24.4274 36.1977 24.2525 36.1977C24.0878 36.1977 23.8498 35.9533 23.5203 35.9903C23.4166 36.0026 23.4309 36.1299 23.3048 36.171C23.1624 36.2182 23.077 36.1546 22.9834 36.1669C22.9346 36.173 22.8797 36.2388 22.7902 36.2449C22.5401 36.2634 22.1964 36.0252 22.111 36.0396C22.0764 36.0457 22.0744 36.1402 21.9991 36.1813C21.69 36.3455 21.4114 36.3537 21.2771 35.9965C21.0311 36.3188 20.8582 36.2059 20.5938 35.9965C20.5328 36.1053 20.4291 36.2203 20.2969 36.2429C20.2542 36.249 19.6969 36.2162 19.6644 36.2018C19.4997 36.1299 19.5403 35.9985 19.4448 35.9266C19.3492 35.8548 19.2048 35.8856 19.0766 35.7562C18.9404 35.6166 18.9567 35.3969 18.8977 35.3229C18.857 35.2737 18.6394 35.2326 18.5397 35.1176C18.4116 34.9697 18.2916 34.6556 18.1696 34.5057C18.0984 34.4194 17.9459 34.3599 17.9093 34.2757C17.8645 34.1751 17.893 34.0478 17.8523 33.943C17.8178 33.8588 17.6551 33.8404 17.6103 33.6864C17.5534 33.4872 17.7202 33.3886 17.5351 33.1258C17.4619 33.0231 17.3602 32.9985 17.3032 32.9163C17.1893 32.7521 17.0938 32.4379 17.0083 32.2921C16.8558 32.0334 16.1705 31.9471 16.567 31.3722C16.1745 31.3167 16.2904 31.0806 16.2132 30.867C16.1643 30.7274 15.9793 30.4995 15.9447 30.3496C15.9 30.1483 16.0078 29.9492 15.782 29.8239C15.662 29.7582 15.5095 29.8034 15.4302 29.635C15.357 29.4789 15.4505 29.407 15.4322 29.29C15.4159 29.1873 15.2675 29.0415 15.2268 28.9553C15.1821 28.8588 15.2268 28.7356 15.1251 28.6637C14.8831 28.8198 15.0783 28.9758 15.0865 29.1381C15.0946 29.2695 14.9787 29.3598 14.9746 29.4276C14.9685 29.5015 15.0519 29.5754 15.0316 29.7007C15.0031 29.8917 14.8424 29.9615 14.7102 30.0683C15.3305 30.0641 14.938 30.4338 14.9583 30.5529C14.9665 30.6042 15.0824 30.6473 15.1007 30.7582C15.1231 30.8978 15.0356 31.0457 15.0478 31.1976C15.056 31.3208 15.1455 31.4091 15.1495 31.4974C15.1597 31.6617 14.9482 31.7644 14.8567 31.8876C15.1373 32.1011 15.1231 32.3229 14.8038 32.4831C14.7895 32.6309 14.938 32.6658 14.9889 32.787C15.0743 32.9903 14.9889 33.1237 15.0031 33.2654C15.0112 33.3517 15.1027 33.4092 15.1048 33.5632C15.1068 33.8116 14.9156 33.826 14.7529 33.9636C14.7326 34.0991 14.9705 34.2736 14.9909 34.4112C15.0011 34.4769 14.8607 35.2449 14.8262 35.3086C14.7672 35.4153 14.6513 35.4277 14.6065 35.4954C14.5618 35.5632 14.576 35.6741 14.4886 35.7583C14.395 35.8486 14.2526 35.8363 14.1428 35.902C14.0411 35.9636 13.8296 36.2264 13.73 36.2716C13.6161 36.3229 13.492 36.2778 13.3761 36.3086C13.2419 36.3435 13.189 36.5098 12.9755 36.4995C12.6785 36.4831 12.6684 36.1772 12.5809 36.1566C12.5321 36.1464 12.4284 36.208 12.343 36.1997C12.0949 36.1772 11.6617 36.0889 11.4237 36.1464C11.3546 36.1628 11.2753 36.4975 10.9743 36.4975C10.7302 36.4975 10.7079 36.3127 10.6265 36.3004C10.5675 36.2901 10.4618 36.4482 10.2523 36.3846C10.0977 36.3373 10.0876 36.0724 9.84352 36.0622C9.69709 36.056 9.64218 36.21 9.54863 36.2388C9.39203 36.2839 9.06256 36.1854 8.93241 36.1956C8.89783 36.1977 8.9019 36.288 8.84292 36.3127C8.72497 36.362 8.29178 36.3209 8.15552 36.288C8.0701 36.2675 7.96842 36.1566 7.95012 36.1587C7.91961 36.1587 7.86266 36.2675 7.79352 36.2901C7.53117 36.3722 7.41931 36.1361 7.26882 36.1484C7.14679 36.1587 7.10408 36.3147 7.01257 36.3414C6.90274 36.3722 6.81936 36.3045 6.73598 36.3127C6.66683 36.3188 6.59565 36.3948 6.48583 36.401C6.19704 36.4174 6.06078 36.0889 5.85537 36.1012C5.77606 36.1053 5.69674 36.1833 5.60522 36.1977C5.4832 36.2162 5.34694 36.1772 5.22695 36.21C5.1395 36.2347 5.08052 36.3702 4.91782 36.3804C4.6209 36.401 4.28737 36.2511 4.14297 36.2511C4.04739 36.2511 3.95587 36.362 3.80131 36.3517C3.66505 36.3414 3.54912 36.1915 3.36812 36.2449C3.30711 36.2634 3.37422 36.594 2.94714 36.4708C2.87189 36.4503 2.79461 36.364 2.71936 36.3558C2.62784 36.3435 2.54243 36.4133 2.44684 36.3887C2.36346 36.3661 2.31058 36.2223 2.23533 36.21C2.17839 36.1997 2.08077 36.2552 1.99739 36.2511C1.7208 36.2388 1.75537 36.0786 1.63132 35.9266C1.57641 35.8609 1.46862 35.8445 1.42184 35.7439C1.34863 35.5858 1.41778 35.4297 1.38727 35.2983C1.37507 35.247 1.21237 35.2141 1.16763 35.1155C1.13305 35.0375 1.15746 34.9266 1.11882 34.8691C1.08018 34.8116 0.935781 34.8281 0.854432 34.6925C0.813758 34.6248 0.653093 33.904 0.651059 33.8096C0.644958 33.6515 0.742577 33.5734 0.744611 33.4687C0.746645 33.364 0.683599 33.2695 0.701903 33.1258C0.744611 32.7972 0.720206 32.9595 0.697835 32.6822C0.685633 32.5365 0.677498 32.1709 0.701903 32.0416C0.728341 31.8999 0.884938 31.8691 0.897141 31.7438C0.907309 31.635 0.819859 31.5385 0.813758 31.444C0.80969 31.3742 0.848331 31.2921 0.848331 31.2058C0.848331 31.0272 0.740543 30.9471 0.941883 30.7602C0.400911 30.481 0.819859 30.2223 0.795454 29.8793C0.771049 29.5364 0.411079 29.0395 0.590047 28.6309C0.620553 28.559 0.726307 28.4974 0.736476 28.4399C0.748678 28.3721 0.683599 28.2962 0.718172 28.1729C0.748678 28.0662 0.927646 27.9532 0.935781 27.8465C0.939849 27.8013 0.612418 27.3577 0.598182 27.1647C0.577845 26.8813 0.740543 26.83 0.785285 26.6616C0.79342 26.6288 0.785285 26.0374 0.777151 25.982C0.769016 25.9265 0.667329 25.867 0.638857 25.7992C0.527002 25.5446 0.734442 25.3433 0.750712 25.0969C0.762914 24.9327 0.70597 24.8074 0.695801 24.6554C0.6897 24.5528 0.752746 24.4111 0.742577 24.3639C0.728341 24.3002 0.535137 24.3064 0.551407 24.0168C0.567676 23.7068 0.764948 23.7827 0.823926 23.6986C0.935781 23.5404 0.734442 23.3022 0.744611 23.1298C0.905275 22.7109 0.758847 22.2714 0.659194 21.8484C0.655127 21.6205 0.840196 21.6842 0.899174 21.5959C1.05577 21.3597 0.762914 21.101 0.750712 20.9121C0.736476 20.7006 0.8585 20.2694 0.844264 20.0312C0.838162 19.9182 0.724274 19.8135 0.701903 19.6821C0.653093 19.3802 0.797488 19.1831 0.79342 19.0455C0.791387 18.9613 0.669363 18.8587 0.663262 18.7416C0.655127 18.6123 0.805623 18.1995 0.819859 18.0599C0.838162 17.8874 0.655127 17.5075 0.655127 17.2673C0.655127 17.1256 0.756813 16.8751 0.748678 16.7847C0.746645 16.756 0.486327 16.6944 0.500563 16.3884C0.510732 16.1399 0.779184 16.0147 0.783252 15.9449C0.785285 15.9079 0.70597 15.8217 0.697835 15.7436C0.687666 15.6492 0.734442 15.5547 0.726307 15.4993C0.718172 15.4438 0.600216 15.372 0.571744 15.2816C0.486327 15.0208 0.649026 14.8894 0.844264 14.7621C0.677498 14.6676 0.604283 14.6266 0.596149 14.4192C0.581912 14.066 0.817825 14.1194 0.84223 14.0188C0.854432 13.9654 0.744611 13.8442 0.744611 13.7292C0.744611 13.6142 0.848331 13.5116 0.836129 13.4418C0.823926 13.3699 0.708004 13.3062 0.695801 13.1378C0.679531 12.914 0.811724 12.7046 0.797488 12.452C0.787319 12.261 0.644958 12.0454 0.646992 11.9079C0.649026 11.7703 0.781218 11.6922 0.789353 11.606C0.795454 11.53 0.693768 11.4664 0.671397 11.3945C0.632756 11.2651 0.628688 10.8216 0.659194 10.6881C0.681565 10.5957 0.777151 10.5259 0.787319 10.4725C0.799522 10.4006 0.716139 10.3411 0.708004 10.2733C0.6897 10.1399 0.795454 9.8914 0.783252 9.74766C0.777151 9.68606 0.70597 9.62651 0.703936 9.54643C0.701903 9.44992 0.803589 9.33493 0.787319 9.2569C0.766982 9.14807 0.577845 9.15833 0.598182 8.85648C0.616486 8.59775 0.754779 8.63677 0.834095 8.50124C1.009 8.20144 0.714105 8.04538 0.718172 7.82156C0.72224 7.52998 0.783252 7.20759 0.789353 6.88726C0.791387 6.79485 0.854432 6.65933 0.838162 6.59978C0.807656 6.49095 0.592081 6.53612 0.594115 6.24659C0.594115 6.03714 0.720206 6.02072 0.734442 5.94679C0.762914 5.79484 0.598182 5.62851 0.891039 5.46013C0.65716 5.27533 0.669363 4.90571 0.701903 4.6285C0.748678 4.22398 0.852399 3.81124 0.848331 3.39029C0.846297 3.18495 0.6897 3.11924 0.691734 2.89747C0.691734 2.64901 0.846297 2.66749 0.882904 2.54429C0.943916 2.33689 0.893073 2.21779 1.03747 1.97549C1.06594 1.92826 1.14729 1.91389 1.17983 1.8605C1.23474 1.76809 1.2266 1.6531 1.27338 1.55865C1.3954 1.30402 1.54793 1.4416 1.73707 1.38821C1.81232 1.36563 2.14382 1.05761 2.27398 0.993958C2.36143 0.950836 3.04069 0.71264 3.11391 0.70648C3.24 0.696213 3.35999 0.753708 3.44947 0.743441C3.54912 0.733174 3.61624 0.642824 3.79724 0.655144C3.89689 0.661305 4.00265 0.743441 4.04129 0.741388C4.08603 0.739334 4.14704 0.651037 4.21009 0.632557C4.55785 0.529886 4.68598 0.807097 4.72462 0.807097C4.76123 0.807097 4.84258 0.579168 5.1151 0.605862C5.27576 0.62229 5.3022 0.745495 5.40999 0.759869C5.55642 0.780403 5.68047 0.663358 5.87368 0.729067C5.99163 0.770136 6.00384 0.89334 6.05061 0.905661C6.09739 0.917981 6.56515 0.920035 6.61599 0.905661C6.66683 0.891287 6.66276 0.788616 6.72988 0.763975C6.98816 0.669518 7.11425 0.950836 7.21187 0.942622C7.39084 0.813257 7.50269 0.566848 7.74878 0.55658C7.90334 0.55042 7.97655 0.64077 8.09248 0.655144C8.24907 0.673625 8.40974 0.636664 8.56634 0.669518C8.68226 0.694159 8.79818 0.821471 8.86936 0.831738C9.04223 0.856379 9.20899 0.683892 9.35542 0.704426C9.51405 0.727014 9.50999 0.899501 9.56083 0.907714C9.65438 0.922088 9.752 0.813257 9.84962 0.807097C9.92487 0.80299 9.99401 0.858432 10.0794 0.844058C10.3133 0.805044 10.5492 0.552474 10.7262 0.554527C10.9031 0.55658 11.0922 0.700319 11.3322 0.681839C11.4502 0.673625 11.5091 0.575061 11.6983 0.609969C11.8284 0.63461 11.8549 0.755762 11.9159 0.780403C12.0257 0.823524 12.3938 0.749601 12.526 0.755762C12.6806 0.763975 12.8046 0.88102 12.8697 0.885127C12.9348 0.889234 13.0304 0.815311 13.1178 0.811204C13.6303 0.784509 14.1896 0.946729 14.6696 0.89334C14.8668 0.870753 14.9807 0.521672 15.2614 0.905661C15.4627 0.612023 15.7759 0.831738 16.0464 0.852272C16.1216 0.858432 16.1969 0.813257 16.2803 0.811204C16.3535 0.811204 16.4389 0.870753 16.5284 0.858432C16.6687 0.839952 16.6891 0.612023 16.8314 0.568901C16.9839 0.523726 17.1019 0.607916 17.2036 0.593542C17.3419 0.573008 17.4192 0.427215 17.6652 0.546313C17.7568 0.591489 17.7608 0.687999 17.7791 0.702373L17.7913 0.687999ZM18.9424 6.56692C18.8448 6.47657 18.674 6.48273 18.5723 6.42319C18.4706 6.36364 18.1106 6.14392 18.0333 6.08026C17.8442 5.9201 17.7893 5.68601 17.4476 5.63673C17.3215 5.61825 17.2544 5.69833 17.1771 5.69628C17.11 5.69422 17.045 5.61003 16.9372 5.61619C16.7196 5.63057 16.5345 5.75377 16.1989 5.71681C16.0505 5.70038 15.9406 5.6203 15.8573 5.61619C15.7495 5.61003 15.6824 5.69422 15.6173 5.69628C15.5522 5.69833 15.4708 5.62646 15.3814 5.63057C15.0478 5.64494 14.94 5.93037 14.7611 6.08026C14.6858 6.14392 14.3279 6.36364 14.2221 6.42319C14.1164 6.48273 13.9496 6.47657 13.852 6.56692C13.6873 6.71888 13.6629 7.10287 13.5652 7.28767C13.4432 7.52176 13.1829 7.50328 13.2012 7.9037C13.2154 8.19734 13.2826 8.44375 13.1809 8.77024C13.1239 8.95505 12.9165 8.97558 13.0182 9.32261C13.069 9.4992 13.2866 9.49304 13.2988 9.50741C13.3192 9.53 13.2561 9.67169 13.2724 9.75382C13.3049 9.91399 13.5185 10.0926 13.5795 10.2343C13.7564 10.6491 13.8662 11.1851 14.2303 11.4992C14.2893 11.5506 14.4092 11.5649 14.4458 11.6265C14.4682 11.6635 14.5231 11.9448 14.5191 11.9941C14.5089 12.1152 14.334 12.2426 14.2974 12.3617C14.2364 12.567 14.2282 12.8771 14.1449 13.0906C14.1184 13.1563 13.9008 13.3042 13.8581 13.4438C13.7768 13.7066 13.7137 14.0763 13.6324 14.3473C13.6018 14.4479 13.4453 14.5116 13.3944 14.6512C13.3476 14.7785 13.4127 14.949 13.3985 14.9695C13.3903 14.9798 13.2724 14.988 13.2175 15.0352C13.1016 15.1358 13.0832 15.3145 13.1422 15.452C13.2093 15.6081 13.37 15.565 13.3497 15.7108C13.071 15.7272 12.945 16.0044 13.0568 16.2529C12.6684 16.1933 12.5545 16.9059 12.6277 17.1543C12.6765 17.3165 13.0588 17.4726 13.128 17.6328C13.1829 17.7621 13.1239 17.9449 13.25 18.0517C13.4981 18.0701 13.7198 18.14 13.9476 18.2344C14.0208 18.2652 14.0574 18.3556 14.155 18.372C14.3259 18.4007 14.4174 18.2899 14.4947 18.2899C14.5719 18.2899 14.6553 18.3946 14.8323 18.3699C14.9238 18.3576 15.0072 18.2714 15.0824 18.2734C15.1739 18.2734 15.2309 18.3966 15.3122 18.4336C15.6051 18.565 15.7088 18.3145 15.961 18.2262C16.0871 18.565 16.7135 18.5814 16.8172 18.2262C17.0694 18.2878 17.1609 18.5445 17.4497 18.45C17.5514 18.4172 17.6205 18.2775 17.7141 18.2755C17.7873 18.2755 17.8727 18.3597 17.9642 18.372C18.1391 18.3966 18.2245 18.2919 18.3018 18.2919C18.3791 18.2919 18.4706 18.4028 18.6414 18.3741C18.739 18.3576 18.7757 18.2673 18.8489 18.2365C19.0766 18.142 19.2983 18.0722 19.5464 18.0537C19.6725 17.9469 19.6136 17.7662 19.6685 17.6348C19.7335 17.4808 20.0955 17.3268 20.1545 17.1892C20.2542 16.9531 20.1383 16.1892 19.7417 16.2549C19.8535 16.0065 19.7295 15.7293 19.4488 15.7128C19.4366 15.5588 19.6156 15.604 19.6725 15.4192C19.7966 15.0188 19.4488 15.0352 19.4041 14.9695C19.3878 14.9469 19.4549 14.7806 19.4061 14.6512C19.3553 14.5095 19.1966 14.4459 19.1682 14.3473C19.1072 14.142 19.0075 13.9305 18.9729 13.8052C18.9404 13.6943 18.9811 13.567 18.9424 13.4438C18.9018 13.3103 18.7065 13.183 18.674 13.1132C18.5764 12.9058 18.5825 12.6245 18.5296 12.4376C18.4848 12.2795 18.2916 12.107 18.2815 11.9941C18.2388 11.5341 18.5804 11.5814 18.7696 11.3062C18.9872 10.9879 19.0807 10.5382 19.2373 10.2035C19.2983 10.0721 19.4753 9.953 19.52 9.79489C19.5464 9.69633 19.4875 9.53 19.5037 9.51152C19.5241 9.48893 19.7498 9.51152 19.7946 9.28565C19.8617 8.93656 19.6481 8.93246 19.6034 8.69426C19.5851 8.59775 19.5525 8.30206 19.5505 8.20144C19.5464 8.03922 19.6339 7.91396 19.5912 7.723C19.5485 7.53203 19.3146 7.43552 19.2393 7.28973C19.1417 7.10492 19.1173 6.72298 18.9526 6.56898L18.9424 6.56692Z" fill="url(#paint0_linear_2592_20886)"/>
<defs>
<linearGradient id="paint0_linear_2592_20886" x1="0.5" y1="2.36585" x2="38.4231" y2="9.20631" gradientUnits="userSpaceOnUse">
<stop stop-color="#9FABF7"/>
<stop offset="1" stop-color="#85BFB3"/>
</linearGradient>
</defs>
</svg>
