<svg width="24" height="24" viewBox="0 0 24 24" fill="none" xmlns="http://www.w3.org/2000/svg">
<path d="M2.20312 14.1094C0.796875 12.7969 0 10.9219 0 8.95312V8.71875C0 5.4375 2.34375 2.625 5.57812 2.10938C7.73438 1.73438 9.89062 2.4375 11.4375 3.9375L12 4.5L12.5625 3.9375C14.0625 2.4375 16.2656 1.73438 18.375 2.10938C21.6094 2.625 24 5.4375 24 8.71875V8.95312C24 10.9219 23.1562 12.7969 21.75 14.1094L13.2656 22.0312C12.9375 22.3594 12.4688 22.5 12 22.5C11.4844 22.5 11.0156 22.3594 10.6875 22.0312L2.20312 14.1094Z" fill="#718FF2"/>
</svg>
