<svg width="24" height="24" viewBox="0 0 24 24" fill="#8DA3FF" xmlns="http://www.w3.org/2000/svg">
<path d="M10.5469 21.9844L10.4531 21.8438L2.25 14.25C0.796875 12.8906 0 11.0156 0 9.04688V8.90625C0 5.625 2.34375 2.76562 5.57812 2.15625C7.40625 1.78125 9.28125 2.20312 10.8281 3.28125C11.25 3.5625 11.625 3.9375 12 4.3125C12.1875 4.125 12.375 3.89062 12.6094 3.70312C12.7969 3.5625 12.9844 3.42188 13.1719 3.28125C14.6719 2.20312 16.5469 1.78125 18.375 2.15625C21.6562 2.76562 24 5.625 24 8.90625V9.04688C24 11.0156 23.1562 12.8906 21.7031 14.25L13.5 21.8438L13.4062 21.9844C13.0312 22.3125 12.5156 22.5469 12 22.5469C11.4375 22.5469 10.9688 22.3125 10.5469 21.9844ZM11.2031 6.79688C11.1562 6.79688 11.1562 6.79688 11.1562 6.75L10.3125 5.8125C9.23438 4.59375 7.59375 4.07812 6 4.35938C3.79688 4.78125 2.25 6.70312 2.25 8.90625V9.04688C2.25 10.4062 2.76562 11.6719 3.75 12.5625L12 20.2031L20.2031 12.5625C21.1875 11.6719 21.75 10.4062 21.75 9.04688V8.90625C21.75 6.70312 20.1562 4.78125 17.9531 4.35938C16.3594 4.07812 14.7188 4.59375 13.6406 5.8125L12.7969 6.75C12.7969 6.79688 12.7969 6.79688 12.75 6.84375C12.5625 7.03125 12.2812 7.17188 12 7.17188C11.6719 7.17188 11.3906 7.03125 11.2031 6.84375V6.79688Z"/>
</svg>
