<svg width="15" height="15" viewBox="0 0 15 15" fill="none" xmlns="http://www.w3.org/2000/svg">
<path d="M11.8125 1.5H12H12.75V2.25V5.71875C13.1719 5.92969 13.5 6.49219 13.5 7.125C13.5 7.78125 13.1719 8.34375 12.75 8.55469V12V12.75H12H11.8125H11.4844L11.25 12.5156L10.4531 11.6484C9.30469 10.4531 7.73438 9.75 6.07031 9.75H6V13.5H3V9.75H1.5V4.5H5.25H6H6.07031C7.73438 4.5 9.30469 3.82031 10.4531 2.625L11.25 1.75781L11.4844 1.5H11.8125ZM11.25 3.9375C9.84375 5.27344 7.99219 6 6.07031 6H6V8.25H6.07031C7.99219 8.25 9.84375 9 11.25 10.3359V7.125V3.9375Z" fill="#E8EAFF"/>
</svg>
