<svg width="18" height="18" viewBox="0 0 18 18" fill="none" xmlns="http://www.w3.org/2000/svg">
<path d="M9 6.50008C8.33696 6.50008 7.70108 6.76347 7.23224 7.23231C6.7634 7.70115 6.5 8.33704 6.5 9.00008C6.5 9.66312 6.7634 10.299 7.23224 10.7678C7.70108 11.2367 8.33696 11.5001 9 11.5001C9.66304 11.5001 10.2989 11.2367 10.7678 10.7678C11.2366 10.299 11.5 9.66312 11.5 9.00008C11.5 8.33704 11.2366 7.70115 10.7678 7.23231C10.2989 6.76347 9.66304 6.50008 9 6.50008ZM9 4.83341C10.1051 4.83341 11.1649 5.2724 11.9463 6.0538C12.7277 6.8352 13.1667 7.89501 13.1667 9.00008C13.1667 10.1051 12.7277 11.165 11.9463 11.9464C11.1649 12.7278 10.1051 13.1667 9 13.1667C7.89494 13.1667 6.83513 12.7278 6.05373 11.9464C5.27232 11.165 4.83334 10.1051 4.83334 9.00008C4.83334 7.89501 5.27232 6.8352 6.05373 6.0538C6.83513 5.2724 7.89494 4.83341 9 4.83341ZM14.4167 4.62508C14.4167 4.90135 14.3069 5.1663 14.1116 5.36165C13.9162 5.557 13.6513 5.66675 13.375 5.66675C13.0987 5.66675 12.8338 5.557 12.6384 5.36165C12.4431 5.1663 12.3333 4.90135 12.3333 4.62508C12.3333 4.34881 12.4431 4.08386 12.6384 3.88851C12.8338 3.69316 13.0987 3.58341 13.375 3.58341C13.6513 3.58341 13.9162 3.69316 14.1116 3.88851C14.3069 4.08386 14.4167 4.34881 14.4167 4.62508ZM9 2.33341C6.93834 2.33341 6.60167 2.33925 5.6425 2.38175C4.98917 2.41258 4.55084 2.50008 4.14417 2.65841C3.80385 2.78336 3.49618 2.98363 3.24417 3.24425C2.98334 3.49625 2.7828 3.8039 2.6575 4.14425C2.49917 4.55258 2.41167 4.99008 2.38167 5.64258C2.33834 6.56258 2.33334 6.88425 2.33334 9.00008C2.33334 11.0617 2.33917 11.3984 2.38167 12.3576C2.4125 13.0101 2.5 13.4492 2.6575 13.8551C2.79917 14.2176 2.96584 14.4784 3.2425 14.7551C3.52334 15.0351 3.78417 15.2026 4.1425 15.3409C4.55417 15.5001 4.9925 15.5884 5.6425 15.6184C6.5625 15.6617 6.88417 15.6667 9 15.6667C11.0617 15.6667 11.3983 15.6609 12.3575 15.6184C13.0092 15.5876 13.4483 15.5001 13.855 15.3426C14.1948 15.217 14.5023 15.0171 14.755 14.7576C15.0358 14.4767 15.2033 14.2159 15.3417 13.8576C15.5 13.4467 15.5883 13.0076 15.6183 12.3576C15.6617 11.4376 15.6667 11.1159 15.6667 9.00008C15.6667 6.93841 15.6608 6.60175 15.6183 5.64258C15.5875 4.99091 15.5 4.55091 15.3417 4.14425C15.2161 3.80425 15.0159 3.49671 14.7558 3.24425C14.5039 2.98329 14.1963 2.78272 13.8558 2.65758C13.4475 2.49925 13.0092 2.41175 12.3575 2.38175C11.4375 2.33841 11.1158 2.33341 9 2.33341ZM9 0.666748C11.2642 0.666748 11.5467 0.675081 12.435 0.716748C13.3225 0.758415 13.9267 0.897581 14.4583 1.10425C15.0083 1.31591 15.4717 1.60258 15.935 2.06508C16.3587 2.48166 16.6866 2.98557 16.8958 3.54175C17.1017 4.07258 17.2417 4.67758 17.2833 5.56508C17.3225 6.45341 17.3333 6.73591 17.3333 9.00008C17.3333 11.2642 17.325 11.5467 17.2833 12.4351C17.2417 13.3226 17.1017 13.9267 16.8958 14.4584C16.6872 15.0149 16.3593 15.5189 15.935 15.9351C15.5183 16.3587 15.0144 16.6865 14.4583 16.8959C13.9275 17.1017 13.3225 17.2417 12.435 17.2834C11.5467 17.3226 11.2642 17.3334 9 17.3334C6.73584 17.3334 6.45334 17.3251 5.565 17.2834C4.6775 17.2417 4.07334 17.1017 3.54167 16.8959C2.98528 16.6871 2.48128 16.3592 2.065 15.9351C1.64118 15.5186 1.31328 15.0146 1.10417 14.4584C0.897505 13.9276 0.758338 13.3226 0.716672 12.4351C0.677505 11.5467 0.666672 11.2642 0.666672 9.00008C0.666672 6.73591 0.675005 6.45341 0.716672 5.56508C0.758338 4.67675 0.897505 4.07341 1.10417 3.54175C1.3127 2.98523 1.64067 2.48118 2.065 2.06508C2.4814 1.64111 2.98536 1.31319 3.54167 1.10425C4.07334 0.897581 4.67667 0.758415 5.565 0.716748C6.45334 0.677581 6.73584 0.666748 9 0.666748Z" fill="#676676"/>
</svg>
