<svg width="20" height="20" viewBox="0 0 20 20" fill="none" xmlns="http://www.w3.org/2000/svg">
<g id="ri:instagram-line">
<path id="Vector" d="M10.0001 7.50002C9.33704 7.50002 8.70115 7.76341 8.23231 8.23225C7.76347 8.70109 7.50008 9.33698 7.50008 10C7.50008 10.6631 7.76347 11.2989 8.23231 11.7678C8.70115 12.2366 9.33704 12.5 10.0001 12.5C10.6631 12.5 11.299 12.2366 11.7678 11.7678C12.2367 11.2989 12.5001 10.6631 12.5001 10C12.5001 9.33698 12.2367 8.70109 11.7678 8.23225C11.299 7.76341 10.6631 7.50002 10.0001 7.50002ZM10.0001 5.83335C11.1051 5.83335 12.165 6.27234 12.9464 7.05374C13.7278 7.83514 14.1667 8.89495 14.1667 10C14.1667 11.1051 13.7278 12.1649 12.9464 12.9463C12.165 13.7277 11.1051 14.1667 10.0001 14.1667C8.89501 14.1667 7.8352 13.7277 7.0538 12.9463C6.2724 12.1649 5.83341 11.1051 5.83341 10C5.83341 8.89495 6.2724 7.83514 7.0538 7.05374C7.8352 6.27234 8.89501 5.83335 10.0001 5.83335ZM15.4167 5.62502C15.4167 5.90129 15.307 6.16624 15.1116 6.36159C14.9163 6.55694 14.6513 6.66669 14.3751 6.66669C14.0988 6.66669 13.8339 6.55694 13.6385 6.36159C13.4432 6.16624 13.3334 5.90129 13.3334 5.62502C13.3334 5.34875 13.4432 5.0838 13.6385 4.88845C13.8339 4.6931 14.0988 4.58335 14.3751 4.58335C14.6513 4.58335 14.9163 4.6931 15.1116 4.88845C15.307 5.0838 15.4167 5.34875 15.4167 5.62502ZM10.0001 3.33335C7.93841 3.33335 7.60175 3.33919 6.64258 3.38169C5.98925 3.41252 5.55091 3.50002 5.14425 3.65835C4.80393 3.7833 4.49626 3.98357 4.24425 4.24419C3.98342 4.49619 3.78288 4.80384 3.65758 5.14419C3.49925 5.55252 3.41175 5.99002 3.38175 6.64252C3.33841 7.56252 3.33341 7.88419 3.33341 10C3.33341 12.0617 3.33925 12.3984 3.38175 13.3575C3.41258 14.01 3.50008 14.4492 3.65758 14.855C3.79925 15.2175 3.96591 15.4784 4.24258 15.755C4.52341 16.035 4.78425 16.2025 5.14258 16.3409C5.55425 16.5 5.99258 16.5884 6.64258 16.6184C7.56258 16.6617 7.88425 16.6667 10.0001 16.6667C12.0617 16.6667 12.3984 16.6609 13.3576 16.6184C14.0092 16.5875 14.4484 16.5 14.8551 16.3425C15.1949 16.2169 15.5024 16.0171 15.7551 15.7575C16.0359 15.4767 16.2034 15.2159 16.3417 14.8575C16.5001 14.4467 16.5884 14.0075 16.6184 13.3575C16.6617 12.4375 16.6667 12.1159 16.6667 10C16.6667 7.93835 16.6609 7.60169 16.6184 6.64252C16.5876 5.99085 16.5001 5.55085 16.3417 5.14419C16.2162 4.80419 16.016 4.49665 15.7559 4.24419C15.504 3.98322 15.1963 3.78266 14.8559 3.65752C14.4476 3.49919 14.0092 3.41169 13.3576 3.38169C12.4376 3.33835 12.1159 3.33335 10.0001 3.33335ZM10.0001 1.66669C12.2642 1.66669 12.5467 1.67502 13.4351 1.71669C14.3226 1.75835 14.9267 1.89752 15.4584 2.10419C16.0084 2.31585 16.4717 2.60252 16.9351 3.06502C17.3588 3.4816 17.6867 3.98551 17.8959 4.54169C18.1017 5.07252 18.2417 5.67752 18.2834 6.56502C18.3226 7.45335 18.3334 7.73585 18.3334 10C18.3334 12.2642 18.3251 12.5467 18.2834 13.435C18.2417 14.3225 18.1017 14.9267 17.8959 15.4584C17.6873 16.0148 17.3593 16.5189 16.9351 16.935C16.5184 17.3586 16.0145 17.6865 15.4584 17.8959C14.9276 18.1017 14.3226 18.2417 13.4351 18.2834C12.5467 18.3225 12.2642 18.3334 10.0001 18.3334C7.73591 18.3334 7.45341 18.325 6.56508 18.2834C5.67758 18.2417 5.07341 18.1017 4.54175 17.8959C3.98535 17.6871 3.48135 17.3591 3.06508 16.935C2.64125 16.5185 2.31336 16.0146 2.10425 15.4584C1.89758 14.9275 1.75841 14.3225 1.71675 13.435C1.67758 12.5467 1.66675 12.2642 1.66675 10C1.66675 7.73585 1.67508 7.45335 1.71675 6.56502C1.75841 5.67669 1.89758 5.07335 2.10425 4.54169C2.31278 3.98517 2.64075 3.48112 3.06508 3.06502C3.48147 2.64105 3.98544 2.31313 4.54175 2.10419C5.07341 1.89752 5.67675 1.75835 6.56508 1.71669C7.45341 1.67752 7.73591 1.66669 10.0001 1.66669Z" fill="#4648A7"/>
</g>
</svg>
