<svg width="16" height="15" viewBox="0 0 16 15" fill="none" xmlns="http://www.w3.org/2000/svg">
<path d="M8 0C3.58491 0 0 2.80143 0 6.25763C0 8.50745 1.51698 10.4792 3.7917 11.5825C3.62566 12.2013 3.18792 13.8248 3.09887 14.1686C2.99019 14.5991 3.25736 14.5947 3.43396 14.4781C3.57132 14.3884 5.62415 13.0056 6.51019 12.4091C7.00327 12.4837 7.50122 12.5222 8 12.5242C12.4151 12.5242 16 9.7228 16 6.26511C16 2.80741 12.4211 0.00747493 8 0.00747493" fill="#676676"/>
<path d="M2.42853 5.10657H3.25117C3.25117 5.10657 3.25117 7.34891 3.25117 7.86614C3.25117 8.24584 4.10702 8.25182 4.10551 7.86614V5.13048H4.92362C5.43532 5.13048 5.43532 4.33371 4.92362 4.33221C4.34853 4.33221 2.42249 4.31726 2.42249 4.31726C1.93947 4.31726 1.94098 5.09909 2.42249 5.09909" fill="white"/>
<path d="M6.36692 5.25158L6.81975 6.67173H5.86428L6.36692 5.25158ZM5.85371 4.58486C5.65145 5.03333 4.92088 7.11272 4.67786 7.66584C4.50126 8.06497 5.25899 8.39086 5.43258 7.99172L5.5971 7.42067H7.10654C7.10654 7.42067 7.05522 7.44459 7.25748 7.9678C7.41899 8.38936 8.20088 8.09636 8.03937 7.66882C7.80843 7.07087 7.00843 4.88981 6.86201 4.58037C6.7956 4.43835 6.56012 4.3367 6.32012 4.3367C6.22751 4.32812 6.13439 4.34663 6.05229 4.38994C5.97019 4.43325 5.90272 4.49946 5.85824 4.58037" fill="white"/>
<path d="M8.32306 4.71638C8.32306 5.42496 8.32306 7.70617 8.32306 7.70617C8.32306 7.70617 8.25815 8.15464 8.6506 8.15464H10.3019C10.6898 8.15464 10.6868 7.34141 10.3019 7.34141C9.91701 7.34141 9.20909 7.34141 9.20909 7.34141C9.20909 7.34141 9.20909 5.22763 9.20909 4.71488C9.20909 4.46673 8.9857 4.34265 8.75626 4.34265C8.52683 4.34265 8.30343 4.46822 8.31098 4.71787" fill="white"/>
<path d="M10.7955 4.6013C10.8045 4.91224 10.7849 7.72264 10.7849 7.93043C10.7849 8.2593 11.6302 8.2593 11.6302 7.93043V6.82421L11.8777 6.62837L12.963 8.09337C13.1819 8.38039 13.8687 7.86166 13.6528 7.57614L12.5011 6.07377C12.5011 6.07377 13.283 5.23663 13.5909 4.93316C13.7706 4.75527 13.2151 4.20066 13.034 4.37706L11.6362 5.76283C11.6362 5.76283 11.6468 5.00043 11.6362 4.57887C11.6362 4.41892 11.434 4.34119 11.2317 4.34119C11.0294 4.34119 10.7925 4.43088 10.797 4.6013" fill="white"/>
</svg>
