<svg width="23" height="24" viewBox="0 0 23 24" fill="#8DA3FF" xmlns="http://www.w3.org/2000/svg">
<path d="M13.8438 15.0625C13.2871 15.0625 12.7598 15.0039 12.2617 14.8281L11.2949 15.7949C11.1484 15.9414 10.9727 16 10.7969 16H9.625V17.1719C9.625 17.582 9.30273 17.875 8.92188 17.875H7.75V19.0469C7.75 19.457 7.42773 19.75 7.04688 19.75H4.70312C4.29297 19.75 4 19.457 4 19.0469V16.7031C4 16.5273 4.05859 16.3516 4.20508 16.2051L8.92188 11.4883C8.74609 10.9902 8.6875 10.4629 8.6875 9.90625C8.6875 7.06445 10.9727 4.75 13.8438 4.75C16.6855 4.75 19 7.06445 19 9.90625C19 12.7773 16.6855 15.0625 13.8438 15.0625ZM15.0156 7.5625C14.5762 7.5625 14.1953 7.79688 13.9902 8.14844C13.7852 8.5293 13.7852 8.96875 13.9902 9.32031C14.1953 9.70117 14.5762 9.90625 15.0156 9.90625C15.4258 9.90625 15.8066 9.70117 16.0117 9.32031C16.2168 8.96875 16.2168 8.5293 16.0117 8.14844C15.8066 7.79688 15.4258 7.5625 15.0156 7.5625Z"/>
</svg>
