<svg width="28" height="27" viewBox="0 0 28 27" fill="none" xmlns="http://www.w3.org/2000/svg">
<path d="M13.4375 4.75C14.0352 4.75 14.5625 5.10156 14.8789 5.59375C15.1953 6.12109 15.1953 6.78906 14.8789 7.28125C14.5625 7.80859 14.0352 8.125 13.4375 8.125C12.8047 8.125 12.2773 7.80859 11.9609 7.28125C11.6445 6.78906 11.6445 6.12109 11.9609 5.59375C12.2773 5.10156 12.8047 4.75 13.4375 4.75ZM9.60547 10.375C9.11328 10.375 8.62109 10.5859 8.26953 10.9375L7.46094 11.7461C7.03906 12.2031 6.30078 12.2031 5.87891 11.7461C5.42188 11.3242 5.42188 10.5859 5.87891 10.1641L6.6875 9.35547C7.46094 8.58203 8.51562 8.125 9.60547 8.125C9.99219 8.125 10.4141 8.19531 10.8008 8.33594L12.5234 8.86328C13.7891 9.25 14.8438 10.1992 15.3359 11.4297L15.582 11.957C15.7578 12.3789 16.1445 12.625 16.6016 12.625H17.3398C17.9727 12.625 18.4648 13.1523 18.4648 13.75C18.4648 14.3828 17.9727 14.875 17.3398 14.875H16.6016C15.2305 14.875 14 14.0664 13.5078 12.8008L13.2969 12.3789L12.2422 15.2617L14.2109 16.5273C14.8438 16.9141 15.1602 17.6875 14.9492 18.4258L13.9297 21.9414C13.7539 22.5391 13.1562 22.8906 12.5586 22.7148C11.9609 22.5391 11.6094 21.9414 11.7852 21.3438L12.6641 18.2148L9.64062 16.3164C8.76172 15.7539 8.375 14.6641 8.69141 13.6797L9.78125 10.4102C9.71094 10.4102 9.67578 10.375 9.60547 10.375ZM7.70703 15.6836C7.95312 16.3164 8.41016 16.8789 9.04297 17.2656L9.35938 17.4766L8.97266 18.3906C8.69141 18.9883 8.09375 19.375 7.42578 19.375H5C4.36719 19.375 3.875 18.8828 3.875 18.25C3.875 17.6523 4.36719 17.125 5 17.125H7.07422L7.70703 15.6836ZM17.375 6.4375C17.375 5.52344 18.1133 4.75 19.0625 4.75H22.4375C23.3516 4.75 24.125 5.52344 24.125 6.4375V21.0625C24.125 22.0117 23.3516 22.75 22.4375 22.75H19.0625C18.1133 22.75 17.375 22.0117 17.375 21.0625V16C18.6055 16 19.625 15.0156 19.625 13.75C19.625 12.5195 18.6055 11.5 17.375 11.5V6.4375Z" fill="#718FF2"/>
</svg>
