<svg width="40" height="40" viewBox="0 0 40 40" fill="none" xmlns="http://www.w3.org/2000/svg">
<g id="Frame 1171276597">
<path id="Vector" d="M27.0199 4.35459C27.4992 4.79376 27.5702 5.90353 27.8542 6.43765C28.079 6.859 28.7535 7.12606 28.8777 7.68985C29.002 8.25364 28.7476 8.60378 28.7594 9.07262C28.7653 9.36341 28.86 10.218 28.9132 10.4969C29.0434 11.1913 29.6647 11.1972 29.4694 12.2061C29.3452 12.8589 28.6884 12.7877 28.6233 12.8589C28.576 12.9064 28.7535 13.393 28.6707 13.6779C28.5464 14.1408 28.0257 14.485 27.8482 14.8589C27.3927 15.8262 27.1205 17.1318 26.4874 18.0458C25.9372 18.841 24.9491 18.6986 25.0674 20.0339C25.097 20.3603 25.6591 20.8588 25.7892 21.3157C25.9431 21.8558 25.9253 22.6748 26.2093 23.2682C26.304 23.47 26.872 23.8379 26.9903 24.2237C27.1027 24.5857 26.9903 24.9477 27.0791 25.2682C27.1797 25.6302 27.4696 26.2355 27.6471 26.8349C27.7358 27.1257 28.1914 27.3097 28.3393 27.7133C28.4754 28.0871 28.2861 28.5619 28.3334 28.6331C28.4695 28.823 29.4812 28.7755 29.1144 29.9328C28.9487 30.461 28.434 30.3364 28.4636 30.7815C29.2742 30.8289 29.641 31.6301 29.3156 32.3482C30.4752 32.1583 30.8066 34.366 30.5167 35.0484C30.351 35.4461 29.2978 35.8912 29.1026 36.3363C28.9428 36.7101 29.1144 37.2383 28.7476 37.5469C28.0257 37.6003 27.3808 37.8021 26.7182 38.0751C26.5052 38.1641 26.3987 38.4252 26.1147 38.4727C25.6177 38.5558 25.3514 38.2353 25.1266 38.2353C24.9017 38.2353 24.6592 38.538 24.1444 38.4668C23.8782 38.4312 23.6356 38.1819 23.4167 38.1879C23.1445 38.1879 22.9433 38.5973 22.6475 38.6923C21.8073 38.9653 21.5411 38.2294 20.8074 38.0454C20.5057 39.0781 18.6833 39.0246 18.3165 38.0454C17.5828 38.2947 17.2811 39.0246 16.4291 38.6448C16.1924 38.538 16.0208 38.1879 15.7605 38.1819C15.5475 38.1819 15.299 38.4252 15.0327 38.4608C14.5239 38.5321 14.2754 38.2294 14.0506 38.2294C13.8257 38.2294 13.5595 38.5499 13.0625 38.4668C12.7785 38.4193 12.672 38.1582 12.459 38.0692C11.7963 37.7962 11.1514 37.5944 10.4296 37.541C10.0627 37.2324 10.2343 36.7101 10.0746 36.3303C9.87341 35.8674 8.75516 35.4164 8.61907 34.9476C8.40607 34.2295 8.73741 32.1702 9.86749 32.3423C9.54208 31.6242 9.90299 30.823 10.7195 30.7755C10.7787 30.3542 10.3172 30.4788 10.116 30.0278C9.93849 29.6301 9.99766 29.1138 10.3349 28.823C10.4947 28.6865 10.8378 28.6628 10.8615 28.6331C10.9029 28.5738 10.7136 28.0812 10.8497 27.7133C10.9976 27.3038 11.4591 27.1198 11.5419 26.8349C11.7786 26.0516 11.962 24.9833 12.1987 24.2237C12.3229 23.8261 12.956 23.3929 13.0329 23.2029C13.2814 22.5798 13.2992 21.6837 13.4767 21.0962C13.5832 20.7519 14.0861 20.3781 14.1216 20.0339C14.1334 19.8914 13.9737 19.0784 13.9086 18.9716C13.7962 18.7935 13.453 18.752 13.2814 18.6036C12.2282 17.6956 11.9028 16.1467 11.3881 14.9479C11.2106 14.5384 10.5893 14.0221 10.4947 13.5592C10.4473 13.3218 10.6307 12.9123 10.5716 12.847C10.5361 12.8114 9.90299 12.8233 9.75508 12.3129C9.45924 11.31 10.0627 11.2506 10.2284 10.7165C10.5242 9.7729 10.329 9.06075 10.2876 8.2121C10.2343 7.05485 10.9917 7.10232 11.3467 6.43171C11.6307 5.89759 11.7017 4.79376 12.1809 4.34866C12.4649 4.08754 12.9619 4.10534 13.2577 3.93324C13.5536 3.76113 14.6008 3.12613 14.8257 2.94216C15.3522 2.50299 15.6599 1.68402 16.6302 1.64247C16.8965 1.63061 17.1213 1.83832 17.3166 1.83238C17.5118 1.82645 17.7012 1.58313 18.0147 1.60093C18.2632 1.61874 18.5768 1.85019 19.0087 1.89173C19.985 1.99262 20.5234 1.63654 21.1565 1.60093C21.4701 1.58313 21.6653 1.82645 21.8547 1.83238C22.0795 1.83832 22.2807 1.60687 22.6416 1.66028C23.6415 1.80864 23.7953 2.47926 24.3456 2.94216C24.5645 3.12613 25.6058 3.76113 25.9135 3.93324C26.2212 4.10534 26.7063 4.08754 26.9903 4.34866L27.0199 4.35459Z" fill="#31323E"/>
<path id="Vector_2" d="M20.1631 4.84345L20.1714 5.17134H20.504L20.5096 5.83833C21.172 5.82712 20.7701 6.32316 20.8339 6.6006C20.8505 6.67347 21.0168 6.67907 21.0694 6.78276C21.1581 6.95652 21.1803 7.40772 21.2718 7.58707C21.3438 7.7356 21.6016 7.74681 21.6958 7.89815C21.8289 8.10553 21.682 8.43902 21.8732 8.72768C21.948 8.83978 22.1753 8.88181 22.2224 9.04996C22.2806 9.26015 22.0894 9.6609 22.1365 9.8823C22.1781 10.0841 22.6299 10.5493 22.7075 10.7791C22.7491 10.8968 22.7019 10.9865 22.7186 11.0986C22.7352 11.2107 22.8876 11.2891 22.7657 11.4853C23.0622 11.5974 23.2618 11.3031 23.4697 11.2835C23.5916 11.2723 23.7413 11.3676 23.83 11.3228C23.9713 11.2499 24.0351 10.8968 24.3427 10.8267C24.6282 10.7623 24.7779 10.936 24.861 10.9304C24.9275 10.9248 25.4708 10.4148 25.7729 10.4904C25.8283 10.5044 25.8893 10.5969 25.9253 10.5969C25.9724 10.5969 26.1082 10.4008 26.1969 10.3503C26.4769 10.199 27.3527 9.74778 27.6022 9.68332C27.7407 9.64689 27.8738 9.73096 27.9541 9.70294C28.2008 9.61326 28.5639 9.22091 29.0545 9.19849C29.2041 9.19289 29.2845 9.33581 29.3704 9.3246C29.6725 9.27976 30.1825 8.46425 30.6814 9.03034C31.1803 9.59644 30.3904 10.0841 30.3544 10.3195C30.3433 10.398 30.468 10.4764 30.4791 10.5801C30.5373 11.0846 30.1022 11.4769 30.0273 11.7347C29.8499 12.3485 29.6421 12.9678 29.3677 13.5535C29.3095 13.674 29.085 13.7665 29.085 13.803C29.085 13.817 29.1875 13.8898 29.2041 13.9543C29.2291 14.0468 29.0656 14.4924 29.0074 14.5989C28.9575 14.6913 28.7662 14.8231 28.7662 14.8735C28.7662 14.9267 28.9602 15.0837 28.9214 15.3163C28.866 15.661 28.3837 15.86 28.3616 15.9581C28.3449 16.0309 28.4419 16.2019 28.4198 16.3532C28.3948 16.5213 28.0955 16.6923 28.2175 16.995C28.2452 17.0202 28.8494 17.0398 28.9658 17.0762C29.1404 17.1295 29.6698 17.6255 29.7917 17.6535C30.0051 17.704 30.468 17.5134 30.6094 17.5583C30.8034 17.6171 30.8366 17.8189 30.9918 17.917C31.2662 18.0907 31.56 17.9422 31.7651 18.0767C31.912 18.172 31.9259 18.4326 32.0728 18.5055C32.2502 18.5952 32.6964 18.6204 32.8682 18.7101C32.9736 18.7661 33.0013 18.9427 33.065 18.9791C33.1703 19.0436 33.6138 18.7017 33.7662 19.0127C33.6859 19.5816 34.6476 19.0155 34.4647 19.6153L34.8 19.6461V20.3271C34.6753 20.4896 34.4314 20.2346 34.5035 20.6242L33.7995 20.6914L33.7385 21.067C33.5279 21.1847 33.2424 20.9801 33.0484 21.0249C32.9819 21.0417 32.9736 21.1987 32.8682 21.2603C32.6687 21.3808 32.2003 21.3892 32.0728 21.4649C31.9702 21.5238 31.8732 21.8713 31.7402 21.9357C31.6459 21.9806 30.9808 22.0198 30.9503 22.0478C30.9142 22.0843 30.9059 22.2244 30.8394 22.3028C30.5983 22.5747 30.1853 22.3169 29.8472 22.3757C29.534 22.4318 29.1349 22.8661 28.8799 22.9502C28.7551 22.9895 28.3505 23.0119 28.2147 22.9782C28.1038 23.2753 28.3948 23.4799 28.4142 23.6901C28.4253 23.8134 28.3311 23.9619 28.3754 24.0544C28.417 24.1413 28.6276 24.2225 28.7163 24.3206C29.1349 24.7858 28.7441 24.9204 28.8078 25.2174C28.8217 25.2791 28.9547 25.2903 29.0046 25.3687C29.0184 25.3912 29.1903 25.8227 29.1986 25.8536C29.2457 26.0582 29.0933 26.1198 29.0933 26.1703C29.0933 26.2347 29.3261 26.3748 29.3732 26.4729C29.6559 27.0586 29.8444 27.6191 30.0218 28.2357C30.1105 28.5411 30.5096 28.8522 30.4708 29.3903C30.4625 29.4996 30.3599 29.5977 30.3627 29.6621C30.3765 29.9564 31.1387 30.3207 30.7091 30.9092C30.1936 31.6155 29.5866 30.6682 29.376 30.6542C29.3261 30.6514 29.1958 30.7691 29.0462 30.7719C28.4558 30.7831 28.2452 30.3992 27.9652 30.3123C27.3084 30.1105 26.7928 29.9452 26.1665 29.6453C26.0473 29.5893 25.9586 29.3623 25.9198 29.3595C25.9059 29.3595 25.8145 29.508 25.6592 29.494C25.4292 29.4744 24.9026 29.0904 24.8582 29.0904C24.7252 29.0904 24.6254 29.2586 24.4065 29.2137C24.1044 29.1549 23.9907 28.7485 23.8078 28.6673C23.6969 28.6196 23.539 28.7093 23.4004 28.6869C23.2202 28.6588 23.004 28.415 22.7629 28.4851C22.7989 28.6673 22.7435 29.0764 22.6798 29.2418C22.5938 29.4688 22.1532 29.9396 22.1282 30.1301C22.0977 30.3599 22.2723 30.7551 22.203 30.9737C22.1282 31.2147 21.8926 31.1867 21.8455 31.2567C21.6127 31.593 21.9813 32.2152 21.2441 32.3973C21.3688 32.7336 20.8477 33.3474 20.8283 33.4959C20.7867 33.8126 21.1443 34.1349 20.5068 34.2077L20.432 34.8411L20.1992 34.8663L20.1049 35.1802C19.9636 35.1802 19.5367 35.2447 19.4675 35.141C19.3538 34.9728 19.5451 34.8243 19.1321 34.8047L19.0933 34.2077L18.7357 34.0648C18.6249 33.8855 18.8189 33.6444 18.7607 33.4399C18.7274 33.3306 18.5861 33.2801 18.5417 33.1876C18.4503 32.9915 18.3837 32.6159 18.3588 32.3973L17.8738 32.047C17.8156 31.82 17.8987 31.4613 17.7574 31.2567C17.7241 31.2091 17.58 31.2035 17.5079 31.139C17.2141 30.8728 17.5162 30.4384 17.4747 30.1301C17.4469 29.9256 16.9342 29.3847 16.8704 29.1605C16.8316 29.0288 16.8261 28.6392 16.84 28.4879C16.5933 28.4234 16.3937 28.6504 16.2053 28.6869C16.0611 28.7149 15.8865 28.656 15.7535 28.7009C15.6315 28.7401 15.4874 29.1605 15.1964 29.2165C14.9774 29.2586 14.8777 29.0904 14.7446 29.0932C14.7003 29.0932 14.1737 29.4772 13.9436 29.4968C13.7856 29.5108 13.6969 29.3623 13.6831 29.3623C13.6443 29.3623 13.5556 29.5893 13.4364 29.6481C12.8073 29.948 12.2945 30.1133 11.6376 30.3151C11.3577 30.402 11.1471 30.7859 10.5567 30.7747C10.407 30.7747 10.2768 30.6542 10.2269 30.657C10.0162 30.671 9.40648 31.6183 8.89373 30.912C8.46413 30.3235 9.22909 29.9592 9.24018 29.6649C9.24018 29.6033 9.1404 29.5024 9.13209 29.3931C9.09605 28.855 9.4924 28.5439 9.58109 28.2385C9.76125 27.6191 9.94694 27.0614 10.2296 26.4757C10.2768 26.3776 10.5096 26.2375 10.5096 26.1731C10.5096 26.1226 10.3571 26.061 10.4043 25.8564C10.4126 25.8256 10.5844 25.394 10.5983 25.3715C10.6482 25.2931 10.7812 25.2819 10.7951 25.2202C10.8588 24.9232 10.468 24.7886 10.8865 24.3234C10.9752 24.2253 11.1831 24.1441 11.2274 24.0572C11.2718 23.9675 11.1775 23.819 11.1886 23.6929C11.208 23.4827 11.499 23.2809 11.3882 22.981C11.2551 23.0147 10.8477 22.9951 10.723 22.953C10.468 22.8689 10.0689 22.4374 9.7557 22.3785C9.45914 22.3253 9.16812 22.4934 8.92699 22.4121C8.68586 22.3309 8.71912 22.1039 8.64983 22.0506C8.51125 21.9469 8.03453 22.017 7.86546 21.9357C7.73242 21.8713 7.63541 21.5238 7.53286 21.4649C7.40537 21.3892 6.93696 21.3808 6.73741 21.2603C6.63209 21.1959 6.62377 21.0389 6.55725 21.0249C6.36601 20.9801 6.07776 21.1847 5.86712 21.067L5.80614 20.6914L5.18253 20.683L5.07444 20.3888L4.80005 20.3299V19.6489L5.13818 19.6181L5.10492 19.4135L5.2047 19.3154L5.79506 19.2762C5.75348 18.5812 6.41313 19.0548 6.53508 18.9819C6.59883 18.9427 6.62654 18.7661 6.73186 18.7129C6.9037 18.6232 7.34994 18.6008 7.52732 18.5083C7.67422 18.4354 7.6853 18.1748 7.83497 18.0795C8.03453 17.9506 8.39761 18.0851 8.64151 17.9198C8.72743 17.8609 8.76901 17.6311 8.99073 17.5639C9.13209 17.519 9.59772 17.7096 9.80836 17.6592C9.93031 17.6311 10.4597 17.1351 10.6343 17.0818C10.7535 17.0454 11.3577 17.0258 11.3826 17.0006C11.5074 16.7007 11.208 16.527 11.1803 16.3588C11.1581 16.2103 11.2551 16.0393 11.2385 15.9637C11.2163 15.8684 10.7341 15.6666 10.6786 15.3219C10.6482 15.1285 10.8117 14.9772 10.7757 14.8287C10.7479 14.7194 10.4043 14.299 10.3849 14.0692C10.371 13.9094 10.5179 13.8198 10.5179 13.8058C10.5179 13.7665 10.2934 13.6768 10.2352 13.5563C9.94972 12.9538 9.75847 12.3709 9.57555 11.7375C9.50071 11.4825 9.06557 11.0874 9.12377 10.5829C9.13486 10.4792 9.26235 10.4008 9.24849 10.3223C9.21523 10.1093 8.3588 9.53199 8.9547 8.99952C9.50071 8.50909 9.90814 9.27977 10.2324 9.32741C10.3156 9.33862 10.3959 9.19289 10.5484 9.2013C11.039 9.22372 11.402 9.61606 11.6487 9.70574C11.7291 9.73377 11.8621 9.64969 12.0007 9.68612C12.2502 9.75058 13.126 10.2046 13.4059 10.3531C13.4946 10.4008 13.6304 10.5997 13.6775 10.5997C13.7136 10.5997 13.7745 10.5072 13.83 10.4932C14.1487 10.4148 14.631 10.9108 14.703 10.922C14.8444 10.9388 14.9774 10.7679 15.2601 10.8295C15.5706 10.8968 15.6315 11.2527 15.7729 11.3256C15.8616 11.3704 16.0085 11.2751 16.1332 11.2863C16.3411 11.306 16.5406 11.6002 16.8372 11.4881C16.7152 11.2891 16.8649 11.2107 16.8843 11.1014C16.9037 10.9921 16.8566 10.8996 16.8954 10.7819C16.9758 10.5521 17.4248 10.0869 17.4663 9.8851C17.5135 9.6637 17.3194 9.26295 17.3804 9.05277C17.4275 8.88462 17.6548 8.84258 17.7296 8.73048C17.9181 8.45023 17.7851 8.15878 17.8821 7.94579C17.9735 7.74962 18.2535 7.74962 18.3311 7.59268C18.4198 7.41332 18.4447 6.95932 18.5334 6.78837C18.5861 6.68468 18.7524 6.68188 18.769 6.60621C18.8328 6.32876 18.4309 5.83273 19.0933 5.84394L19.0988 5.17695H19.4314L19.4286 4.88549C19.4564 4.76218 20.1216 4.79301 20.1548 4.84906L20.1631 4.84345Z" fill="#E8EAFF"/>
</g>
</svg>
