<svg width="60" height="60" viewBox="0 0 60 60" fill="none" xmlns="http://www.w3.org/2000/svg">
<path id="Vector" d="M40.5299 6.53192C41.2488 7.19066 41.3553 8.85532 41.7813 9.65649C42.1185 10.2885 43.1303 10.6891 43.3167 11.5348C43.503 12.3805 43.1214 12.9057 43.1392 13.6089C43.1481 14.0451 43.29 15.327 43.3699 15.7454C43.5652 16.7869 44.497 16.7958 44.2042 18.3092C44.0178 19.2884 43.0327 19.1816 42.935 19.2884C42.864 19.3596 43.1303 20.0896 43.0061 20.5168C42.8197 21.2112 42.0387 21.7275 41.7724 22.2883C41.0891 23.7393 40.6808 25.6978 39.7312 27.0687C38.9058 28.2615 37.4237 28.0479 37.6012 30.0508C37.6455 30.5404 38.4887 31.2882 38.6839 31.9736C38.9147 32.7837 38.888 34.0122 39.314 34.9024C39.456 35.205 40.308 35.7569 40.4855 36.3356C40.6542 36.8786 40.4855 37.4216 40.6187 37.9023C40.7695 38.4453 41.2044 39.3533 41.4707 40.2524C41.6038 40.6886 42.2872 40.9646 42.509 41.5699C42.7132 42.1307 42.4292 42.8429 42.5002 42.9497C42.7043 43.2346 44.2219 43.1633 43.6717 44.8992C43.4232 45.6915 42.6511 45.5046 42.6954 46.1722C43.9113 46.2434 44.4615 47.4452 43.9734 48.5223C45.7129 48.2374 46.2099 51.549 45.775 52.5727C45.5265 53.1691 43.9468 53.8368 43.6539 54.5044C43.4143 55.0652 43.6717 55.8575 43.1214 56.3204C42.0387 56.4005 41.0713 56.7032 40.0773 57.1127C39.7578 57.2462 39.5981 57.6379 39.1721 57.7091C38.4266 57.8337 38.0272 57.353 37.6899 57.353C37.3527 57.353 36.9888 57.807 36.2167 57.7002C35.8173 57.6468 35.4534 57.2729 35.125 57.2818C34.7168 57.2818 34.4151 57.896 33.9713 58.0385C32.7111 58.448 32.3117 57.3441 31.2112 57.0682C30.7586 58.6171 28.0251 58.537 27.4748 57.0682C26.3743 57.442 25.9217 58.537 24.6437 57.9673C24.2887 57.807 24.0313 57.2818 23.6408 57.2729C23.3213 57.2729 22.9485 57.6379 22.5492 57.6913C21.7859 57.7981 21.4132 57.3441 21.0759 57.3441C20.7387 57.3441 20.3393 57.8248 19.5938 57.7002C19.1678 57.629 19.008 57.2373 18.6885 57.1038C17.6946 56.6943 16.7272 56.3916 15.6444 56.3115C15.0942 55.8486 15.3516 55.0652 15.1119 54.4955C14.8102 53.8012 13.1328 53.1246 12.9287 52.4214C12.6092 51.3442 13.1062 48.2553 14.8013 48.5134C14.3132 47.4363 14.8546 46.2345 16.0793 46.1633C16.1681 45.5313 15.4758 45.7182 15.1741 45.0417C14.9078 44.4452 14.9965 43.6708 15.5024 43.2346C15.742 43.0298 16.2568 42.9942 16.2923 42.9497C16.3544 42.8607 16.0704 42.1218 16.2745 41.5699C16.4964 40.9557 17.1887 40.6797 17.3129 40.2524C17.6679 39.0774 17.943 37.475 18.298 36.3356C18.4844 35.7391 19.4341 35.0893 19.5494 34.8044C19.9222 33.8697 19.9488 32.5255 20.2151 31.6443C20.3748 31.1279 21.1292 30.5671 21.1824 30.0508C21.2002 29.8372 20.9605 28.6176 20.8629 28.4574C20.6943 28.1903 20.1795 28.128 19.9222 27.9054C18.3424 26.5435 17.8543 24.22 17.0822 22.4219C16.8159 21.8076 15.884 21.0332 15.742 20.3388C15.6711 19.9827 15.9462 19.3685 15.8574 19.2706C15.8042 19.2172 14.8546 19.235 14.6327 18.4694C14.1889 16.965 15.0942 16.876 15.3427 16.0748C15.7864 14.6594 15.4936 13.5911 15.4314 12.3182C15.3516 10.5823 16.4876 10.6535 17.0201 9.64759C17.4461 8.84642 17.5525 7.19066 18.2714 6.52302C18.6974 6.13133 19.4429 6.15804 19.8867 5.89988C20.3304 5.64172 21.9013 4.68922 22.2386 4.41326C23.0284 3.75452 23.4899 2.52605 24.9454 2.46374C25.3448 2.44593 25.682 2.7575 25.9749 2.7486C26.2678 2.7397 26.5518 2.37472 27.0222 2.40142C27.3949 2.42813 27.8653 2.7753 28.5132 2.83762C29.9775 2.98895 30.7852 2.45483 31.7348 2.40142C32.2052 2.37472 32.498 2.7397 32.782 2.7486C33.1193 2.7575 33.421 2.41032 33.9624 2.49044C35.4623 2.71299 35.693 3.71891 36.5184 4.41326C36.8468 4.68922 38.4088 5.64172 38.8703 5.89988C39.3318 6.15804 40.0595 6.13133 40.4855 6.52302L40.5299 6.53192Z" fill="#31323E"/>
<path id="Vector_2" d="M30.2446 7.26513L30.2571 7.75697H30.756L30.7643 8.75745C31.7579 8.74063 31.1551 9.48469 31.2507 9.90086C31.2757 10.0102 31.5251 10.0186 31.6041 10.1741C31.7372 10.4347 31.7704 11.1115 31.9076 11.3806C32.0157 11.6034 32.4023 11.6202 32.5437 11.8472C32.7433 12.1582 32.5229 12.6585 32.8098 13.0915C32.922 13.2596 33.2629 13.3227 33.3336 13.5749C33.4209 13.8902 33.134 14.4913 33.2047 14.8234C33.2671 15.1261 33.9447 15.8239 34.0612 16.1686C34.1235 16.3451 34.0528 16.4797 34.0778 16.6478C34.1027 16.816 34.3314 16.9337 34.1485 17.2279C34.5933 17.3961 34.8926 16.9547 35.2044 16.9253C35.3874 16.9084 35.6119 17.0514 35.7449 16.9841C35.9569 16.8748 36.0526 16.3451 36.514 16.24C36.9422 16.1434 37.1667 16.404 37.2915 16.3956C37.3912 16.3872 38.2061 15.6221 38.6593 15.7356C38.7424 15.7566 38.8339 15.8953 38.8879 15.8953C38.9586 15.8953 39.1623 15.6011 39.2954 15.5254C39.7153 15.2984 41.029 14.6216 41.4032 14.5249C41.611 14.4703 41.8106 14.5964 41.9312 14.5544C42.3012 14.4198 42.8458 13.8313 43.5817 13.7977C43.8062 13.7893 43.9267 14.0037 44.0556 13.9869C44.5088 13.9196 45.2737 12.6963 46.0221 13.5455C46.7704 14.3946 45.5855 15.1261 45.5315 15.4792C45.5149 15.5969 45.7019 15.7146 45.7186 15.8701C45.8059 16.6268 45.1532 17.2153 45.0409 17.602C44.7748 18.5227 44.463 19.4517 44.0515 20.3303C43.9641 20.511 43.6274 20.6497 43.6274 20.7044C43.6274 20.7254 43.7812 20.8347 43.8062 20.9314C43.8436 21.0701 43.5983 21.7385 43.511 21.8982C43.4361 22.037 43.1493 22.2345 43.1493 22.3102C43.1493 22.3901 43.4403 22.6255 43.3821 22.9744C43.299 23.4914 42.5756 23.7899 42.5423 23.937C42.5174 24.0463 42.6629 24.3028 42.6296 24.5298C42.5922 24.782 42.1432 25.0384 42.3261 25.4924C42.3677 25.5302 43.274 25.5597 43.4486 25.6143C43.7105 25.6942 44.5046 26.4382 44.6875 26.4803C45.0077 26.5559 45.7019 26.2701 45.914 26.3373C46.205 26.4256 46.2549 26.7283 46.4877 26.8754C46.8993 27.1361 47.34 26.9133 47.6476 27.115C47.868 27.258 47.8887 27.6489 48.1091 27.7582C48.3752 27.8927 49.0445 27.9306 49.3023 28.0651C49.4603 28.1491 49.5018 28.414 49.5975 28.4686C49.7554 28.5653 50.4206 28.0525 50.6493 28.5191C50.5287 29.3724 51.9713 28.5233 51.697 29.4229L52.2 29.4691V30.4906C52.0129 30.7344 51.6471 30.3519 51.7552 30.9362L50.6992 31.0371L50.6077 31.6004C50.2917 31.7769 49.8635 31.4701 49.5725 31.5373C49.4727 31.5626 49.4603 31.798 49.3023 31.8904C49.003 32.0712 48.3003 32.0838 48.1091 32.1973C47.9553 32.2856 47.8098 32.8069 47.6102 32.9035C47.4689 32.9708 46.4711 33.0296 46.4253 33.0717C46.3713 33.1263 46.3588 33.3365 46.259 33.4542C45.8974 33.862 45.2779 33.4752 44.7707 33.5635C44.3009 33.6476 43.7022 34.2992 43.3197 34.4253C43.1327 34.4841 42.5257 34.5178 42.322 34.4673C42.1557 34.9129 42.5922 35.2198 42.6213 35.5351C42.6379 35.72 42.4966 35.9428 42.5631 36.0815C42.6254 36.2119 42.9414 36.3338 43.0745 36.4809C43.7022 37.1787 43.116 37.3805 43.2116 37.8261C43.2324 37.9186 43.432 37.9354 43.5068 38.0531C43.5276 38.0867 43.7854 38.7341 43.7978 38.7803C43.8685 39.0872 43.6399 39.1797 43.6399 39.2553C43.6399 39.352 43.9891 39.5622 44.0598 39.7093C44.4838 40.5879 44.7665 41.4287 45.0326 42.3535C45.1656 42.8117 45.7643 43.2783 45.7061 44.0854C45.6936 44.2493 45.5398 44.3965 45.544 44.4932C45.5648 44.9345 46.708 45.481 46.0636 46.3638C45.2904 47.4231 44.3799 46.0023 44.0639 45.9813C43.9891 45.9771 43.7937 46.1536 43.5692 46.1578C42.6837 46.1746 42.3677 45.5987 41.9478 45.4684C40.9625 45.1657 40.1892 44.9177 39.2496 44.4679C39.0708 44.3839 38.9378 44.0434 38.8796 44.0392C38.8588 44.0392 38.7216 44.262 38.4888 44.2409C38.1437 44.2115 37.3538 43.6356 37.2873 43.6356C37.0878 43.6356 36.9381 43.8878 36.6097 43.8206C36.1565 43.7323 35.986 43.1227 35.7117 43.0008C35.5454 42.9294 35.3084 43.0639 35.1005 43.0303C34.8303 42.9882 34.506 42.6225 34.1443 42.7276C34.1983 43.0008 34.1152 43.6146 34.0196 43.8626C33.8907 44.2031 33.2297 44.9093 33.1923 45.1952C33.1465 45.5399 33.4084 46.1326 33.3045 46.4605C33.1922 46.822 32.8389 46.78 32.7682 46.8851C32.419 47.3895 32.9719 48.3227 31.866 48.596C32.0531 49.1004 31.2715 50.021 31.2424 50.2438C31.18 50.7188 31.7164 51.2023 30.7602 51.3116L30.6479 52.2616L30.2987 52.2994L30.1573 52.7703C29.9453 52.7703 29.3051 52.8669 29.2011 52.7114C29.0307 52.4592 29.3175 52.2364 28.6981 52.207L28.6399 51.3116L28.1036 51.0972C27.9373 50.8281 28.2283 50.4666 28.141 50.1598C28.0911 49.9958 27.8791 49.9201 27.8125 49.7814C27.6753 49.4872 27.5756 48.9239 27.5381 48.596L26.8106 48.0705C26.7233 47.73 26.848 47.1919 26.636 46.8851C26.5861 46.8136 26.3699 46.8052 26.2618 46.7085C25.8211 46.3092 26.2743 45.6576 26.2119 45.1952C26.1704 44.8883 25.4012 44.077 25.3056 43.7407C25.2474 43.5431 25.2391 42.9588 25.2599 42.7318C24.8899 42.6351 24.5905 42.9756 24.3078 43.0303C24.0916 43.0723 23.8297 42.984 23.6302 43.0513C23.4472 43.1101 23.2311 43.7407 22.7945 43.8248C22.4661 43.8878 22.3164 43.6356 22.1169 43.6398C22.0503 43.6398 21.2604 44.2157 20.9154 44.2451C20.6784 44.2662 20.5454 44.0434 20.5246 44.0434C20.4664 44.0434 20.3333 44.3839 20.1546 44.4721C19.2108 44.9219 18.4417 45.17 17.4564 45.4726C17.0365 45.6029 16.7205 46.1788 15.835 46.162C15.6105 46.162 15.4151 45.9813 15.3403 45.9855C15.0243 46.0065 14.1097 47.4273 13.3405 46.368C12.6961 45.4852 13.8436 44.9387 13.8602 44.4974C13.8602 44.4049 13.7105 44.2535 13.6981 44.0896C13.644 43.2825 14.2385 42.8159 14.3716 42.3577C14.6418 41.4287 14.9204 40.5921 15.3444 39.7135C15.4151 39.5664 15.7643 39.3562 15.7643 39.2595C15.7643 39.1839 15.5356 39.0914 15.6063 38.7845C15.6188 38.7383 15.8766 38.0909 15.8974 38.0573C15.9722 37.9396 16.1717 37.9228 16.1925 37.8303C16.2881 37.3847 15.7019 37.1829 16.3297 36.4851C16.4628 36.338 16.7746 36.2161 16.8411 36.0857C16.9076 35.9512 16.7662 35.7284 16.7829 35.5393C16.812 35.224 17.2485 34.9213 17.0822 34.4715C16.8827 34.522 16.2715 34.4925 16.0844 34.4295C15.702 34.3034 15.1033 33.656 14.6335 33.5677C14.1886 33.4879 13.7521 33.7401 13.3904 33.6182C13.0287 33.4963 13.0786 33.1558 12.9747 33.0759C12.7668 32.9204 12.0517 33.0254 11.7981 32.9035C11.5986 32.8069 11.4531 32.2856 11.2992 32.1973C11.108 32.0838 10.4054 32.0712 10.1061 31.8904C9.94807 31.7938 9.9356 31.5584 9.83582 31.5373C9.54896 31.4701 9.11658 31.7769 8.80062 31.6004L8.70915 31.0371L7.77373 31.0245L7.61159 30.5831L7.20001 30.4948V29.4733L7.70721 29.4271L7.65733 29.1202L7.80699 28.9731L8.69253 28.9142C8.63017 27.8717 9.61963 28.5821 9.80256 28.4728C9.89818 28.414 9.93975 28.1491 10.0977 28.0693C10.3555 27.9348 11.0248 27.9011 11.2909 27.7624C11.5113 27.6531 11.5279 27.2622 11.7524 27.1192C12.0517 26.9259 12.5964 27.1276 12.9622 26.8796C13.0911 26.7913 13.1534 26.4466 13.486 26.3458C13.6981 26.2785 14.3965 26.5644 14.7125 26.4887C14.8954 26.4466 15.6895 25.7026 15.9514 25.6227C16.1302 25.5681 17.0365 25.5386 17.0739 25.5008C17.261 25.051 16.812 24.7904 16.7704 24.5382C16.7371 24.3154 16.8827 24.0589 16.8577 23.9454C16.8245 23.8025 16.1011 23.4998 16.0179 22.9828C15.9722 22.6927 16.2175 22.4657 16.1634 22.2429C16.1219 22.079 15.6063 21.4484 15.5772 21.1037C15.5564 20.8641 15.7768 20.7296 15.7768 20.7086C15.7768 20.6497 15.44 20.5152 15.3527 20.3345C14.9245 19.4307 14.6376 18.5563 14.3633 17.6063C14.251 17.2237 13.5983 16.631 13.6856 15.8743C13.7022 15.7188 13.8935 15.6011 13.8727 15.4834C13.8228 15.1639 12.5381 14.2979 13.432 13.4992C14.251 12.7636 14.8621 13.9196 15.3486 13.9911C15.4733 14.0079 15.5939 13.7893 15.8225 13.8019C16.5584 13.8355 17.103 14.424 17.473 14.5586C17.5936 14.6006 17.7931 14.4745 18.001 14.5291C18.3752 14.6258 19.6889 15.3068 20.1088 15.5296C20.2419 15.6011 20.4456 15.8995 20.5163 15.8995C20.5703 15.8995 20.6618 15.7608 20.7449 15.7398C21.223 15.6221 21.9464 16.3662 22.0545 16.383C22.2665 16.4082 22.4661 16.1518 22.8901 16.2443C23.3558 16.3451 23.4472 16.879 23.6593 16.9883C23.7923 17.0556 24.0126 16.9126 24.1997 16.9295C24.5115 16.9589 24.8109 17.4003 25.2557 17.2321C25.0728 16.9337 25.2973 16.816 25.3264 16.652C25.3555 16.4881 25.2848 16.3493 25.343 16.1728C25.4636 15.8281 26.1371 15.1303 26.1995 14.8276C26.2701 14.4955 25.9791 13.8944 26.0706 13.5791C26.1413 13.3269 26.4822 13.2638 26.5944 13.0957C26.8771 12.6753 26.6776 12.2381 26.8231 11.9186C26.9603 11.6244 27.3802 11.6244 27.4966 11.389C27.6296 11.1199 27.667 10.4389 27.8001 10.1825C27.8791 10.027 28.1285 10.0228 28.1534 9.90927C28.2491 9.4931 27.6462 8.74904 28.6399 8.76586L28.6482 7.76537H29.1471L29.1429 7.32819C29.1845 7.14323 30.1823 7.18947 30.2322 7.27354L30.2446 7.26513Z" fill="#718FF2"/>
</svg>
