<svg width="21" height="21" viewBox="0 0 21 21" fill="none" xmlns="http://www.w3.org/2000/svg">
<path d="M10.5 13.4438C11.0469 13.4438 11.5391 13.7446 11.8125 14.2095C12.0859 14.7017 12.0859 15.2759 11.8125 15.7407C11.5391 16.2329 11.0469 16.5063 10.5 16.5063C9.92578 16.5063 9.43359 16.2329 9.16016 15.7407C8.88672 15.2759 8.88672 14.7017 9.16016 14.2095C9.43359 13.7446 9.92578 13.4438 10.5 13.4438ZM10.5 9.06885C11.0469 9.06885 11.5391 9.36963 11.8125 9.83447C12.0859 10.3267 12.0859 10.9009 11.8125 11.3657C11.5391 11.8579 11.0469 12.1313 10.5 12.1313C9.92578 12.1313 9.43359 11.8579 9.16016 11.3657C8.88672 10.9009 8.88672 10.3267 9.16016 9.83447C9.43359 9.36963 9.92578 9.06885 10.5 9.06885ZM12.0312 6.2251C12.0312 6.79932 11.7305 7.2915 11.2656 7.56494C10.7734 7.83838 10.1992 7.83838 9.73438 7.56494C9.24219 7.2915 8.96875 6.79932 8.96875 6.2251C8.96875 5.67822 9.24219 5.18604 9.73438 4.9126C10.1992 4.63916 10.7734 4.63916 11.2656 4.9126C11.7305 5.18604 12.0312 5.67822 12.0312 6.2251Z" fill="currentColor"/>
</svg>
