<svg width="23" height="23" viewBox="0 0 23 23" fill="#8DA3FF" xmlns="http://www.w3.org/2000/svg">
<path d="M11.5 11.75C10.1523 11.75 8.92188 11.0469 8.24805 9.875C7.57422 8.73242 7.57422 7.29688 8.24805 6.125C8.92188 4.98242 10.1523 4.25 11.5 4.25C12.8184 4.25 14.0488 4.98242 14.7227 6.125C15.3965 7.29688 15.3965 8.73242 14.7227 9.875C14.0488 11.0469 12.8184 11.75 11.5 11.75ZM10.1523 13.1562H12.8184C15.7188 13.1562 18.0625 15.5 18.0625 18.4004C18.0625 18.8691 17.6523 19.25 17.1836 19.25H5.78711C5.31836 19.25 4.9375 18.8691 4.9375 18.4004C4.9375 15.5 7.25195 13.1562 10.1523 13.1562Z"/>
</svg>
