<svg width="23" height="23" viewBox="0 0 23 23" fill="#8DA3FF" xmlns="http://www.w3.org/2000/svg">
<path d="M16.1875 10.3438C16.1875 11.6914 15.748 12.9512 15.0156 13.9473L18.707 17.668C19.0879 18.0195 19.0879 18.6348 18.707 18.9863C18.3555 19.3672 17.7402 19.3672 17.3887 18.9863L13.668 15.2656C12.6719 16.0273 11.4121 16.4375 10.0938 16.4375C6.72461 16.4375 4 13.7129 4 10.3438C4 7.00391 6.72461 4.25 10.0938 4.25C13.4336 4.25 16.1875 7.00391 16.1875 10.3438ZM10.0938 14.5625C11.5879 14.5625 12.9648 13.7715 13.7266 12.4531C14.4883 11.1641 14.4883 9.55273 13.7266 8.23438C12.9648 6.94531 11.5879 6.125 10.0938 6.125C8.57031 6.125 7.19336 6.94531 6.43164 8.23438C5.66992 9.55273 5.66992 11.1641 6.43164 12.4531C7.19336 13.7715 8.57031 14.5625 10.0938 14.5625Z"/>
</svg>
